<?xml version="1.0" standalone="no"?>
<!DOCTYPE svg PUBLIC "-//W3C//DTD SVG 20010904//EN"
 "http://www.w3.org/TR/2001/REC-SVG-20010904/DTD/svg10.dtd">
<svg version="1.0" xmlns="http://www.w3.org/2000/svg"
 width="70.000000pt" height="70.000000pt" viewBox="0 0 70.000000 70.000000"
 preserveAspectRatio="xMidYMid meet">
<metadata>
Created by potrace 1.14, written by Peter Selinger 2001-2017
</metadata>
<g transform="translate(0.000000,70.000000) scale(0.100000,-0.100000)"
fill="#000000" stroke="none">
<path d="M230 680 c0 -16 -7 -20 -35 -20 -28 0 -35 -4 -35 -20 0 -13 -7 -20
-20 -20 -13 0 -20 -7 -20 -20 0 -13 -7 -20 -20 -20 -13 0 -20 -7 -20 -20 0
-13 -7 -20 -20 -20 -16 0 -20 -7 -20 -35 0 -28 -4 -35 -20 -35 -19 0 -20 -7
-20 -120 0 -113 1 -120 20 -120 16 0 20 -7 20 -35 0 -28 4 -35 20 -35 13 0 20
-7 20 -20 0 -13 7 -20 20 -20 13 0 20 -7 20 -20 0 -13 7 -20 20 -20 13 0 20
-7 20 -20 0 -16 7 -20 35 -20 28 0 35 -4 35 -20 0 -19 7 -20 120 -20 113 0
120 1 120 20 0 16 7 20 35 20 28 0 35 4 35 20 0 13 7 20 20 20 13 0 20 7 20
20 0 13 7 20 20 20 13 0 20 7 20 20 0 13 7 20 20 20 16 0 20 7 20 35 0 28 4
35 20 35 19 0 20 7 20 120 0 113 -1 120 -20 120 -16 0 -20 7 -20 35 0 28 -4
35 -20 35 -13 0 -20 7 -20 20 0 13 -7 20 -20 20 -13 0 -20 7 -20 20 0 13 -7
20 -20 20 -13 0 -20 7 -20 20 0 16 -7 20 -35 20 -28 0 -35 4 -35 20 0 19 -7
20 -120 20 -113 0 -120 -1 -120 -20z m240 -40 c0 -13 7 -20 20 -20 13 0 20 -7
20 -20 0 -11 7 -20 15 -20 12 0 15 -15 15 -75 0 -60 -3 -75 -15 -75 -11 0 -15
-11 -15 -40 0 -33 -3 -40 -20 -40 -13 0 -20 -7 -20 -20 0 -13 -7 -20 -20 -20
-13 0 -20 -7 -20 -20 0 -17 -7 -20 -40 -20 l-40 0 0 -55 0 -55 95 0 95 0 0 35
c0 34 1 35 40 35 39 0 40 -1 40 -35 0 -28 -4 -35 -20 -35 -13 0 -20 -7 -20
-20 0 -13 -7 -20 -20 -20 -13 0 -20 -7 -20 -20 0 -16 -7 -20 -35 -20 -28 0
-35 -4 -35 -20 0 -19 -7 -20 -120 -20 -113 0 -120 1 -120 20 0 16 -7 20 -35
20 -28 0 -35 4 -35 20 0 13 -7 20 -20 20 -13 0 -20 7 -20 20 0 13 -7 20 -20
20 -16 0 -20 7 -20 35 0 28 4 35 20 35 13 0 20 -7 20 -20 0 -16 7 -20 35 -20
24 0 35 -5 35 -15 0 -8 9 -15 20 -15 18 0 20 7 20 55 l0 55 -55 0 c-48 0 -55
2 -55 20 0 13 -7 20 -20 20 -13 0 -20 7 -20 20 0 13 -7 20 -20 20 -18 0 -20 7
-20 60 0 53 2 60 20 60 16 0 20 7 20 35 0 28 4 35 20 35 13 0 20 7 20 20 0 13
7 20 20 20 13 0 20 7 20 20 0 16 7 20 35 20 28 0 35 4 35 20 0 19 7 20 120 20
113 0 120 -1 120 -20z"/>
<path d="M230 290 c0 -18 7 -20 60 -20 53 0 60 2 60 20 0 18 -7 20 -60 20 -53
0 -60 -2 -60 -20z"/>
<path d="M230 140 c0 -18 7 -20 60 -20 53 0 60 2 60 20 0 18 -7 20 -60 20 -53
0 -60 -2 -60 -20z"/>
</g>
</svg>
