<svg xmlns="http://www.w3.org/2000/svg" width="51.697" height="68.327" viewBox="0 0 13.678 18.078">
    <path d="M114.713 37.207h-12.919l.155-.904a277.548 277.548 0 0 1 .145-.841q.075-.43.16-.905a470.511 470.511 0 0 1 .057-.321 61.53 61.53 0 0 0 .284-1.576 248.449 248.449 0 0 1 .108-.644l.095-.555a140.083 140.083 0 0 1 .03-.171h1.033l-.207 1.214q-.22 1.154-.349 1.935a37.822 37.822 0 0 0-.013.08h8.191l.104-.542a25.06 25.06 0 0 0 .09-.504q.043-.258.087-.543a41.804 41.804 0 0 0 .03-.193 23.261 23.261 0 0 0 .16-.84 21.182 21.182 0 0 0 .02-.116 22.376 22.376 0 0 1 .073-.413q.036-.194.072-.365a12.985 12.985 0 0 1 .01-.049h-3.074l.232-1.344q.2-1.176.457-2.64a676.252 676.252 0 0 1 .086-.486l.413-2.377a2142.363 2142.363 0 0 0 .148-.832l.214-1.21h-2.042l-.129.75a87.348 87.348 0 0 1-.123.695q-.085.473-.187 1.01-.103.647-.232 1.292-.09.555-.159.996a392.833 392.833 0 0 0-.022.141l-.181 1.008a217.648 217.648 0 0 1-.087.483q-.122.67-.217 1.164a74.876 74.876 0 0 1-.006.032h-4.083l.466-.413a235.876 235.876 0 0 1 .488-.41l.54-.452a385.085 385.085 0 0 1 .083-.068l.826-.724q.386-.313.682-.582a11.437 11.437 0 0 0 .042-.038h.413l.13-.749a87.348 87.348 0 0 1 .122-.695q.086-.473.187-1.01.104-.646.233-1.292l.159-.996a392.833 392.833 0 0 0 .022-.141h-2.041l-.104.543a24.753 24.753 0 0 1-.078.504q-.056.343-.128.736-.078.465-.181.93a44.947 44.947 0 0 0-.063.387q-.028.177-.051.336a25.879 25.879 0 0 0-.015.104l-.466.387q-.439.362-.749.62l.13-.697a99.08 99.08 0 0 0 .117-.65q.06-.333.124-.702a169.625 169.625 0 0 0 .043-.25l.206-1.189q.071-.426.13-.767a79.962 79.962 0 0 1 .051-.292l-.336-.414q-.313-.385-.717-.862a76.118 76.118 0 0 0-.058-.068l-.568-.723a56.177 56.177 0 0 1-.272-.323 42.854 42.854 0 0 1-.245-.297h12.919l-.052.336a31.288 31.288 0 0 1-.029.17q-.033.194-.08.456a122.404 122.404 0 0 1-.046.252 400.656 400.656 0 0 1-.098.56q-.11.623-.255 1.431a1280.448 1280.448 0 0 1-.138.774q-.31 1.705-.645 3.669-.362 1.99-.698 4.005-.362 1.99-.62 3.488l.336.413q.313.386.717.862a76.118 76.118 0 0 0 .058.068l.568.724a8.715 8.715 0 0 1 .252.284q.111.132.205.255a4.936 4.936 0 0 1 .06.08zm-1.033-15.141h-2.042l-.18.93a73.23 73.23 0 0 1-.151.891q-.106.607-.237 1.305-.13.827-.285 1.654a37.208 37.208 0 0 1-.112.684q-.055.31-.11.584a20.345 20.345 0 0 1-.036.179h2.067l.155-.956a82.993 82.993 0 0 0 .163-.891q.081-.456.167-.962a141.865 141.865 0 0 0 .058-.343 45.667 45.667 0 0 0 .284-1.628 96.29 96.29 0 0 0 .109-.591l.08-.448a54.251 54.251 0 0 0 .07-.408z" vector-effect="non-scaling-stroke" style="fill:#000;stroke:#000;stroke-width:.0661458mm" transform="translate(-101.646 -19.254)"/>
</svg>
