<svg xmlns="http://www.w3.org/2000/svg" width="84.738" height="80.047">
    <path d="M2316.776 164.817a43.441 43.441 0 0 0-2.352-2.672q3.295-1.038 5.752-2.228a23.502 23.502 0 0 0 2.647-1.483 11.304 11.304 0 0 0 1.336-1.098q.647-.63 1.047-1.275a3.982 3.982 0 0 0 .643-2.119 3.965 3.965 0 0 0-.619-2.08q-.75-1.236-2.408-2.412a19.192 19.192 0 0 0-2.085-1.216q-1.306-.662-2.898-1.266a45.593 45.593 0 0 0-3.416-1.132q4.004-4.199 5.47-7.519a12.216 12.216 0 0 0 .378-.89q1.022-2.713.012-4.48a3.257 3.257 0 0 0-.282-.409q-.402-.497-1.015-.866a5.72 5.72 0 0 0-1.047-.484q-1.563-.586-4.004-.586a26.066 26.066 0 0 0-1.68.056 32.948 32.948 0 0 0-2.324.237 29.903 29.903 0 0 0-1.495.234 35.394 35.394 0 0 0-3.192.743q1.074-4.883.683-8.008-.39-3.125-2.148-4.199l-.977-.39q-.247-.063-.572-.086a5.823 5.823 0 0 0-.404-.013 6.021 6.021 0 0 0-1.47.197q-.732.184-1.539.542a15.209 15.209 0 0 0-1.58.824q-1.526.903-3.148 2.231a39.391 39.391 0 0 0-2.42 2.163 47.66 47.66 0 0 0-.883-2.57q-.587-1.554-1.222-2.854a21.474 21.474 0 0 0-1.41-2.486q-1.953-2.832-4.199-2.832a3.734 3.734 0 0 0-1.908.541q-.634.371-1.24.995a9.961 9.961 0 0 0-1.052 1.296 20.342 20.342 0 0 0-1.094 1.861q-1.309 2.505-2.42 6.05a44.234 44.234 0 0 0-.819-.772q-1.219-1.12-2.386-2.013a24.156 24.156 0 0 0-2.363-1.61q-1.647-.977-3.028-1.343a6.101 6.101 0 0 0-1.562-.22 6.304 6.304 0 0 0-.494.02 4.931 4.931 0 0 0-.58.078 10.115 10.115 0 0 1-.415.195 13.363 13.363 0 0 1-.464.196 3.715 3.715 0 0 0-1.222 1.242q-.697 1.127-.926 2.957-.283 2.265.203 5.455a39.989 39.989 0 0 0 .48 2.553 43.659 43.659 0 0 0-2.44-.586 32.687 32.687 0 0 0-2.247-.39 42.976 42.976 0 0 0-.622-.078q-1.87-.216-3.382-.216a18.603 18.603 0 0 0-.877.02q-.903.043-1.685.176a9.335 9.335 0 0 0-1.538.39 5.332 5.332 0 0 0-1.05.522 3.699 3.699 0 0 0-1.198 1.236 3.685 3.685 0 0 0-.296.662q-.486 1.46.18 3.453a11.55 11.55 0 0 0 .507 1.256 13.498 13.498 0 0 0 0 .01q1.467 3.316 5.466 7.51-5.372 1.562-8.4 3.613a11.304 11.304 0 0 0-1.335 1.098q-.648.63-1.048 1.275a3.982 3.982 0 0 0-.643 2.12 3.965 3.965 0 0 0 .619 2.08q.75 1.234 2.408 2.411a19.192 19.192 0 0 0 2.085 1.216q1.306.662 2.898 1.265a45.593 45.593 0 0 0 3.416 1.132 59.635 59.635 0 0 0-.338.366q-3.73 4.07-5.131 7.154a12.216 12.216 0 0 0-.38.891q-1.021 2.712-.011 4.48a3.692 3.692 0 0 0 1.179 1.223 5.312 5.312 0 0 0 1.067.535 7.532 7.532 0 0 0 .714.251q.765.23 1.667.336a14.552 14.552 0 0 0 1.72.096 19.597 19.597 0 0 0 1.696-.076 25.037 25.037 0 0 0 2.309-.314q2.148-.293 4.687-.977-1.074 4.883-.683 8.008.39 3.125 2.148 4.2a13.363 13.363 0 0 1 .464.195 10.115 10.115 0 0 1 .415.195 4.793 4.793 0 0 0 .454.067 6.123 6.123 0 0 0 .62.031 6.021 6.021 0 0 0 1.47-.197q.732-.184 1.539-.542a15.209 15.209 0 0 0 1.58-.824q1.526-.903 3.148-2.23a39.391 39.391 0 0 0 2.42-2.164 47.66 47.66 0 0 0 .883 2.57q.587 1.554 1.222 2.854a21.474 21.474 0 0 0 1.41 2.486q1.953 2.832 4.2 2.832a3.734 3.734 0 0 0 1.907-.542q.634-.37 1.24-.994a9.961 9.961 0 0 0 1.052-1.296 20.342 20.342 0 0 0 1.094-1.86q1.309-2.506 2.42-6.05a44.234 44.234 0 0 0 .82.771q1.218 1.12 2.385 2.013a24.156 24.156 0 0 0 2.363 1.61q1.648.977 3.029 1.343a6.101 6.101 0 0 0 1.56.22 6.304 6.304 0 0 0 .495-.019 4.931 4.931 0 0 0 .58-.079 10.115 10.115 0 0 1 .415-.195 13.363 13.363 0 0 1 .464-.196 3.715 3.715 0 0 0 1.222-1.242q.697-1.127.926-2.957.283-2.266-.203-5.455a39.989 39.989 0 0 0-.48-2.553 43.659 43.659 0 0 0 2.44.586 32.687 32.687 0 0 0 2.247.391q2.149.39 4.004.39a15.447 15.447 0 0 0 1.044-.033q1.745-.119 2.96-.65 1.66-.586 2.344-1.758 1.172-2.05-.49-5.469a18.743 18.743 0 0 0-1.126-2.035q-.801-1.264-1.891-2.617zm-21.883-10.875a10.741 10.741 0 0 0-.95-4.553 10.543 10.543 0 0 0-2.274-3.162 10.761 10.761 0 0 0-4.335-2.71 10.953 10.953 0 0 0-3.378-.513 10.741 10.741 0 0 0-4.554.95 10.543 10.543 0 0 0-3.161 2.273 10.284 10.284 0 0 0-3.22 7.43 12.882 12.882 0 0 0 0 .285 10.741 10.741 0 0 0 .95 4.552 10.543 10.543 0 0 0 2.273 3.163 10.284 10.284 0 0 0 7.429 3.22 12.882 12.882 0 0 0 .286.002 10.509 10.509 0 0 0 7.613-3.122 12.985 12.985 0 0 0 .1-.1 10.284 10.284 0 0 0 3.22-7.43 12.882 12.882 0 0 0 0-.285zm-32.11 18.03a8.426 8.426 0 0 0 .957-.159 4.853 4.853 0 0 1-.03.112q-.047.17-.11.358a8.643 8.643 0 0 1-.153.41l-.196.78a63.087 63.087 0 0 1-.775.141 56.566 56.566 0 0 1-2.252.347q-.755.101-1.433.15a16.802 16.802 0 0 1-1.204.046q-2.05 0-3.418-.489a4.503 4.503 0 0 1-.759-.373 3.245 3.245 0 0 1-1.096-1.09 2.862 2.862 0 0 1-.274-.66 3.373 3.373 0 0 1-.117-.904 5.119 5.119 0 0 1 .018-.42q.04-.473.164-.998a9.752 9.752 0 0 1 .307-1.023 14.652 14.652 0 0 1 .717-1.407q.535-.929 1.26-1.922a31.612 31.612 0 0 1 1.636-2.042 22.325 22.325 0 0 1 .464.097 16.244 16.244 0 0 1 .415.098 22.325 22.325 0 0 1 .464.098 16.244 16.244 0 0 1 .415.097q-1.038 1.404-1.656 2.617a10.134 10.134 0 0 0-.59 1.387q-.586 1.856.195 3.028a2.571 2.571 0 0 0 .102.168q.293.444.777.78a4.216 4.216 0 0 0 .781.42 6.085 6.085 0 0 0 .573.186q.572.157 1.243.232a11.789 11.789 0 0 0 1.31.07q.78 0 1.562-.099a6.809 6.809 0 0 0 .702-.037zm-6.758-26.917a22.325 22.325 0 0 0 .464-.097 16.244 16.244 0 0 0 .415-.098 22.325 22.325 0 0 0 .464-.098 16.244 16.244 0 0 0 .415-.097 20.394 20.394 0 0 1-1.075-1.597q-.8-1.33-1.17-2.505a5.926 5.926 0 0 1-.15-.686q-.138-.89.071-1.607a2.823 2.823 0 0 1 .274-.637 2.783 2.783 0 0 1 .806-.896q.333-.243.763-.432a5.057 5.057 0 0 1 .09-.039q1.27-.488 3.126-.488.78 0 1.562.098a112.072 112.072 0 0 0 .806.097 133.39 133.39 0 0 0 .854.098q-.083-.336-.24-.744a9.659 9.659 0 0 0-.052-.135l-.196-.78a59.75 59.75 0 0 0-2.288-.386 53.53 53.53 0 0 0-.74-.104 24.18 24.18 0 0 0-1.308-.14q-.618-.048-1.172-.054a14.418 14.418 0 0 0-.156 0q-1.57 0-2.739.285a6.881 6.881 0 0 0-.68.202 4.478 4.478 0 0 0-.801.373q-.725.436-1.053 1.092-.391.684-.391 1.563 0 .71.258 1.625a11.013 11.013 0 0 0 .23.718 13.375 13.375 0 0 0 .954 1.893q.559.934 1.324 1.941a31.608 31.608 0 0 0 1.336 1.635zm49.102-9.142a8.426 8.426 0 0 0-.958.158 16.244 16.244 0 0 0 .098-.415 22.325 22.325 0 0 0 .098-.464q.195-.39.293-.78a63.087 63.087 0 0 1 .775-.142 56.566 56.566 0 0 1 2.252-.348q.755-.1 1.433-.149a16.802 16.802 0 0 1 1.204-.046q2.051 0 3.418.488a4.503 4.503 0 0 1 .76.373 3.245 3.245 0 0 1 1.095 1.092 2.862 2.862 0 0 1 .275.66 3.373 3.373 0 0 1 .116.903 5.119 5.119 0 0 1-.017.42q-.04.473-.165.998a9.752 9.752 0 0 1-.306 1.023 14.652 14.652 0 0 1-.718 1.407q-.535.93-1.26 1.922a31.612 31.612 0 0 1-1.636 2.042 22.325 22.325 0 0 1-.464-.097 16.244 16.244 0 0 1-.415-.098 22.325 22.325 0 0 1-.464-.098 16.244 16.244 0 0 1-.415-.097 21.993 21.993 0 0 0 .691-.988q1.101-1.674 1.556-3.114.26-.933.188-1.7a2.944 2.944 0 0 0-.384-1.23 2.397 2.397 0 0 0-.292-.413q-.283-.325-.7-.582a4.628 4.628 0 0 0-.766-.372 5.28 5.28 0 0 0-.728-.24q-.505-.128-1.103-.19a11.625 11.625 0 0 0-1.196-.058q-.78 0-1.561.098a6.809 6.809 0 0 0-.704.037zm6.757 26.916a22.325 22.325 0 0 0-.464.097 16.244 16.244 0 0 0-.415.098 22.325 22.325 0 0 0-.464.098 16.244 16.244 0 0 0-.415.097 20.394 20.394 0 0 1 1.075 1.597q.801 1.331 1.172 2.505a5.926 5.926 0 0 1 .15.685q.136.891-.073 1.608a2.823 2.823 0 0 1-.273.636 2.589 2.589 0 0 1-.71.803q-.318.241-.734.433a5.278 5.278 0 0 1-.314.132 5.623 5.623 0 0 1-1.042.311q-.516.105-1.119.148a12.3 12.3 0 0 1-.866.03q-.78 0-1.562-.099a7.077 7.077 0 0 1-1.015-.076 8.785 8.785 0 0 1-.646-.119 16.244 16.244 0 0 1 .098.415 22.325 22.325 0 0 1 .098.464q.195.391.293.781a59.75 59.75 0 0 0 2.288.385 53.53 53.53 0 0 0 .74.103 24.18 24.18 0 0 0 1.308.141q.617.048 1.171.054a14.418 14.418 0 0 0 .157.001q1.57 0 2.738-.286a6.881 6.881 0 0 0 .68-.203 4.35 4.35 0 0 0 .918-.477 3.194 3.194 0 0 0 .937-.987q.391-.684.391-1.563a5.703 5.703 0 0 0-.094-.996q-.086-.486-.252-1.02a10.854 10.854 0 0 0-.142-.425q-.819-1.86-2.488-4.004a33.726 33.726 0 0 0-1.126-1.367zm8.594-8.887a3.311 3.311 0 0 0-.479-1.677q-.302-.523-.797-1.037a8.474 8.474 0 0 0-.775-.704 15.382 15.382 0 0 0-1.83-1.13q-1.71-.909-4.029-1.702a5.721 5.721 0 0 1-.36.33 7.32 7.32 0 0 1-.323.256l-.683.683a21.016 21.016 0 0 1 1.749.831q.835.45 1.507.927a10.012 10.012 0 0 1 .748.586 5.521 5.521 0 0 1 .717.798q.365.504.525 1.023a2.755 2.755 0 0 1 .125.816 2.931 2.931 0 0 1-.408 1.465q-.244.428-.633.846a6.316 6.316 0 0 1-.326.326 12.114 12.114 0 0 1-1.31.977q-1.147.75-2.694 1.464a7.1 7.1 0 0 1 .408.33 5.546 5.546 0 0 1 .275.256 5.721 5.721 0 0 0 .36.33 7.32 7.32 0 0 0 .324.256 30.949 30.949 0 0 0 2.355-.908q1.095-.477 1.988-.99a13.168 13.168 0 0 0 1.419-.934 8.315 8.315 0 0 0 .988-.889q1.16-1.238 1.16-2.529zm-64.776 5.92a5.721 5.721 0 0 0-.36.33q-2.32-.794-4.029-1.7a15.382 15.382 0 0 1-1.83-1.132 8.474 8.474 0 0 1-.775-.705q-.494-.513-.797-1.036a3.311 3.311 0 0 1-.48-1.677 3.208 3.208 0 0 1 .34-1.413q.264-.543.732-1.077a7.995 7.995 0 0 1 .98-.928q1.41-1.025 3.493-1.925a32.616 32.616 0 0 1 2.366-.907 5.546 5.546 0 0 0 .275.256 7.1 7.1 0 0 0 .409.33 5.546 5.546 0 0 1 .256.275 7.1 7.1 0 0 1 .33.408 22.88 22.88 0 0 0-.85.395q-.901.441-1.647.913a11.692 11.692 0 0 0-1.41 1.036 6.316 6.316 0 0 0-.326.326q-.39.418-.632.846a2.931 2.931 0 0 0-.41 1.465 2.755 2.755 0 0 0 .126.816q.16.52.524 1.023a5.521 5.521 0 0 0 .719.798q.896.833 2.298 1.582a19.719 19.719 0 0 0 1.608.761 7.32 7.32 0 0 1-.258.323 5.721 5.721 0 0 1-.328.361 7.32 7.32 0 0 0-.324.256zm22.723-32.61a5.721 5.721 0 0 0-.33-.36q.706-2.057 1.517-3.618a15.384 15.384 0 0 1 1.12-1.852 7.989 7.989 0 0 1 .675-.747q.48-.465.968-.75a3.099 3.099 0 0 1 1.58-.456 2.901 2.901 0 0 1 1.307.317q.511.255 1.002.714a7.038 7.038 0 0 1 .817.922 13.127 13.127 0 0 1 .71 1.037q.574.926 1.09 2.061a26.703 26.703 0 0 1 .934 2.371 5.546 5.546 0 0 0-.257.275 7.1 7.1 0 0 0-.33.41l-.585.585a20.78 20.78 0 0 0-.445-.996q-.378-.789-.783-1.443a10.222 10.222 0 0 0-.92-1.272q-.635-.635-1.27-.952a2.817 2.817 0 0 0-1.27-.318q-.907 0-1.73.56a4.748 4.748 0 0 0-.81.71q-.731.854-1.387 2.09a19.249 19.249 0 0 0-.76 1.621q-.391-.293-.586-.586a7.32 7.32 0 0 0-.256-.323zm11.06 53.38a5.721 5.721 0 0 0 .33.361 29.07 29.07 0 0 1-.496 1.338q-.486 1.223-1.033 2.24a14.332 14.332 0 0 1-1.206 1.89q-.72.962-1.49 1.45a3.011 3.011 0 0 1-1.634.504 3.006 3.006 0 0 1-1.343-.327q-.513-.254-1.018-.704a7.583 7.583 0 0 1-.862-.923q-.922-1.289-1.728-3.12a30.005 30.005 0 0 1-.91-2.348 5.546 5.546 0 0 0 .258-.276 7.1 7.1 0 0 0 .329-.408l.586-.586a20.78 20.78 0 0 0 .445.995q.378.79.784 1.444a10.222 10.222 0 0 0 .919 1.272q1.172 1.27 2.54 1.27a2.661 2.661 0 0 0 .84-.14q.463-.153.925-.474a5.723 5.723 0 0 0 .774-.656q.732-.854 1.388-2.09a19.249 19.249 0 0 0 .76-1.62l.586.585a7.32 7.32 0 0 0 .256.323zm-13.929-.42-.194-.782-.197-.78a22.373 22.373 0 0 1-1.527 1.03 17.256 17.256 0 0 1-1.304.727q-1.104.51-2.061.576a4.089 4.089 0 0 1-.283.01q-.39 0-.781-.098a2.381 2.381 0 0 1-.409-.14 1.948 1.948 0 0 1-.275-.153q-.868-.52-1.273-1.735a5.372 5.372 0 0 1-.094-.316 7.48 7.48 0 0 1-.282-1.35q-.113-.947-.036-2.057a14.36 14.36 0 0 1 .025-.304 16.244 16.244 0 0 1-.415.098 22.325 22.325 0 0 1-.464.098q-.39.195-.78.293-.226 1.495-.278 2.704a16.442 16.442 0 0 0-.016.714 24.763 24.763 0 0 0 .024 1.123 18.98 18.98 0 0 0 .073 1.025q.391 2.148 1.66 2.93.391.195.684.195a3.17 3.17 0 0 0 .443.076 4.244 4.244 0 0 0 .436.022q1.36 0 3.301-.967a15.477 15.477 0 0 0 .02-.01 21.099 21.099 0 0 0 1.68-1.089q.836-.598 1.725-1.334a38.164 38.164 0 0 0 .598-.507zm16.798-52.54.195.782q.098.39.098.781a25.642 25.642 0 0 1 1.22-.792q.59-.358 1.13-.634a13.383 13.383 0 0 1 .482-.234 8.02 8.02 0 0 1 .905-.389q.487-.173.93-.244a3.809 3.809 0 0 1 .606-.05q.39 0 .782.097a3.84 3.84 0 0 1 .233.087q.206.084.45.206.868.52 1.273 1.735a5.372 5.372 0 0 1 .094.316 6.372 6.372 0 0 1 .25 1.068q.145.963.077 2.17a15.61 15.61 0 0 1-.034.472l.782-.195a8.643 8.643 0 0 1 .408-.152q.188-.064.359-.11a4.853 4.853 0 0 1 .112-.03q.224-1.496.276-2.705a16.442 16.442 0 0 0 .017-.714 12.246 12.246 0 0 0-.061-1.24 9.587 9.587 0 0 0-.135-.908q-.191-1.403-.84-2.223a2.826 2.826 0 0 0-.82-.707 1.165 1.165 0 0 0-.546-.189 1.465 1.465 0 0 0-.138-.006q-.39-.098-.781-.098-1.36 0-3.301.967a15.477 15.477 0 0 0-.02.01 21.099 21.099 0 0 0-1.68 1.09q-.836.597-1.725 1.333a38.164 38.164 0 0 0-.598.506zm-27.148 4.883q.39.098.78.293a22.325 22.325 0 0 1 .465.098 16.244 16.244 0 0 1 .414.097q-.195-2.246.294-3.71.291-1.096.911-1.7a2.476 2.476 0 0 1 .455-.35 2.03 2.03 0 0 1 .438-.22 2.517 2.517 0 0 1 .245-.074q.391-.098.782-.098a3.959 3.959 0 0 1 1.05.15q.455.125.94.354a7.592 7.592 0 0 1 .353.18 12.594 12.594 0 0 1 1.481.76 17.03 17.03 0 0 1 1.352.9l.195-.78.196-.783a34.118 34.118 0 0 0-1.761-1.426q-.877-.662-1.7-1.176a18.534 18.534 0 0 0-.543-.327 12.63 12.63 0 0 0-1.163-.515q-1.217-.462-2.156-.462-.49 0-.782.098a1.663 1.663 0 0 0-.6.114 2.042 2.042 0 0 0-.182.081 3.025 3.025 0 0 0-1.024 1.078q-.265.453-.444 1.042a7.292 7.292 0 0 0-.193.81 18.98 18.98 0 0 0-.073 1.025 24.763 24.763 0 0 0-.024 1.123q0 1.465.294 3.418zm36.62 42.481a9.659 9.659 0 0 0 .136.053q.408.156.744.24.293 1.953.293 3.418a12.608 12.608 0 0 1-.038.988 9.861 9.861 0 0 1-.158 1.16 6.784 6.784 0 0 1-.09.515q-.133.618-.372 1.103a2.973 2.973 0 0 1-1.198 1.312q-.293.195-.684.195-.39.098-.781.098-.94 0-2.157-.462a12.63 12.63 0 0 1-1.163-.515 18.534 18.534 0 0 1-.543-.327q-.822-.514-1.7-1.176a34.118 34.118 0 0 1-1.761-1.427l.195-.78.196-.782q1.464 1.074 2.734 1.758a9.558 9.558 0 0 0 .476.19q1.082.396 1.965.396.39 0 .782-.098a3.544 3.544 0 0 0 .142-.05q.124-.048.262-.11a7.341 7.341 0 0 0 .279-.133 2.476 2.476 0 0 0 .455-.35q.62-.605.912-1.7.323-1.29.313-2.978a18.617 18.617 0 0 0-.02-.734zm1.66-36.914-.78 2.54q-.49 1.171-1.076 2.538 1.66.195 3.224.488 1.562.195 3.027.488a9.347 9.347 0 0 0 .563-.998q.256-.53.396-1.028a4.795 4.795 0 0 0 .116-.513 3.855 3.855 0 0 0 .059-.279q.025-.145.034-.274a1.957 1.957 0 0 0 0-.13 2.554 2.554 0 0 0-.055-.545q-.083-.38-.291-.667a1.6 1.6 0 0 0-.044-.058 2.082 2.082 0 0 0-.668-.764q-.273-.195-.63-.342a4.123 4.123 0 0 0-.167-.066q-.885-.322-2.101-.378a11.503 11.503 0 0 0-.536-.012h-.488zm1.075 31.64a10.388 10.388 0 0 0 1.145-.059q.573-.064 1.059-.195a5.324 5.324 0 0 0 .433-.136 3.497 3.497 0 0 0 .644-.307q.56-.346.82-.865.39-.586.39-1.27a2.152 2.152 0 0 0-.016-.254q-.023-.197-.08-.429-.162-.966-.788-2.065a10.318 10.318 0 0 0-.288-.474q-1.465.293-3.027.488a47.783 47.783 0 0 1-3.223.488 78.177 78.177 0 0 1 .824 1.996 68.291 68.291 0 0 1 .251.641 107.391 107.391 0 0 1 .586 1.813 119.653 119.653 0 0 1 .195.628h.977zm-41.212-31.64a11.578 11.578 0 0 0-.97.038q-.994.084-1.666.352-1.054.383-1.544 1.142a2.409 2.409 0 0 0-.018.03q-.244.407-.285 1.017a3.793 3.793 0 0 0-.01.253 2.152 2.152 0 0 0 .015.254q.025.197.083.43.16.965.785 2.064a10.318 10.318 0 0 0 .289.474q1.465-.293 3.027-.488 1.563-.293 3.125-.488a56.842 56.842 0 0 0-.61-1.633 46.432 46.432 0 0 0-.367-.906q-.39-1.27-.878-2.539h-.49zm.978 31.64q.487-1.172.878-2.44a115.11 115.11 0 0 0 .855-2.298 126.807 126.807 0 0 0 .121-.34q-1.562-.195-3.125-.488-1.562-.195-3.027-.488a9.347 9.347 0 0 0-.563.997q-.256.531-.396 1.03a4.795 4.795 0 0 0-.115.512 3.855 3.855 0 0 0-.06.28q-.025.144-.034.273a1.957 1.957 0 0 0 0 .13q0 .684.293 1.27.485.776 1.55 1.167a4.639 4.639 0 0 0 .012.005q.664.265 1.644.35a11.519 11.519 0 0 0 .993.04h.488zm48.241-15.82a2.511 2.511 0 0 0-.36-1.282 3.585 3.585 0 0 0-.42-.574 5.896 5.896 0 0 0-.748-.698q-.63-.498-1.5-.962a57.32 57.32 0 0 1-2.016 1.731 61.814 61.814 0 0 1-.033.027 67.533 67.533 0 0 1-2.228 1.744 72.714 72.714 0 0 1-.018.014 67.618 67.618 0 0 1 2.229 1.744 61.933 61.933 0 0 1 .017.014 57.468 57.468 0 0 1 2.02 1.73 53.456 53.456 0 0 1 .03.028 11.168 11.168 0 0 0 .998-.597q.474-.32.843-.656a5.4 5.4 0 0 0 .406-.408 3.476 3.476 0 0 0 .483-.687 2.479 2.479 0 0 0 .298-1.168zm-50 0-2.148-1.758-2.148-1.758a11.033 11.033 0 0 0-1.014.651q-.482.35-.857.72a5.891 5.891 0 0 0-.278.29 3.476 3.476 0 0 0-.483.687 2.479 2.479 0 0 0-.298 1.168 2.511 2.511 0 0 0 .36 1.282 3.585 3.585 0 0 0 .42.573 6.611 6.611 0 0 0 .797.751q.584.47 1.353.91l2.148-1.758zm18.067 24.22q.78 1.268 1.562 2.05a3.748 3.748 0 0 0 .659.416q.55.267 1.1.267a2.46 2.46 0 0 0 1.015-.228q.372-.167.742-.456a8.658 8.658 0 0 0 .677-.769q.443-.562.886-1.28a44.156 44.156 0 0 1-1.66-1.954 47.704 47.704 0 0 1-1.66-2.149 47.704 47.704 0 0 0-1.661 2.15 44.156 44.156 0 0 0-1.66 1.952zm6.64-48.439q-.78-1.269-1.562-2.05a3.748 3.748 0 0 0-.659-.417q-.55-.267-1.098-.267a2.46 2.46 0 0 0-1.018.228q-.37.167-.74.455a8.658 8.658 0 0 0-.678.77q-.442.562-.885 1.281a44.156 44.156 0 0 0 1.66 1.953 222.415 222.415 0 0 0 .805 1.001 260.021 260.021 0 0 0 .856 1.05q.78-1.074 1.66-2.05.78-.977 1.66-1.954zm-12.987 4.352a160.243 160.243 0 0 0-.293 1.703 42.265 42.265 0 0 0-2.54-1.074 63.633 63.633 0 0 0-.648-.246 55.131 55.131 0 0 0-1.793-.633 11.913 11.913 0 0 1 .07-.67q.11-.818.32-1.38a3.275 3.275 0 0 1 .15-.269 2.605 2.605 0 0 1 .925-.904q.293-.195.586-.195a2.555 2.555 0 0 1 0 0 1.843 1.843 0 0 1 .583-.098 3.64 3.64 0 0 1 .754.083 4.943 4.943 0 0 1 .711.21 3.852 3.852 0 0 1 .234.067q.677.215 1.426.714a59.598 59.598 0 0 0-.195 1.026 77.623 77.623 0 0 0-.196 1.123 141.027 141.027 0 0 0-.097.543zm-4.933 41.878a6.37 6.37 0 0 0 .05.157 2.95 2.95 0 0 0 .489.711 2.516 2.516 0 0 0 .585.461 1.271 1.271 0 0 0 .247.13.936.936 0 0 0 .339.065 1.845 1.845 0 0 0 .577.098 1.776 1.776 0 0 0 .01 0 3.655 3.655 0 0 0 .777-.088 4.969 4.969 0 0 0 .688-.205 4.356 4.356 0 0 0 .754-.269q.439-.2.906-.512a59.598 59.598 0 0 1-.195-1.026 77.623 77.623 0 0 1-.196-1.123 150.411 150.411 0 0 1-.293-1.666 170.543 170.543 0 0 1-.097-.58 42.265 42.265 0 0 1-2.54 1.074 59.395 59.395 0 0 1-1.83.671 51.349 51.349 0 0 1-.612.208q.09 1.07.342 1.894zm29.542-42.128a8.126 8.126 0 0 0-.102-.815q-.13-.723-.386-1.236a2.316 2.316 0 0 0-.438-.738 2.139 2.139 0 0 0-.54-.434 1.271 1.271 0 0 0-.246-.13.936.936 0 0 0-.34-.065 1.845 1.845 0 0 0-.576-.098 1.776 1.776 0 0 0-.01 0 3.655 3.655 0 0 0-.778.088 4.969 4.969 0 0 0-.688.205 4.356 4.356 0 0 0-.754.27q-.439.2-.906.511a59.598 59.598 0 0 1 .197 1.026 77.623 77.623 0 0 1 .194 1.123 150.411 150.411 0 0 1 .294 1.666 170.543 170.543 0 0 1 .096.58 42.265 42.265 0 0 1 2.54-1.074q1.172-.489 2.442-.879zm-4.336 43.39a3.852 3.852 0 0 0 .234.067 4.943 4.943 0 0 0 .71.21 3.64 3.64 0 0 0 .755.083 1.843 1.843 0 0 0 .583-.097 2.555 2.555 0 0 0 0 0q.294 0 .587-.196a2.173 2.173 0 0 0 .957-1.124 2.733 2.733 0 0 0 .02-.048 5.518 5.518 0 0 0 .338-1.049 7.51 7.51 0 0 0 .15-1.002 55.131 55.131 0 0 1-1.794-.634 63.633 63.633 0 0 1-.648-.245 42.265 42.265 0 0 1-2.54-1.074 160.243 160.243 0 0 1-.292 1.703 141.027 141.027 0 0 1-.098.543 77.623 77.623 0 0 1-.195 1.123 59.598 59.598 0 0 1-.196 1.026q.75.498 1.426.714zm-26.621-29.914-2.344.586a23.025 23.025 0 0 0-1.976.417 20.918 20.918 0 0 0-.27.071q.098.098.098.196.097 0 .195.097l1.27 1.27a23.98 23.98 0 0 1 1.185 1.09 26.683 26.683 0 0 1 .182.18 54.884 54.884 0 0 1 .658-.464 42.142 42.142 0 0 1 .61-.415l1.368-.977q-.292-.488-.488-.976a12.091 12.091 0 0 0-.216-.505q-.116-.255-.254-.533a19.461 19.461 0 0 0-.018-.037zm36.328 1.367.098-.097q.097-.098.195-.098a12.636 12.636 0 0 0-2.246-.586q-1.172-.293-2.441-.586a22.027 22.027 0 0 1-.196.562 17.31 17.31 0 0 1-.195.513q-.293.488-.488.976l1.367.977q.586.39 1.269.88a24.69 24.69 0 0 1 1.175-1.104 22.194 22.194 0 0 1 .193-.167zm-4.394 11.915q1.269-.293 2.44-.586a12.636 12.636 0 0 0 2.247-.586 23.98 23.98 0 0 1-1.186-1.09 26.683 26.683 0 0 1-.181-.18 32.573 32.573 0 0 0-1.367-1.292 29.667 29.667 0 0 0-.197-.173 22.383 22.383 0 0 0-.95.717 19.352 19.352 0 0 0-.318.26 15.89 15.89 0 0 0-1.198.758 17.542 17.542 0 0 0-.17.121 6.679 6.679 0 0 0 .381.793 7.556 7.556 0 0 0 .107.183 17.31 17.31 0 0 1 .195.513 22.027 22.027 0 0 1 .195.562zm-36.524-1.075a22.471 22.471 0 0 0 1.955.438 24.807 24.807 0 0 0 .29.051l2.345.586a16.931 16.931 0 0 0 .26-.545q.12-.26.215-.498a10.241 10.241 0 0 0 .013-.032 6.679 6.679 0 0 1 .382-.793 7.556 7.556 0 0 1 .106-.183 16.281 16.281 0 0 0-1.196-.78 14.791 14.791 0 0 0-.171-.099 20.748 20.748 0 0 0-.923-.725 23.97 23.97 0 0 0-.346-.252 31.82 31.82 0 0 0-1.367 1.271 34.941 34.941 0 0 0-.196.194zm43.262-13.476-2.735-.586-2.93-.39a2.715 2.715 0 0 0-.073.16q-.038.09-.076.196a5.547 5.547 0 0 0-.046.131 1.176 1.176 0 0 0-.241.357 1.444 1.444 0 0 0-.052.132 31.722 31.722 0 0 1 1.755.282 26.244 26.244 0 0 1 .98.206q1.367.293 2.539.586.195-.293.488-.488zm0 15.82q-.196-.293-.391-.488a4.329 4.329 0 0 1-.295-.325 3.389 3.389 0 0 1-.193-.26q-1.172.292-2.54.585-1.27.293-2.734.488a1.33 1.33 0 0 0 .14.3 1.128 1.128 0 0 0 .153.188 5.191 5.191 0 0 0 .074.206q.038.1.076.186a2.506 2.506 0 0 0 .046.097l2.929-.39q1.465-.294 2.735-.587zm-45.313 0q1.27.293 2.735.586l2.929.391a2.715 2.715 0 0 0 .074-.16q.038-.09.076-.197a5.547 5.547 0 0 0 .046-.132q.095-.19.284-.475a9.027 9.027 0 0 1 .01-.013 31.722 31.722 0 0 1-1.755-.282 26.244 26.244 0 0 1-.98-.206q-1.367-.293-2.54-.586a4.329 4.329 0 0 0-.294.325 3.389 3.389 0 0 0-.193.261 2.633 2.633 0 0 0-.183.204q-.104.128-.208.284zm0-15.82q.196.293.39.488a3.486 3.486 0 0 0 .252.33 4.457 4.457 0 0 0 .237.256q1.172-.293 2.539-.586a31.426 31.426 0 0 1 2.466-.463 34.326 34.326 0 0 1 .17-.025 5.191 5.191 0 0 0-.072-.206q-.038-.1-.077-.186a2.506 2.506 0 0 0-.045-.097 5.191 5.191 0 0 0-.074-.206q-.038-.1-.076-.185a2.506 2.506 0 0 0-.046-.097l-2.93.391q-1.464.293-2.734.586zm33.203-5.762a5.671 5.671 0 0 0 .025.513 7.615 7.615 0 0 0 .073.561 6.123 6.123 0 0 0 .03.62 4.793 4.793 0 0 0 .068.454 62.036 62.036 0 0 1 .659.098 49.508 49.508 0 0 1 .61.098q.684 0 1.367.097l.39-1.367a34.066 34.066 0 0 1 .196-.659 27.588 27.588 0 0 1 .196-.61 1.459 1.459 0 0 1 .013-.206q.016-.11.05-.203a.776.776 0 0 1 .034-.08q.064-.19.086-.34a1.013 1.013 0 0 0 .012-.148 24.643 24.643 0 0 0-1.137.282 29.674 29.674 0 0 0-.718.206 23.238 23.238 0 0 0-1.954.684zm-21.264 1.636a5.671 5.671 0 0 0-.025.512l-1.367.196a7.843 7.843 0 0 0-.532.018 10.042 10.042 0 0 0-.737.08l-.392-1.368a34.066 34.066 0 0 0-.194-.659 27.588 27.588 0 0 0-.197-.61q0-.156-.026-.284a.86.86 0 0 0-.07-.205q-.065-.192-.087-.342a1.009 1.009 0 0 1-.011-.146 23.502 23.502 0 0 1 .672.16 28.344 28.344 0 0 1 1.183.328q.976.293 1.953.684a5.671 5.671 0 0 1-.025.513 7.615 7.615 0 0 1-.073.561 7.615 7.615 0 0 0-.073.562zm.17 25.708a5.671 5.671 0 0 0-.024-.513 7.615 7.615 0 0 0-.073-.56 7.615 7.615 0 0 1-.073-.563 5.671 5.671 0 0 1-.025-.513q-.683-.097-1.367-.097a49.508 49.508 0 0 0-.61-.098 62.036 62.036 0 0 0-.66-.098 69.103 69.103 0 0 1-.292.953 59.859 59.859 0 0 1-.294.903 44.651 44.651 0 0 1-.195.928 32.487 32.487 0 0 1-.196.83 24.643 24.643 0 0 0 1.137-.283 29.674 29.674 0 0 0 .72-.206q.975-.293 1.952-.683zm21.29-2.149a4.931 4.931 0 0 0-.08.581 6.304 6.304 0 0 0-.018.494 7.615 7.615 0 0 0-.073.561 5.671 5.671 0 0 0-.025.513q.977.39 1.954.683a28.344 28.344 0 0 0 1.182.328 23.502 23.502 0 0 0 .673.161 32.487 32.487 0 0 1-.195-.83 44.651 44.651 0 0 1-.196-.928 59.859 59.859 0 0 1-.293-.903 69.103 69.103 0 0 1-.293-.953l-1.367.196a8.091 8.091 0 0 0-.69.031 10.353 10.353 0 0 0-.58.066zm-32.52-14.355a22.494 22.494 0 0 0-1.855-1.66 2.517 2.517 0 0 0 .246-.075 2.03 2.03 0 0 0 .437-.218 6.575 6.575 0 0 1 .085-.028q.263-.084.599-.168a35.779 35.779 0 0 0 .197.196 39.284 39.284 0 0 0 1.463 1.367 18.965 18.965 0 0 0 .613.586 22.849 22.849 0 0 0 1.145.976 1.444 1.444 0 0 0-.132.052 1.176 1.176 0 0 0-.356.241l-.391.391a260.021 260.021 0 0 0-1.05-.854 222.415 222.415 0 0 0-1.001-.806zm40.625.976a1.176 1.176 0 0 0 .357.242 1.444 1.444 0 0 0 .13.051l.392.391a260.021 260.021 0 0 1 1.05-.854 222.415 222.415 0 0 1 1-.806 22.494 22.494 0 0 1 1.856-1.66q-.335-.084-.6-.168a6.575 6.575 0 0 1-.083-.028 2.03 2.03 0 0 0-.438-.218 2.517 2.517 0 0 0-.246-.075 38.376 38.376 0 0 1-1.442 1.368 42.131 42.131 0 0 1-.218.195zm2.93 4.688a22.494 22.494 0 0 0 1.855 1.66 2.517 2.517 0 0 0-.245.075 2.03 2.03 0 0 0-.438.218 6.575 6.575 0 0 1-.085.028q-.263.083-.6.167a35.779 35.779 0 0 0-.196-.195 39.284 39.284 0 0 0-1.463-1.367l-1.759-1.563q.197-.097.489-.293l.39-.39a260.021 260.021 0 0 0 1.05.854 222.415 222.415 0 0 0 1.002.806zm-45.002 1.801a2.381 2.381 0 0 0-.408-.14 371.824 371.824 0 0 0 .903-.807 439.059 439.059 0 0 0 .952-.854 222.415 222.415 0 0 0 1-.806 260.021 260.021 0 0 0 1.05-.854l.392.39a9.027 9.027 0 0 0 .013.01q.284.188.475.283a23.931 23.931 0 0 0-.705.586 19.872 19.872 0 0 0-1.053.977 42.131 42.131 0 0 0-.218.195 38.376 38.376 0 0 0-1.442 1.367 13.021 13.021 0 0 1-.108-.027q-.324-.084-.576-.168a1.948 1.948 0 0 0-.275-.152zm8.38 12.652a1.577 1.577 0 0 0 .014-.042q.084-.278.084-.642 1.075-.292 2.149-.683a80.678 80.678 0 0 1 .542-.195 90.712 90.712 0 0 1 1.704-.586v.488a2.555 2.555 0 0 1 0 .002 1.843 1.843 0 0 1 .098.584q-1.172.488-2.344.88-1.172.487-2.344.78a2.555 2.555 0 0 0 0-.002 1.843 1.843 0 0 0 .097-.584zm29.688-34.57a1.577 1.577 0 0 0-.013.041q-.084.28-.084.642-1.075.293-2.15.684a80.678 80.678 0 0 1-.542.195 90.712 90.712 0 0 1-1.703.586q0-.155-.027-.284a.86.86 0 0 0-.071-.204v-.586q1.172-.488 2.344-.879a20.985 20.985 0 0 1 .865-.339 17.232 17.232 0 0 1 1.38-.442zm-4.506 32.628a1.459 1.459 0 0 0 .014-.206 96.072 96.072 0 0 1 .58.195 85.584 85.584 0 0 1 1.666.586q1.074.391 2.149.683a3.052 3.052 0 0 0 0 .05q.01.36.097.634v.586a80.678 80.678 0 0 0-.543-.195 90.712 90.712 0 0 0-1.703-.586q-1.172-.39-2.344-.879v-.586a.776.776 0 0 0 .035-.08q.034-.092.049-.202zm-20.69-30.48v-.488a1.845 1.845 0 0 0 .099-.577 1.776 1.776 0 0 0 0-.009q-1.172-.488-2.344-.879-1.172-.488-2.246-.78v.585q.09.274.097.635a3.052 3.052 0 0 1 0 .048q1.075.293 2.149.684a85.584 85.584 0 0 0 1.666.586 96.072 96.072 0 0 0 .58.195zm27.149 28.998a85.584 85.584 0 0 0 .586 1.666 3.052 3.052 0 0 1-.048 0q-.361-.006-.635-.097a1.577 1.577 0 0 0-.042-.014q-.28-.084-.642-.084a10.623 10.623 0 0 0-.586-2.05q-.293-1.075-.683-2.149.155 0 .283-.028a.86.86 0 0 0 .205-.07h.586a96.072 96.072 0 0 0 .195.58 85.584 85.584 0 0 0 .586 1.666 96.072 96.072 0 0 0 .195.58zm-1.367-27.142a10.623 10.623 0 0 0 .586-2.05 3.052 3.052 0 0 0 .049-.002q.36-.005.635-.097.232-.058.429-.08a2.152 2.152 0 0 1 .254-.017 80.678 80.678 0 0 0-.195.543 90.712 90.712 0 0 0-.586 1.703 80.678 80.678 0 0 0-.195.543 90.712 90.712 0 0 0-.586 1.703h-.586a.776.776 0 0 0-.08-.035q-.092-.033-.202-.049a1.459 1.459 0 0 0-.206-.014q.39-1.074.683-2.148zm-32.812-2.246a40.372 40.372 0 0 0 .449 1.523 47.132 47.132 0 0 0 .234.723 49.995 49.995 0 0 0 .584 1.523 58.455 58.455 0 0 0 .295.723h.489a1.843 1.843 0 0 0 .583-.097 2.555 2.555 0 0 0 0 0l-.781-2.149a81.992 81.992 0 0 1-.44-1.52 93.467 93.467 0 0 1-.146-.53 1.843 1.843 0 0 1-.583-.098 2.555 2.555 0 0 1 0 0 3.855 3.855 0 0 0-.28-.06q-.144-.025-.273-.034a1.957 1.957 0 0 0-.13-.004zm1.367 30.761q.195-.976.586-1.953.293-1.074.683-2.148a1.843 1.843 0 0 1-.583-.097 2.555 2.555 0 0 1 0 0h-.49a55.162 55.162 0 0 0-.624 1.564 47.079 47.079 0 0 0-.254.681 44.5 44.5 0 0 0-.491 1.565 38.05 38.05 0 0 0-.192.681 2.152 2.152 0 0 0 .254-.016q.197-.023.429-.08.252-.085.576-.169a13.021 13.021 0 0 1 .108-.028zm11.328 5.86.195.586a5.191 5.191 0 0 0 .074.206q.038.1.076.185a2.506 2.506 0 0 0 .046.097 38.376 38.376 0 0 0 1.367-1.442 42.131 42.131 0 0 0 .195-.218 46.232 46.232 0 0 0 1.367-1.613 50.701 50.701 0 0 0 .196-.243 1.876 1.876 0 0 1-.153-.17q-.085-.11-.14-.22-.196-.293-.293-.489a34.942 34.942 0 0 0-1.444 1.731 32.537 32.537 0 0 0-.021.027 32.573 32.573 0 0 0-1.293 1.367 29.667 29.667 0 0 0-.172.196zm.39-43.262a2.715 2.715 0 0 0-.073.16q-.038.091-.076.196a5.547 5.547 0 0 0-.046.132l-.195.586a31.82 31.82 0 0 0 1.27 1.367 34.941 34.941 0 0 0 .195.196 34.853 34.853 0 0 0 1.44 1.73 38.23 38.23 0 0 0 .025.027q.095-.19.284-.475a9.027 9.027 0 0 1 .01-.013q.09-.183.269-.366a2.16 2.16 0 0 1 .024-.024 47.312 47.312 0 0 0-1.368-1.635 43.134 43.134 0 0 0-.195-.22 39.284 39.284 0 0 0-1.367-1.464 35.779 35.779 0 0 0-.195-.197zm8.497 44.336a1.176 1.176 0 0 0 .242-.356 1.444 1.444 0 0 0 .05-.132l.196-.586a31.82 31.82 0 0 0-1.271-1.368 34.941 34.941 0 0 0-.194-.195 34.853 34.853 0 0 0-1.44-1.73 38.23 38.23 0 0 0-.025-.028q-.095.191-.284.476a9.027 9.027 0 0 1-.01.013q-.091.183-.27.366a2.16 2.16 0 0 1-.023.024 47.312 47.312 0 0 0 1.368 1.634 43.134 43.134 0 0 0 .195.222 311.837 311.837 0 0 1 .757.854 258.687 258.687 0 0 1 .708.806zm.488-43.262-.195-.586a1.33 1.33 0 0 0-.141-.298 1.128 1.128 0 0 0-.152-.19 258.687 258.687 0 0 1-.708.806 311.837 311.837 0 0 1-.757.854 46.232 46.232 0 0 0-1.367 1.613 50.701 50.701 0 0 0-.196.243q.092.183.269.366a2.16 2.16 0 0 0 .023.024q.197.293.294.488a34.942 34.942 0 0 0 1.443-1.73 32.537 32.537 0 0 0 .022-.027 32.573 32.573 0 0 0 1.293-1.368 29.667 29.667 0 0 0 .172-.195zm1.27 4.688a32.831 32.831 0 0 0-.184-.78q-.09-.367-.181-.69a19.342 19.342 0 0 0-.026-.093 50.063 50.063 0 0 0-.195-.757 41.533 41.533 0 0 0-.196-.708l-1.27 1.27a29.332 29.332 0 0 0-1.025 1.08 32.636 32.636 0 0 0-.341.385 20.755 20.755 0 0 1 .206.28q.1.137.185.261a10.446 10.446 0 0 1 .097.142 20.755 20.755 0 0 1 .206.28q.1.138.185.261a10.446 10.446 0 0 1 .097.143 22.22 22.22 0 0 1 .77-.366 26.85 26.85 0 0 1 .5-.22 8.998 8.998 0 0 1 1.098-.464 8.271 8.271 0 0 1 .074-.024zm-.782 35.84a41.533 41.533 0 0 0 .196-.709 50.063 50.063 0 0 0 .195-.756 22.552 22.552 0 0 0 .183-.684q.104-.412.208-.879a8.899 8.899 0 0 1-1.1-.452 9.762 9.762 0 0 1-.072-.036 25.628 25.628 0 0 1-.817-.366 21.167 21.167 0 0 1-.453-.22 11.272 11.272 0 0 1-.16.233q-.145.206-.328.451a11.272 11.272 0 0 1-.16.233q-.145.206-.328.45a30.942 30.942 0 0 0 1.025 1.117 27.805 27.805 0 0 0 .342.348zm-11.132-3.028a32.831 32.831 0 0 0 .183.781q.09.366.18.69a19.342 19.342 0 0 0 .027.092 50.063 50.063 0 0 0 .195.756 41.533 41.533 0 0 0 .196.71l1.269-1.27a13.655 13.655 0 0 0 1.27-1.466 2.61 2.61 0 0 0-.48-.674 2.49 2.49 0 0 0-.01-.009 2.61 2.61 0 0 0-.48-.675 2.49 2.49 0 0 0-.01-.009l-1.171.586a8.998 8.998 0 0 1-1.099.463 8.271 8.271 0 0 1-.073.025zm.78-35.84a41.533 41.533 0 0 0-.195.708 50.063 50.063 0 0 0-.195.757 22.552 22.552 0 0 0-.183.684q-.104.412-.207.88a8.899 8.899 0 0 1 1.098.451 9.762 9.762 0 0 1 .073.036l1.172.586q.293-.293.489-.684.293-.293.488-.683a13.655 13.655 0 0 0-1.27-1.465zm-2.821 2.027a5.191 5.191 0 0 0-.206-.074l.39-1.953a59.598 59.598 0 0 1 .196-1.025 44.651 44.651 0 0 1 .196-.928q.195.196.488.391.195.195.488.39l-.39 1.758a82.76 82.76 0 0 0-.196.904 96.273 96.273 0 0 0-.195.952q-.195-.098-.488-.293a2.506 2.506 0 0 0-.097-.046q-.085-.038-.186-.076zm15.995 34.814a5.191 5.191 0 0 0 .206.073l-.391 1.954a59.598 59.598 0 0 1-.195 1.025 44.651 44.651 0 0 1-.196.928q-.195-.196-.488-.39-.156-.105-.284-.209a2.633 2.633 0 0 1-.204-.183l.39-1.757a82.76 82.76 0 0 0 .195-.904 96.273 96.273 0 0 0 .196-.952q.195.098.488.293a2.506 2.506 0 0 0 .096.046q.087.038.187.076zm-15.215 3.797a2.633 2.633 0 0 0-.204.183 44.651 44.651 0 0 1-.197-.928 59.598 59.598 0 0 1-.194-1.025l-.392-1.954a2.506 2.506 0 0 1 .097-.045q.087-.039.187-.077a5.191 5.191 0 0 1 .206-.073 9.027 9.027 0 0 1 .013-.009q.284-.188.475-.284a96.273 96.273 0 0 0 .195.952 82.76 82.76 0 0 0 .196.904l.39 1.757q-.156.104-.284.208a2.633 2.633 0 0 0-.204.183q-.156.104-.284.208zm14.435-42.408a2.633 2.633 0 0 0 .204-.183 44.651 44.651 0 0 1 .196.928 59.598 59.598 0 0 1 .195 1.025l.39 1.953a5.547 5.547 0 0 0-.131.046q-.106.038-.196.077a2.715 2.715 0 0 0-.161.073 9.027 9.027 0 0 1-.013.008q-.284.19-.475.285a96.273 96.273 0 0 0-.195-.952 82.76 82.76 0 0 0-.196-.904l-.39-1.758q.195-.195.488-.39.156-.104.284-.208zm8.993 19.74-.977-.782a8.578 8.578 0 0 1-.732-.495 9.888 9.888 0 0 1-.245-.189 2.715 2.715 0 0 0-.073.16q-.038.091-.076.197a5.547 5.547 0 0 0-.046.131 1.876 1.876 0 0 0-.151.171q-.087.11-.142.22a9.299 9.299 0 0 0 .47.33 11.706 11.706 0 0 0 .41.256l.78.586q.183-.092.366-.269a2.16 2.16 0 0 0 .025-.024 1.876 1.876 0 0 1 .171-.152q.11-.086.22-.14zm-30.133-.758a1.876 1.876 0 0 0 .153.171 11.706 11.706 0 0 0-.41.256 9.299 9.299 0 0 0-.47.33l-.78.586q-.11-.055-.22-.14a1.876 1.876 0 0 1-.171-.153 2.16 2.16 0 0 0-.024-.024q-.183-.177-.366-.269l.976-.78a8.016 8.016 0 0 0 .252-.159 9.214 9.214 0 0 0 .725-.526 5.547 5.547 0 0 0 .045.132q.039.106.077.196a2.715 2.715 0 0 0 .073.161q.055.11.14.22zm28.905 4.626a9.214 9.214 0 0 0-.726.526 5.547 5.547 0 0 0-.044-.132q-.04-.106-.078-.196a2.715 2.715 0 0 0-.073-.16 2.16 2.16 0 0 1-.023-.025q-.178-.183-.27-.366a9.03 9.03 0 0 1 .362-.257 11.379 11.379 0 0 1 .518-.329l.78-.586q.11.055.22.141a1.876 1.876 0 0 1 .172.152 2.16 2.16 0 0 0 .023.024q.183.177.366.27l-.976.78a8.016 8.016 0 0 0-.252.158zm-40.08 3.455-.587.586-.585.586.78.195a16.244 16.244 0 0 0 .416.098 22.325 22.325 0 0 0 .464.098q.195-.293.488-.488a3.486 3.486 0 0 1 .25-.33 4.457 4.457 0 0 1 .239-.256 2.381 2.381 0 0 1-.41-.14 1.948 1.948 0 0 1-.274-.153zm8.886-4.394.977.781a8.578 8.578 0 0 1 .733.494 9.888 9.888 0 0 1 .244.19 5.191 5.191 0 0 1 .073-.206q.038-.1.076-.186a2.506 2.506 0 0 1 .046-.097l.195-.39-.781-.586-.781-.586q-.183.091-.366.27a2.16 2.16 0 0 0-.025.023 1.876 1.876 0 0 1-.171.152q-.11.086-.22.141zm-9.765-8.3q.195.292.488.487a2.633 2.633 0 0 1 .182.205q.105.128.209.284l.78-.196a2.03 2.03 0 0 1 .439-.218 2.517 2.517 0 0 1 .245-.075l-.488-.488-.585-.586-.782.195q-.253.084-.576.168a13.021 13.021 0 0 1-.107.028q0 .077.06.093a.144.144 0 0 0 .037.004q0 .078.062.094a.144.144 0 0 0 .035.004zm51.074 12.694-.781.196a2.03 2.03 0 0 1-.438.218 2.517 2.517 0 0 1-.246.075 4.329 4.329 0 0 1 .294.325 3.389 3.389 0 0 1 .195.261q.292.195.487.488.478-.096.769-.19a3.159 3.159 0 0 0 .012-.006l.782-.195a4.329 4.329 0 0 1-.296-.325 3.389 3.389 0 0 1-.193-.26zm1.074-12.89-.781-.196a4.039 4.039 0 0 0-.202-.06q-.236-.066-.558-.13a12.819 12.819 0 0 0-.021-.005q-.196.293-.489.488a3.486 3.486 0 0 1-.25.33 4.457 4.457 0 0 1-.239.256 2.381 2.381 0 0 1 .41.141 1.948 1.948 0 0 1 .275.152l.78.196.587-.586a3.486 3.486 0 0 1 .25-.33 4.457 4.457 0 0 1 .238-.256zm-42.843-10.658a6.575 6.575 0 0 0-.028-.085q0-.363-.084-.64a1.577 1.577 0 0 0-.013-.043q-.391-.195-.782-.293-.335-.084-.6-.168a6.575 6.575 0 0 1-.083-.027 1.843 1.843 0 0 0 .097.583 2.555 2.555 0 0 0 0 .003.86.86 0 0 1 .07.204q.028.128.028.284.098.097.098.195v.195l.78.196q.253.084.577.168a13.021 13.021 0 0 0 .108.027q-.084-.336-.168-.599zm9.64-5.553q.293.195.489.39l.586.586q.083-.335.167-.599a6.575 6.575 0 0 1 .027-.084q.084-.252.168-.576a13.021 13.021 0 0 0 .028-.108 3.486 3.486 0 0 1-.33-.25 4.457 4.457 0 0 1-.257-.238 3.486 3.486 0 0 0-.25-.33 4.457 4.457 0 0 0-.238-.256q-.083.336-.167.6a6.575 6.575 0 0 1-.028.083zm.39 47.95a4.329 4.329 0 0 0 .296-.326 3.389 3.389 0 0 0 .193-.26 4.329 4.329 0 0 1 .325-.296 3.389 3.389 0 0 1 .26-.193q-.083-.336-.167-.6a6.575 6.575 0 0 0-.027-.084q-.084-.252-.168-.576a13.021 13.021 0 0 1-.028-.107l-.585.585a2.633 2.633 0 0 1-.205.184q-.128.103-.284.207l.196.781q.084.252.167.576a13.021 13.021 0 0 1 .028.108zm24.513-42.189q0-.097.097-.195v-.195a5.191 5.191 0 0 1 .074-.206q.038-.1.076-.186a2.506 2.506 0 0 1 .046-.096 1.843 1.843 0 0 1 .096-.584 2.555 2.555 0 0 1 0-.002l-.781.195a3.84 3.84 0 0 0-.233.087q-.206.084-.451.206-.084.252-.167.576a13.021 13.021 0 0 0-.028.107 2.152 2.152 0 0 1-.016.255q-.024.197-.082.43.336-.085.6-.169a6.575 6.575 0 0 0 .084-.027q.336-.084.599-.168a6.575 6.575 0 0 0 .085-.028zm-1.308 34.85a3.855 3.855 0 0 0-.06-.279 6.575 6.575 0 0 0 .085.027q.263.084.599.168a13.021 13.021 0 0 1 .108.028q.324.083.576.167 0 .098.097.196v.195a5.547 5.547 0 0 0 .046.132q.038.105.076.196a2.715 2.715 0 0 0 .074.16 1.776 1.776 0 0 0 0 .01 1.845 1.845 0 0 0 .097.576l-.781-.195a3.544 3.544 0 0 1-.143-.05q-.123-.048-.261-.11a7.341 7.341 0 0 1-.28-.133 6.575 6.575 0 0 1-.027-.084q-.084-.264-.168-.6a1.957 1.957 0 0 0 0-.13q-.01-.129-.034-.274zm-9.923-42.076-.586.586q-.195.293-.488.488.084.336.168.6a6.575 6.575 0 0 0 .027.084q.084.251.168.575a13.021 13.021 0 0 1 .028.108l.488-.488a4.329 4.329 0 0 1 .325-.295 3.389 3.389 0 0 1 .26-.193l-.195-.782q-.083-.25-.167-.575a13.021 13.021 0 0 1-.028-.108zm-24.512 42.187q-.097.098-.097.196v.195a2.715 2.715 0 0 0-.073.16q-.04.091-.077.196a5.547 5.547 0 0 0-.046.132 1.845 1.845 0 0 0-.097.577 1.776 1.776 0 0 0 0 .01q.336-.085.599-.169a6.575 6.575 0 0 0 .084-.027q.39-.098.782-.293.084-.252.168-.576a13.021 13.021 0 0 0 .027-.108 2.152 2.152 0 0 1 .016-.254q.024-.197.082-.429-.336.084-.6.168a6.575 6.575 0 0 0-.084.027q-.336.084-.6.168a6.575 6.575 0 0 0-.084.027zm24.903 5.762-.586-.39q-.195-.293-.488-.489l-.196.586q-.084.252-.168.576a13.021 13.021 0 0 0-.027.108l.488.488.586.586q.084-.336.168-.599a6.575 6.575 0 0 1 .027-.085zm-17.97-31.933v-.489a1.009 1.009 0 0 1 .013-.146q.022-.15.086-.342-.49.098-.977.098-.488.097-.976.097a5.191 5.191 0 0 0 .073.206q.038.1.076.186a2.506 2.506 0 0 0 .046.097 5.191 5.191 0 0 0 .072.206q.039.1.077.185a2.506 2.506 0 0 0 .045.097q.363 0 .642-.085a1.577 1.577 0 0 0 .042-.013q.39 0 .781-.097zm0 18.36v-.978q-.39-.097-.78-.097-.275-.092-.635-.098a3.052 3.052 0 0 0-.05 0 2.715 2.715 0 0 0-.072.16q-.038.091-.076.196a5.547 5.547 0 0 0-.046.132 2.715 2.715 0 0 0-.073.16q-.04.091-.077.197a5.547 5.547 0 0 0-.045.132q.488 0 .976.097a4.204 4.204 0 0 1 .464.025 3.142 3.142 0 0 1 .415.073zm21.876-.978v.49a.86.86 0 0 0-.07.203q-.028.128-.028.284.489-.098.977-.098.488-.097.879-.097a1.459 1.459 0 0 0-.014-.206q-.017-.11-.05-.203a.776.776 0 0 0-.034-.08 5.191 5.191 0 0 0-.073-.206q-.038-.1-.076-.185a2.506 2.506 0 0 0-.046-.097q-.391 0-.781.098a2.152 2.152 0 0 0-.255.016q-.197.023-.43.081zm-.098-18.359a1.459 1.459 0 0 0 .014.206q.016.11.05.202a.776.776 0 0 0 .034.08v.49a3.855 3.855 0 0 0 .279.058q.145.025.274.034a1.957 1.957 0 0 0 .13.004q.39.098.782.098a2.715 2.715 0 0 0 .073-.16q.038-.09.076-.197a5.547 5.547 0 0 0 .046-.13.86.86 0 0 0 .07-.206q.028-.128.028-.284a3.724 3.724 0 0 1-.388-.02q-.201-.022-.423-.064a6.314 6.314 0 0 1-.068-.013q-.488 0-.977-.098zm-4.492 24.22v-.49q.064-.19.086-.34a1.013 1.013 0 0 0 .011-.148 2.03 2.03 0 0 0-.437-.218 2.517 2.517 0 0 0-.247-.075 2.675 2.675 0 0 0-.347-.197 2.2 2.2 0 0 0-.239-.096 1.876 1.876 0 0 0-.151.171q-.086.11-.141.22-.092.183-.27.366a2.16 2.16 0 0 1-.023.024 13.363 13.363 0 0 1 .464.196 10.115 10.115 0 0 1 .415.195 10.115 10.115 0 0 0 .415.195 13.363 13.363 0 0 0 .464.196zm.098-28.126a1.009 1.009 0 0 0-.012-.146q-.023-.15-.087-.343v-.488a13.363 13.363 0 0 0-.463.195 10.115 10.115 0 0 0-.415.196 10.115 10.115 0 0 1-.415.195 13.363 13.363 0 0 1-.464.195 1.876 1.876 0 0 1 .153.171q.085.11.14.22.091.183.268.366a2.16 2.16 0 0 0 .024.025 2.303 2.303 0 0 0 .385-.17 2.824 2.824 0 0 0 .202-.123 2.381 2.381 0 0 0 .408-.14 1.948 1.948 0 0 0 .276-.153zm-12.891 27.148v.488q.063.191.085.34a1.013 1.013 0 0 1 .013.15 13.363 13.363 0 0 0 .463-.197 10.115 10.115 0 0 0 .416-.195 10.115 10.115 0 0 1 .414-.195 13.363 13.363 0 0 1 .465-.196 1.876 1.876 0 0 1-.154-.17q-.084-.11-.14-.22-.091-.183-.268-.366a2.16 2.16 0 0 0-.024-.025 3.84 3.84 0 0 0-.234.087q-.206.084-.45.206a2.303 2.303 0 0 0-.384.17 2.824 2.824 0 0 0-.202.123zm.085-27.979a1.009 1.009 0 0 0 .013-.146 13.363 13.363 0 0 1 .463.195 10.115 10.115 0 0 1 .416.196 10.115 10.115 0 0 0 .414.195 13.363 13.363 0 0 0 .465.195 2.16 2.16 0 0 0-.025.025q-.177.183-.268.366-.055.11-.141.22a1.876 1.876 0 0 1-.152.171 3.544 3.544 0 0 1-.144-.052q-.122-.047-.261-.109a7.341 7.341 0 0 1-.28-.132 2.2 2.2 0 0 1-.237-.096 2.675 2.675 0 0 1-.349-.197v-.489q.065-.192.087-.342zm19.47 13.732a5.191 5.191 0 0 0 .073-.206 4.457 4.457 0 0 0 .256.238 3.486 3.486 0 0 0 .33.25l.586.391-.586.391a4.457 4.457 0 0 1-.256.237 3.486 3.486 0 0 1-.33.251 2.506 2.506 0 0 1-.046-.097q-.038-.085-.076-.185a5.191 5.191 0 0 1-.073-.206l-.195-.39.195-.392a2.506 2.506 0 0 0 .046-.097q.038-.085.076-.185zm-27.466.673.586.391a4.329 4.329 0 0 0 .325.294 3.389 3.389 0 0 0 .261.194 2.715 2.715 0 0 0 .073-.16q.038-.09.076-.197a5.547 5.547 0 0 0 .046-.13l.196-.392-.196-.39a2.715 2.715 0 0 1-.073-.16q-.038-.092-.076-.197a5.547 5.547 0 0 1-.046-.132 4.329 4.329 0 0 1-.325.295 3.389 3.389 0 0 1-.26.193zm5.566-13.086q-.097.391-.097.781a2.152 2.152 0 0 1-.016.254q-.024.198-.082.43h.978v-.586a.86.86 0 0 0 .07-.205q.026-.128.026-.283a2.715 2.715 0 0 0-.16-.074q-.09-.038-.196-.076a5.547 5.547 0 0 0-.132-.046zm-.135 24.986a3.855 3.855 0 0 0-.06-.279h.978v.586a.776.776 0 0 1 .033.08q.034.092.05.202a1.459 1.459 0 0 1 .013.206 2.506 2.506 0 0 1-.097.046q-.085.038-.185.076a5.191 5.191 0 0 1-.206.074l-.39.195q-.098-.39-.098-.78a1.957 1.957 0 0 0 0-.132q-.01-.129-.033-.274zm17.714 1.186q0-.39.097-.78a2.152 2.152 0 0 1 .016-.256q.024-.197.082-.429h-.977a1.843 1.843 0 0 1-.097.584 2.555 2.555 0 0 1 0 .002v.488l.39.196a5.191 5.191 0 0 1 .206.073q.1.038.186.076a2.506 2.506 0 0 1 .097.046zm.135-24.986a3.855 3.855 0 0 0 .06.28h-.977a1.776 1.776 0 0 0 0-.01 1.845 1.845 0 0 0-.097-.577v-.488l.39-.196a5.547 5.547 0 0 0 .132-.045q.106-.039.196-.077a2.715 2.715 0 0 0 .161-.073q.097.391.097.781a1.957 1.957 0 0 0 .01.131q.01.128.033.274zm-27.186 11.9q.293.195.488.293l.391.391a2.633 2.633 0 0 1 .204-.184q.128-.103.284-.207.183-.092.366-.269a2.16 2.16 0 0 0 .025-.024 1.876 1.876 0 0 0-.17-.152q-.11-.086-.22-.14-.294-.196-.489-.392l-.39.391q-.191.095-.475.284a9.027 9.027 0 0 0-.013.01zm31.054 6.055a5.191 5.191 0 0 0 .074.206q.038.1.076.185a2.506 2.506 0 0 0 .046.097 5.191 5.191 0 0 0 .073.206q.038.1.076.185a2.506 2.506 0 0 0 .046.097h.488a.86.86 0 0 1 .205-.07q.128-.027.284-.027a7.341 7.341 0 0 1-.133-.28q-.062-.138-.109-.26a3.544 3.544 0 0 1-.05-.144 2.03 2.03 0 0 1-.22-.438 2.517 2.517 0 0 1-.074-.246q-.183.092-.366.27a2.16 2.16 0 0 0-.025.023l-.39.196zm.923-12.03a2.381 2.381 0 0 0-.14.408q-.11-.054-.22-.14a1.876 1.876 0 0 1-.172-.152l-.39-.196a5.547 5.547 0 0 1 .045-.132q.038-.105.077-.196a2.715 2.715 0 0 1 .074-.16 5.547 5.547 0 0 1 .045-.132q.038-.106.076-.196a2.715 2.715 0 0 1 .073-.16h.488a.776.776 0 0 0 .08.034q.093.034.203.05a1.459 1.459 0 0 0 .206.013q-.122.244-.206.45a3.84 3.84 0 0 0-.087.234 1.948 1.948 0 0 0-.152.275zm-26.508-.08a5.191 5.191 0 0 0-.074-.206q-.038-.1-.076-.185a2.506 2.506 0 0 0-.046-.097 5.191 5.191 0 0 0-.073-.206q-.038-.1-.076-.185a2.506 2.506 0 0 0-.046-.097h-.488q-.19.063-.34.085a1.013 1.013 0 0 1-.149.012 7.341 7.341 0 0 1 .134.28q.061.138.108.261a3.544 3.544 0 0 1 .051.143 2.03 2.03 0 0 1 .22.438 2.517 2.517 0 0 1 .073.246q.183-.092.367-.269a2.16 2.16 0 0 0 .025-.024zm-1.222 13a1.009 1.009 0 0 0-.146-.01 2.517 2.517 0 0 1 .075-.247 2.03 2.03 0 0 1 .218-.438q.122-.244.206-.45a3.84 3.84 0 0 0 .087-.234q.11.055.22.141a1.876 1.876 0 0 1 .171.152l.391.196a5.547 5.547 0 0 1-.046.132q-.038.105-.077.196a2.715 2.715 0 0 1-.073.16 5.547 5.547 0 0 1-.046.132q-.038.105-.076.196a2.715 2.715 0 0 1-.073.16h-.488q-.193-.064-.343-.086zm31.397-7.629q-.293.196-.488.391-.183.091-.366.27a2.16 2.16 0 0 0-.025.023 1.876 1.876 0 0 0 .171.152q.11.086.22.141a2.633 2.633 0 0 0 .205.183q.128.104.283.208l.391-.39q.183-.093.366-.27a2.16 2.16 0 0 0 .025-.024 1.876 1.876 0 0 0-.17-.152q-.11-.086-.22-.14zm-25.976 15.625a1.013 1.013 0 0 0-.012-.148q-.022-.149-.086-.34a5.547 5.547 0 0 0 .132-.046q.106-.038.196-.076a2.715 2.715 0 0 0 .16-.073 5.547 5.547 0 0 0 .132-.046q.106-.038.196-.076a2.715 2.715 0 0 0 .161-.074q.064.193.086.343a1.009 1.009 0 0 1 .011.146 1.776 1.776 0 0 0 0 .01 1.845 1.845 0 0 0 .098.576 5.547 5.547 0 0 0-.132.045q-.105.04-.196.077a2.715 2.715 0 0 0-.16.073 5.547 5.547 0 0 0-.132.046q-.106.038-.196.076a2.715 2.715 0 0 0-.16.073 1.776 1.776 0 0 0 0-.009 1.845 1.845 0 0 0-.098-.577zm-5.078-23.242a5.191 5.191 0 0 0-.074-.206q-.038-.1-.076-.185a2.506 2.506 0 0 0-.046-.097 5.191 5.191 0 0 0-.073-.206q-.038-.1-.076-.186a2.506 2.506 0 0 0-.046-.096h-.586a.86.86 0 0 1-.204.07q-.129.027-.284.027a2.715 2.715 0 0 1 .073.16q.038.091.076.197a5.547 5.547 0 0 1 .046.131 5.191 5.191 0 0 0 .073.206q.04.101.077.186a2.506 2.506 0 0 0 .045.097 1.459 1.459 0 0 0 .206-.014q.111-.016.203-.049a.776.776 0 0 0 .08-.035zm-1.259 17.494a1.459 1.459 0 0 0-.206-.013 2.506 2.506 0 0 0 .046-.097q.038-.086.076-.186a5.191 5.191 0 0 0 .073-.206 5.547 5.547 0 0 1 .046-.132q.038-.105.076-.196a2.715 2.715 0 0 1 .073-.16q.156 0 .284.028a.86.86 0 0 1 .205.07h.586a5.547 5.547 0 0 1-.046.132q-.038.105-.076.196a2.715 2.715 0 0 1-.074.16 5.547 5.547 0 0 1-.045.132q-.039.105-.077.196a2.715 2.715 0 0 1-.073.16h-.586a.776.776 0 0 0-.08-.034q-.092-.034-.202-.05zm29.484-18.47a1.843 1.843 0 0 0 .583.097 5.547 5.547 0 0 1-.046.132q-.038.106-.076.196a2.715 2.715 0 0 1-.073.161 1.444 1.444 0 0 1-.05.131 1.176 1.176 0 0 1-.243.357 1.013 1.013 0 0 1-.148-.012q-.15-.022-.34-.086h-.489a5.547 5.547 0 0 1 .046-.132q.038-.105.076-.196a2.715 2.715 0 0 1 .074-.16 5.547 5.547 0 0 1 .045-.132q.04-.106.077-.196a2.715 2.715 0 0 1 .073-.16h.488zm.51 18.296a2.715 2.715 0 0 0 .073.161 1.776 1.776 0 0 0-.01 0 1.845 1.845 0 0 0-.577.097h-.488a2.506 2.506 0 0 1-.046-.097q-.038-.085-.076-.185a5.191 5.191 0 0 1-.073-.206 2.506 2.506 0 0 1-.046-.097q-.038-.085-.076-.185a5.191 5.191 0 0 1-.074-.206h.49q.191-.064.341-.086a1.009 1.009 0 0 1 .146-.012q.098.195.293.488a5.547 5.547 0 0 0 .046.132q.038.106.076.196zm-22.765-23.288a1.459 1.459 0 0 0-.013.206 2.506 2.506 0 0 0-.097-.045q-.085-.039-.186-.077a5.191 5.191 0 0 0-.206-.073l-.39-.195v-.488a2.555 2.555 0 0 0 0-.003 1.843 1.843 0 0 0 .096-.583 2.506 2.506 0 0 0 .097.045q.086.038.186.077a5.191 5.191 0 0 0 .206.073 2.506 2.506 0 0 0 .097.046q.085.038.185.076a5.191 5.191 0 0 0 .206.073 2.555 2.555 0 0 0 0 .002 1.843 1.843 0 0 0-.097.584.776.776 0 0 0-.034.08q-.034.092-.05.202zm15.331 28.671a1.013 1.013 0 0 0-.012.15 1.843 1.843 0 0 1-.097.582 2.555 2.555 0 0 1 0 .003 5.191 5.191 0 0 1 .206.073q.1.038.185.076a2.506 2.506 0 0 1 .097.046 2.715 2.715 0 0 0 .161.073q.09.038.196.076a5.547 5.547 0 0 0 .132.046 1.843 1.843 0 0 1 .097-.583 2.555 2.555 0 0 1 0-.003v-.488l-.39-.195a5.191 5.191 0 0 1-.206-.074q-.1-.038-.186-.076a2.506 2.506 0 0 1-.097-.046q-.063.191-.085.34zm.964-28.855v-.488a1.845 1.845 0 0 1-.097-.577 1.776 1.776 0 0 1 0-.009 5.191 5.191 0 0 0-.206.073q-.1.038-.186.076a2.506 2.506 0 0 0-.097.046 2.715 2.715 0 0 1-.16.073q-.09.038-.196.076a5.547 5.547 0 0 1-.132.046 1.845 1.845 0 0 1 .098.577 1.776 1.776 0 0 1 0 .01 1.009 1.009 0 0 0 .011.145q.022.15.086.342a2.715 2.715 0 0 1 .161-.073q.09-.038.196-.076a5.547 5.547 0 0 1 .132-.046zm3.028 17.97a5.191 5.191 0 0 0 .073.205q.038.1.076.185a2.506 2.506 0 0 0 .046.097l.195.39.391-.195a1.876 1.876 0 0 1 .171-.152q.11-.086.22-.14l-.196-.39a5.191 5.191 0 0 0-.073-.207q-.038-.1-.076-.186a2.506 2.506 0 0 0-.046-.097q-.183.092-.366.27a2.16 2.16 0 0 0-.025.023zm.39-7.912-.195.391a5.191 5.191 0 0 1-.073.206q-.038.1-.077.185a2.506 2.506 0 0 1-.045.097l.39.196a1.876 1.876 0 0 0 .171.152q.11.086.22.141a2.715 2.715 0 0 0 .073-.16q.038-.09.076-.197a5.547 5.547 0 0 0 .046-.132l.196-.39q-.184-.092-.367-.269a2.16 2.16 0 0 1-.024-.024zm-23.706.72a2.715 2.715 0 0 0 .073.16l-.39.195a2.16 2.16 0 0 1-.025.024q-.183.177-.366.27l-.195-.392a5.547 5.547 0 0 0-.046-.132q-.038-.106-.076-.196a2.715 2.715 0 0 0-.073-.16q.11-.055.22-.14a1.876 1.876 0 0 0 .17-.153l.391-.196.195.391a5.547 5.547 0 0 0 .046.132q.038.105.076.196zm.073 7.191-.39-.196a1.876 1.876 0 0 0-.17-.152q-.11-.086-.22-.14a2.715 2.715 0 0 0-.074.16q-.038.09-.076.196a5.547 5.547 0 0 0-.046.132l-.195.39q.183.092.366.27a2.16 2.16 0 0 1 .024.023l.391.195.195-.39a2.715 2.715 0 0 0 .073-.16q.04-.09.077-.197a5.547 5.547 0 0 0 .045-.13zm11.622-20.606a1.876 1.876 0 0 0-.153.171q-.086.11-.14.22a1.876 1.876 0 0 0-.153.171q-.085.11-.14.22l.293.292q.091.183.268.366a2.16 2.16 0 0 0 .025.025q.091-.183.268-.366a2.16 2.16 0 0 1 .025-.025q.097-.195.292-.293a1.876 1.876 0 0 1-.152-.17q-.086-.11-.14-.22a1.876 1.876 0 0 1-.153-.17q-.085-.11-.14-.22zm.293 33.79a2.16 2.16 0 0 0-.025.024q-.177.183-.268.366a2.16 2.16 0 0 1-.025-.025q-.177-.183-.268-.366a2.16 2.16 0 0 1-.024-.024q-.178-.183-.269-.366l.293-.293q.054-.11.14-.22a1.876 1.876 0 0 1 .153-.17q.054.11.14.22a1.876 1.876 0 0 0 .153.17q.097.195.292.293a2.16 2.16 0 0 0-.024.024q-.177.183-.268.366zm8.79-6.934a.86.86 0 0 0 .07-.205q.026-.128.026-.284v-.488a.831.831 0 0 0-.299.057 1.021 1.021 0 0 0-.09.041h-.49a1.459 1.459 0 0 1-.013.206q-.016.11-.05.202a.776.776 0 0 1-.034.08v.488a1.009 1.009 0 0 0 .145-.01q.151-.023.343-.087zm-.88-19.629v.488a.86.86 0 0 1 .07.204q.027.13.027.284h.49a.941.941 0 0 0 .218.08.798.798 0 0 0 .171.018v-.488a1.459 1.459 0 0 0-.014-.206q-.015-.11-.049-.203a.776.776 0 0 0-.034-.08h-.39q-.192-.063-.34-.085a1.013 1.013 0 0 0-.149-.012zm-16.407 19.726a1.459 1.459 0 0 0-.013-.206q-.016-.11-.05-.202a.776.776 0 0 0-.034-.08v-.488h-.489a.941.941 0 0 0-.219-.079.798.798 0 0 0-.17-.019v.488a1.459 1.459 0 0 0 .013.206q.015.11.05.203a.776.776 0 0 0 .034.08h.39q.191.063.34.085a1.013 1.013 0 0 0 .148.012zm-.879-19.629a.86.86 0 0 0-.07.205q-.027.128-.027.284v.488h.39a.86.86 0 0 1 .205-.07q.128-.028.284-.028v-.488a.86.86 0 0 0 .07-.205q.027-.128.027-.283a1.009 1.009 0 0 0-.145.011q-.15.022-.343.086h-.39zm12.11 22.754.195-.39a1.876 1.876 0 0 0 .152-.17q.086-.11.141-.22-.075 0-.207-.059a1.757 1.757 0 0 1-.086-.04q-.065-.065-.175-.13a1.783 1.783 0 0 0-.118-.065l-.195.195q-.075 0-.207.058a1.757 1.757 0 0 0-.086.04q0 .098-.098.195l-.194.196a5.191 5.191 0 0 1 .205.073q.1.038.185.076a2.506 2.506 0 0 1 .097.046zm0-25.976-.39.195a2.715 2.715 0 0 1-.16.073q-.092.038-.197.076a5.547 5.547 0 0 1-.132.046l.195.196q.098.097.098.195a1.728 1.728 0 0 0 .091.043q.13.055.202.055l.195.195a1.801 1.801 0 0 0 .113-.06q.056-.034.1-.067a.717.717 0 0 0 .08-.068 1.728 1.728 0 0 1 .092-.043q.128-.055.201-.055-.09-.183-.269-.366a2.16 2.16 0 0 0-.024-.025zm-6.055 25.976.391-.195.39-.195q0-.098-.097-.196l-.196-.195q-.097-.098-.195-.098-.065-.065-.175-.13a1.783 1.783 0 0 0-.118-.065q-.065.066-.175.131a1.783 1.783 0 0 1-.118.064q-.097.098-.195.098l.195.391a1.876 1.876 0 0 1 .152.17q.086.11.141.22zm-.293-25.586a2.16 2.16 0 0 0 .024-.024q.178-.183.27-.366l.39.195.39.195q0 .098-.097.196l-.196.195q-.097.098-.195.098a.717.717 0 0 1-.08.068q-.045.033-.1.066a1.801 1.801 0 0 1-.113.061.717.717 0 0 0-.08-.068q-.044-.033-.1-.066a1.801 1.801 0 0 0-.113-.06q-.097-.099-.195-.099zm4.688 27.832q.195-.097.293-.293.091-.183.27-.366a2.16 2.16 0 0 1 .023-.024l-.39-.196a5.191 5.191 0 0 1-.207-.073q-.1-.038-.185-.076a2.506 2.506 0 0 1-.097-.046q0 .098-.098.195l-.195.196a1.876 1.876 0 0 1 .152.171q.086.11.141.22zm0-30.468-.293.293q-.092.183-.269.366a2.16 2.16 0 0 1-.024.024l.195.195q.098.098.098.196a2.715 2.715 0 0 1 .16-.073q.091-.039.196-.077a5.547 5.547 0 0 1 .132-.046l.391-.195a1.876 1.876 0 0 1-.153-.17q-.085-.11-.14-.22-.097-.196-.292-.293zm-2.735 30.468.293-.293q.092-.183.27-.366a2.16 2.16 0 0 1 .023-.024l-.195-.196-.195-.195-.39.195-.392.196a1.876 1.876 0 0 1 .153.171q.085.11.14.22.098.195.293.292zm0-30.468-.293.293a1.876 1.876 0 0 0-.152.17q-.086.11-.14.22l.39.195.391.196.195-.196.195-.195a1.876 1.876 0 0 1-.152-.17q-.086-.11-.14-.22zm-4.492 27.148-.097-.098v-.097h-.782v.488a2.715 2.715 0 0 1 .16-.073q.091-.038.197-.077a5.547 5.547 0 0 1 .132-.045.941.941 0 0 1 .22-.079.798.798 0 0 1 .17-.019zm-.879-24.12v.487h.782v-.097h.097l-.39-.196a5.191 5.191 0 0 1-.206-.073q-.1-.038-.186-.076a2.506 2.506 0 0 1-.097-.046zm13.38 24.413q.097-.098.097-.195v-.293h-.78q0 .077-.063.093a.144.144 0 0 1-.036.004v.098a.831.831 0 0 1 .3.057 1.021 1.021 0 0 1 .091.041zm-17.677-19.53h-.39q-.19.062-.34.084a1.013 1.013 0 0 1-.149.012q.098.098.098.196 0 .075.058.207a1.757 1.757 0 0 0 .04.086q.195-.098.293-.293l.39-.196zm22.071 14.647h.39a.86.86 0 0 1 .205-.07q.128-.028.284-.028-.098-.097-.098-.195a.306.306 0 0 1-.073-.122q-.016-.048-.022-.107a.687.687 0 0 1 0-.064 1.876 1.876 0 0 1-.17.152q-.11.086-.22.141-.066.066-.176.131a1.783 1.783 0 0 1-.117.064zm-22.754-.586a1.728 1.728 0 0 0-.043.092q-.055.128-.055.201 0 .098-.098.195a1.009 1.009 0 0 1 .146.012q.15.022.343.086h.39v-.098l-.39-.195zm23.487-13.976a1.009 1.009 0 0 0 .146.011q-.098.098-.098.196-.068.068-.089.183a.623.623 0 0 0-.01.11q-.11-.055-.219-.14a1.876 1.876 0 0 1-.17-.153.717.717 0 0 0-.08-.069q-.046-.033-.102-.066a1.801 1.801 0 0 0-.112-.06v-.098h.39q.193.064.343.086zm-5.81-4.48a.144.144 0 0 0-.01-.037q-.017-.06-.094-.06l.391-.197.39-.195q.098.098.098.195v.293h-.39z" vector-effect="non-scaling-stroke" transform="translate(-2241.584 -113.919)" stroke-linecap="round" fill-rule="evenodd" font-size="12" stroke="#000" stroke-width=".945" style="fill:#000;stroke:#000;stroke-width:.25mm"/>
</svg>
