<svg xmlns="http://www.w3.org/2000/svg" width="77.925" height="77.154" viewBox="0 0 20.618 20.414">
    <path d="M100.244 47.542a10.848 10.848 0 0 0-2.892 1.54 13.11 13.11 0 0 0-.907.734 13.007 13.007 0 0 0-1.542 1.576 9.888 9.888 0 0 0-1.145 1.731q-.258-.413-.439-.904a7.569 7.569 0 0 1-.336-1.06 5.23 5.23 0 0 1-.13-1.162 4.816 4.816 0 0 1 .056-.716 5.427 5.427 0 0 1 .022-.137 2.115 2.115 0 0 1 .901-1.452 2.653 2.653 0 0 1 .107-.072 4.962 4.962 0 0 1 2.644-.775 5.94 5.94 0 0 1 .095 0h.387q1.758.129 3.179.697zm6.046 9.405q-.801.31-1.912.388h-.414a4.935 4.935 0 0 1-1.039-.106 4.25 4.25 0 0 1-.537-.152 2.815 2.815 0 0 1-.878-.517 1.972 1.972 0 0 1-.554-.71 2.337 2.337 0 0 1-.04-.091 4.772 4.772 0 0 1-.362-1.835 4.808 4.808 0 0 1 .097-.948 5.752 5.752 0 0 1 .11-.447q.439-1.705 1.265-2.997a10.898 10.898 0 0 0 1.021 3.23 13.08 13.08 0 0 0 .504.93 13.075 13.075 0 0 0 1.236 1.783 9.887 9.887 0 0 0 1.503 1.472zm-4.496-19.74h.052q.744 0 1.656.23a10.087 10.087 0 0 1 .204.054 5.13 5.13 0 0 1 1.094.426 4.291 4.291 0 0 1 .715.478q.387.336.646.776a2.06 2.06 0 0 1 .284.956v.206a5.096 5.096 0 0 1-.743 2.636 6.217 6.217 0 0 1-.162.258 12.048 12.048 0 0 1-1.27 1.545 9.904 9.904 0 0 1-.952.858 10.73 10.73 0 0 0 .201-2.084q0-.985-.17-2.017a13.863 13.863 0 0 0-.056-.317 14.043 14.043 0 0 0-.596-2.133 10.591 10.591 0 0 0-.903-1.872zm7.183 2.47a4.091 4.091 0 0 0-.44-.403 10.223 10.223 0 0 1-.506 1.997 13.431 13.431 0 0 1-.94 2.034 13.235 13.235 0 0 1-.653 1.045 10.888 10.888 0 0 1-2.164 2.34q.181.025.362.025 1.37 0 2.868-.439a6.302 6.302 0 0 0 .34-.108 5.053 5.053 0 0 0 2.373-1.675 2.088 2.088 0 0 0 .465-1.317 1.802 1.802 0 0 0-.01-.186 2.23 2.23 0 0 0-.042-.254q-.18-1.007-.723-1.886-.31-.465-.672-.878a5.115 5.115 0 0 0-.258-.295zm-13.176-.083a5.913 5.913 0 0 0-.492.378 10.53 10.53 0 0 1 1.873.833 13.645 13.645 0 0 1 1.847 1.26 13.438 13.438 0 0 1 .868.771 11.178 11.178 0 0 1 2 2.588 8.721 8.721 0 0 0 .08-.424 9.769 9.769 0 0 0 .127-1.592 14.928 14.928 0 0 0-.052-1.24 6.081 6.081 0 0 0-.05-.378 4.834 4.834 0 0 0-1.242-2.568 2.65 2.65 0 0 0-.063-.066 2.16 2.16 0 0 0-1.59-.657h-.026q-1.008 0-1.964.388a5.876 5.876 0 0 0-.297.122 4.999 4.999 0 0 0-.685.368 7.244 7.244 0 0 0-.334.217zm8.525 8.543a10.538 10.538 0 0 0 .129 0q1.51 0 3.074-.432a13.849 13.849 0 0 0 1.138-.37 13.285 13.285 0 0 0 2.006-.932 10.049 10.049 0 0 0 1.689-1.212 7.97 7.97 0 0 1 .076.604 9.853 9.853 0 0 1 .027.404v.129a6.05 6.05 0 0 1-.06.834 6.716 6.716 0 0 1-.018.122 5.582 5.582 0 0 1-.645 1.912q-.517.852-1.473 1.085-.517.104-1.034.104a5.081 5.081 0 0 1-1.763-.325 6.058 6.058 0 0 1-.407-.167 11.351 11.351 0 0 1-1.697-.94 9.286 9.286 0 0 1-1.042-.816zm-5.34 9.022a4.488 4.488 0 0 0 .405.15 9.259 9.259 0 0 1-.096-.518q-.17-1.075-.108-2.282a14.5 14.5 0 0 1 .152-1.463 13.421 13.421 0 0 1 .226-1.144 11.115 11.115 0 0 1 1.221-3.042 9.232 9.232 0 0 0-1.233.515 11.25 11.25 0 0 0-1.66 1.035 6.038 6.038 0 0 0-.3.232 4.797 4.797 0 0 0-1.587 2.352 2.274 2.274 0 0 0-.103.672 2.043 2.043 0 0 0 .045.43 2.226 2.226 0 0 0 .29.707 5.232 5.232 0 0 0 1.319 1.498 8.135 8.135 0 0 0 .26.196 6.965 6.965 0 0 0 .67.425q.26.137.5.237zm-6.678-11.667a5.54 5.54 0 0 0-.178.758 10.62 10.62 0 0 1 2.036-.567 14.142 14.142 0 0 1 2.176-.208q2.351-.051 4.34.698a9.592 9.592 0 0 0-.751-1.176 12.013 12.013 0 0 0-1.238-1.408 6.154 6.154 0 0 0-.16-.148 4.97 4.97 0 0 0-2.734-1.273 2.015 2.015 0 0 0-.148-.02 1.5 1.5 0 0 0-.136-.006 1.927 1.927 0 0 0-.697.13 2.815 2.815 0 0 0-.879.516 4.857 4.857 0 0 0-.569.605 5.835 5.835 0 0 0-.645 1.023 10.14 10.14 0 0 0-.124.28q-.177.414-.293.796zm11.114 3.756a10.825 10.825 0 0 0 2.831 1.797 13.009 13.009 0 0 0 1.019.399q2.222.775 4.186.75a5.403 5.403 0 0 1-.437.642q-.243.312-.554.632a10.053 10.053 0 0 1-.224.224 4.886 4.886 0 0 1-.858.69 3.967 3.967 0 0 1-.822.395q-.49.18-1.007.18a2.107 2.107 0 0 1-.927-.217 2.445 2.445 0 0 1-.03-.015 5.12 5.12 0 0 1-2.122-2.157 6.31 6.31 0 0 1-.1-.194 11.895 11.895 0 0 1-.67-1.778 9.65 9.65 0 0 1-.285-1.348z" vector-effect="non-scaling-stroke" style="fill:#000;stroke:#000;stroke-width:.0661458mm" transform="translate(-91.972 -37.08)"/>
</svg>
