<svg xmlns="http://www.w3.org/2000/svg" width="346.942" height="68.327">
    <path d="m302.88 142.311-.196.781-.195.781a1960.313 1960.313 0 0 0-.806 2.93 2376.442 2376.442 0 0 0-.854 3.125q-.781 3.32-1.66 6.64a1505.465 1505.465 0 0 0-1.471 5.49q-.785 2.951-1.46 5.545l-1.268 4.786h.292a2.464 2.464 0 0 0 .45-.443 3.149 3.149 0 0 0 .234-.339 7.863 7.863 0 0 0 .45-.488 6.534 6.534 0 0 0 .234-.293 366.842 366.842 0 0 1 2.392-2.88 502.065 502.065 0 0 1 2.686-3.175 580.551 580.551 0 0 1 5.469-6.543 1058.895 1058.895 0 0 1 4.323-5.188q1.985-2.366 3.779-4.472a612.598 612.598 0 0 1 1.175-1.375l4.004-4.882h21.289a9.936 9.936 0 0 0-.488.526 11.965 11.965 0 0 0-.293.352 6.841 6.841 0 0 1-.405.49 8.239 8.239 0 0 1-.28.292 1214.129 1214.129 0 0 0-2.66 2.978 1596.01 1596.01 0 0 0-2.905 3.272l-6.055 6.836a3374.378 3374.378 0 0 0-4.713 5.292q-2.874 3.234-5.346 6.036l-4.394 5.078q.084.336.24.743a9.659 9.659 0 0 0 .053.136 5.581 5.581 0 0 1 .287.946 5.197 5.197 0 0 1 .006.03q1.172 3.321 2.539 7.227l2.734 8.008a2417.522 2417.522 0 0 0 2.273 6.614q1.074 3.11 2.042 5.882a1430.251 1430.251 0 0 0 .275.785l2.05 5.86h-21.971a3.783 3.783 0 0 0-.15-.546 3.111 3.111 0 0 0-.143-.334 5.56 5.56 0 0 0-.287-.96 6.05 6.05 0 0 0-.006-.016 785.814 785.814 0 0 1-.897-3.116q-.471-1.647-.987-3.475a1287.086 1287.086 0 0 1-.07-.245 253.417 253.417 0 0 1-2.245-7.52q-2.006-6.564-3.586-11.852a1407.385 1407.385 0 0 1-.223-.745l-1.562-5.469h-.293a3.257 3.257 0 0 0-.214.555 3.993 3.993 0 0 0-.08.324 16.244 16.244 0 0 0-.097.415 22.325 22.325 0 0 0-.097.464 372.479 372.479 0 0 0-.904 3.271 478.532 478.532 0 0 0-.952 3.565l-1.953 7.617a956.47 956.47 0 0 1-1.482 5.853q-.917 3.571-1.741 6.647l-1.464 5.566H264.5q.195-.879.488-1.757l.39-1.758a661.085 661.085 0 0 0 1.71-6.47 869.21 869.21 0 0 0 1.806-7.105q1.953-7.42 3.907-14.746 1.269-4.882 2.44-9.472a4294.231 4294.231 0 0 0 1.222-4.517 3387.78 3387.78 0 0 0 1.123-4.175q1.747-6.813 2.947-11.439a2100.41 2100.41 0 0 1 .275-1.06l1.27-4.883h17.383zm-109.571 0a329.68 329.68 0 0 0-.647 2.355q-.73 2.694-1.72 6.48a1493.691 1493.691 0 0 0-.953 3.665h-21.094a.831.831 0 0 1-.057.3 1.021 1.021 0 0 1-.04.09.941.941 0 0 0-.08.22.798.798 0 0 0-.018.171 83.066 83.066 0 0 0-.391 1.416 100.125 100.125 0 0 0-.39 1.513q-.391 1.661-.88 3.223a916.042 916.042 0 0 0-.645 2.518q-.294 1.151-.553 2.18a523.994 523.994 0 0 0-.168.673l-.586 2.344h18.554q-.822 3.215-2.274 8.834a10040.828 10040.828 0 0 1-.948 3.666h-18.555l-.195.391a.831.831 0 0 1-.058.3 1.021 1.021 0 0 1-.04.09 33.339 33.339 0 0 1-.417 1.81 41.533 41.533 0 0 1-.364 1.315q-.391 1.66-.88 3.321-.78 3.125-1.464 5.566l-.586 2.441h21.387a1153.205 1153.205 0 0 1-.611 2.32q-1.013 3.835-2.67 10.031a6106.916 6106.916 0 0 1-.04.15H133.74q.293-.88.488-1.758.196-.879.489-1.758a1419.401 1419.401 0 0 1 1.66-6.47 1886.022 1886.022 0 0 1 1.855-7.105q1.953-7.42 3.906-14.746a285.304 285.304 0 0 1 2.442-9.472q1.172-4.688 2.246-8.692a6343.552 6343.552 0 0 1 .934-3.637q1.336-5.2 2.289-8.863l1.269-4.882h35.156zm-131.64 67.382q.195-.879.488-1.757l.39-1.758q1.66-6.153 3.614-13.575a974.808 974.808 0 0 1 3.809-14.746q1.269-4.882 2.44-9.472a4294.231 4294.231 0 0 0 1.222-4.517 3387.78 3387.78 0 0 0 1.123-4.175 6343.552 6343.552 0 0 1 .933-3.637q1.337-5.2 2.289-8.863l1.27-4.882h20.898a143.784 143.784 0 0 1 2.613.024 169.512 169.512 0 0 1 2.758.073 862.801 862.801 0 0 0 2.906.195 999.381 999.381 0 0 0 3.05.196 43.461 43.461 0 0 1 4.84.567 38.672 38.672 0 0 1 1.118.214 34.815 34.815 0 0 1 4.093 1.071 30.324 30.324 0 0 1 1.376.492q2.637.878 4.688 2.343a15.941 15.941 0 0 1 3.515 3.418 8.386 8.386 0 0 1 1.603 4.021 10.25 10.25 0 0 1 .057.57q.098.683.098 1.366 0 2.01-.598 4.448a26.901 26.901 0 0 1-.085.337 18.458 18.458 0 0 1-2.247 5.372q-1.562 2.54-3.906 4.785a25.762 25.762 0 0 1-3.725 2.827 31.271 31.271 0 0 1-2.037 1.177 36.863 36.863 0 0 1-4.044 1.933 47.661 47.661 0 0 1-3.573 1.29 9893.083 9893.083 0 0 0 1.662 4.911l1.238 3.653a4966.398 4966.398 0 0 0 1.104 3.252 786.365 786.365 0 0 0 .8 2.386q1.153 3.424 2.032 5.914a1758.41 1758.41 0 0 0 .913 2.733q1.815 5.416 2.212 6.447l.39 1.367h-21.971l-.195-.78q-.084-.337-.24-.744a9.659 9.659 0 0 0-.053-.136 149.223 149.223 0 0 0-.952-2.954 193.018 193.018 0 0 0-1.1-3.198q-1.073-3.418-2.245-6.836a1093.71 1093.71 0 0 0-1.72-5.359q-.793-2.449-1.516-4.637a631.836 631.836 0 0 0-.475-1.43l-1.66-4.98h-.293l-.195.781-.196.781a324.062 324.062 0 0 0-.805 2.98 426.476 426.476 0 0 0-.855 3.27l-1.758 6.836a2326.104 2326.104 0 0 0-1.377 5.293q-.838 3.234-1.552 6.035l-1.367 5.078H65.087zm188.476-67.382.196 1.757.195 1.758a1652.938 1652.938 0 0 0 .732 6.47 2191.694 2191.694 0 0 0 .83 7.104q.782 7.422 1.66 14.746a718.128 718.128 0 0 1 .95 8.321 652.322 652.322 0 0 1 .125 1.152 365.307 365.307 0 0 1 .537 4.517 287.172 287.172 0 0 1 .439 4.175q.787 6.813 1.338 11.44a1511.265 1511.265 0 0 0 .127 1.06l.586 4.882h-22.265a5486.128 5486.128 0 0 0-.165-2.136l-.714-9.192h-21.192a748.461 748.461 0 0 1-1.221 2.1q-2.026 3.474-5.34 9.093a4392.06 4392.06 0 0 1-.08.135H186.18a25.471 25.471 0 0 1 1.075-1.757 25.471 25.471 0 0 0 1.074-1.758 1546.313 1546.313 0 0 1 4.028-6.47 2065.026 2065.026 0 0 1 4.468-7.105 2923.028 2923.028 0 0 0 9.18-14.746q5.664-8.984 10.644-16.992a18900.383 18900.383 0 0 0 2.368-3.808q3.369-5.42 5.64-9.082a2707.71 2707.71 0 0 0 .787-1.252q.768-1.22 1.354-2.156a827.742 827.742 0 0 0 .496-.792l.879-1.464h18.359zM-3.468 209.693q.195-.879.488-1.757l.39-1.758q1.66-6.153 3.614-13.575a974.808 974.808 0 0 1 3.809-14.746q1.269-4.882 2.44-9.472a4294.231 4294.231 0 0 0 1.222-4.517 3387.78 3387.78 0 0 0 1.123-4.175 6343.552 6343.552 0 0 1 .934-3.637q1.336-5.2 2.289-8.863l1.269-4.882h20.41a86.234 86.234 0 0 1 5.149.15 78.306 78.306 0 0 1 .71.045 72.908 72.908 0 0 1 4.807.32 66.06 66.06 0 0 1 .662.07 26.131 26.131 0 0 1 4.98 1.075 23.277 23.277 0 0 1 4.493 2.05 15.41 15.41 0 0 1 2.5 1.674 12.807 12.807 0 0 1 1.406 1.354 11.19 11.19 0 0 1 2.344 3.711 11.965 11.965 0 0 1 .977 4.2v.78a15.373 15.373 0 0 1-.258 2.762 17.516 17.516 0 0 1-.133.656 14.095 14.095 0 0 1-1.855 4.297q-1.172 1.953-2.93 3.711-1.856 1.66-4.395 3.125-2.54 1.562-5.761 2.832a15.099 15.099 0 0 1 1.706.682 12.446 12.446 0 0 1 .93.49 11.922 11.922 0 0 1 1.674 1.083 10.428 10.428 0 0 1 .572.48 10.361 10.361 0 0 1 1.079 1.012 8.242 8.242 0 0 1 .679.843 9.767 9.767 0 0 1 1.206 1.913 9.093 9.093 0 0 1 .064.138 10.372 10.372 0 0 1 .69 1.544 9.051 9.051 0 0 1 .189.604q.293 1.172.39 2.344.13.781.13 1.52a8.027 8.027 0 0 1-.032.726q-.098 1.172-.391 2.246a20.464 20.464 0 0 1-1.107 3.122 17.49 17.49 0 0 1-.748 1.468 20.163 20.163 0 0 1-3.125 4.004q-1.856 1.758-4.004 3.222a34.228 34.228 0 0 1-4.15 2.302 38.385 38.385 0 0 1-.733.335q-2.54 1.172-5.566 2.051a76.446 76.446 0 0 1-4.954 1.141 85.844 85.844 0 0 1-1.2.226q-3.32.488-6.737.781-3.418.293-7.031.293H-2.784zm237.5-50a53703.992 53703.992 0 0 0-.086 2.976l-.207 7.181.098 2.832q.052 1.556.103 3.333a1151.518 1151.518 0 0 1 .092 3.307l.195 3.906a69.656 69.656 0 0 0 .025 1.88 54.739 54.739 0 0 0 .073 1.734v.976h-14.648l1.464-2.929a380.946 380.946 0 0 0 .42-.814q.64-1.247 1.352-2.65a673.98 673.98 0 0 0 1.549-3.079q1.074-1.953 2.05-3.907a82.988 82.988 0 0 1 .13-.27q.45-.938.88-1.77a49.879 49.879 0 0 1 .846-1.573 5.547 5.547 0 0 1 .046-.132q.038-.105.076-.196a2.715 2.715 0 0 1 .073-.16 9.027 9.027 0 0 0 .009-.013q.189-.284.284-.475 2.417-5.127 3.955-8.277a226.55 226.55 0 0 1 .928-1.88zM92.528 171.314h3.613a30.905 30.905 0 0 0 3.125-.15q1.568-.159 2.943-.489a18.831 18.831 0 0 0 .182-.044q2.735-.586 4.59-1.953a12.843 12.843 0 0 0 2.04-1.758 10.751 10.751 0 0 0 1.085-1.367 10.676 10.676 0 0 0 1.758-3.809 5.536 5.536 0 0 0 .293-1.73 5.268 5.268 0 0 0 0-.028v-.39a8.429 8.429 0 0 0-.034-.778 6.826 6.826 0 0 0-.064-.492q-.097-.78-.488-1.465a7.043 7.043 0 0 0-1.004-1.12 7.917 7.917 0 0 0-.168-.149 7.088 7.088 0 0 0-.81-.595 9.489 9.489 0 0 0-.85-.479 13.098 13.098 0 0 0-1.05-.367q-.561-.17-1.196-.317-1.18-.272-2.697-.376a24.775 24.775 0 0 0-.233-.015 27.986 27.986 0 0 0-1.46-.08 35.05 35.05 0 0 0-1.08-.017h-3.807a.941.941 0 0 0-.08.22.798.798 0 0 0-.018.17 5.191 5.191 0 0 1-.073.206q-.038.1-.077.186a2.506 2.506 0 0 1-.045.097 237.398 237.398 0 0 1-.415 1.733 304.345 304.345 0 0 1-.464 1.88 87.164 87.164 0 0 0-1.075 3.906 297.954 297.954 0 0 0-.851 3.307q-.39 1.555-.717 2.941a172.557 172.557 0 0 0-.092.393zm-56.543 17.872a23.21 23.21 0 0 0 .206-1.183 19.409 19.409 0 0 0 .087-.673q0-.879-.293-1.66a6.347 6.347 0 0 0-1.597-2.678 7.648 7.648 0 0 0-.258-.252q-1.424-1.233-3.677-1.822a13.157 13.157 0 0 0-.132-.033q-2.01-.548-4.618-.584a26.745 26.745 0 0 0-.362-.002h-.293q-.74 2.82-1.34 5.086a1166.659 1166.659 0 0 1-.516 1.945 196.184 196.184 0 0 0-.545 2.014q-.42 1.587-.724 2.87a2347.198 2347.198 0 0 0-.44 1.62q-.711 2.636-.945 3.537a34.315 34.315 0 0 0-.08.311l-.196.781q.39.098.782.098a21.182 21.182 0 0 0 3.752-.323 18.709 18.709 0 0 0 1.228-.263q2.539-.586 4.688-1.856a12.242 12.242 0 0 0 2.246-1.765 10.511 10.511 0 0 0 1.074-1.262q1.367-1.758 1.953-3.906zm6.348-27.735a7.143 7.143 0 0 0 .237-1.068 5.716 5.716 0 0 0 .056-.787 5.542 5.542 0 0 0-.097-1.05 4.846 4.846 0 0 0-.1-.415 4.697 4.697 0 0 0-1.51-2.43 5.904 5.904 0 0 0-.246-.207 6.091 6.091 0 0 0-1.298-.828q-.641-.309-1.422-.534a12.257 12.257 0 0 0-.796-.2q-1.758-.39-4.2-.39a2.484 2.484 0 0 0-.487-.05 2.484 2.484 0 0 0-.49.05 2502.51 2502.51 0 0 0-.69 2.631l-.513 1.963a1274.599 1274.599 0 0 0-.456 1.753 414.736 414.736 0 0 1-.33 1.263q-.46 1.754-.818 3.046a143.879 143.879 0 0 1-.024.085q-.92 3.593-1.195 4.684a123.035 123.035 0 0 0-.074.297l-.196.683a25.511 25.511 0 0 0 3.142-.185 20.23 20.23 0 0 0 2.229-.4 16.274 16.274 0 0 0 3.11-1.076 14.173 14.173 0 0 0 1.285-.683 13.145 13.145 0 0 0 2.078-1.529 10.956 10.956 0 0 0 1.145-1.205 8.715 8.715 0 0 0 1.562-3.056 10.156 10.156 0 0 0 .098-.362z" vector-effect="non-scaling-stroke" transform="translate(4.057 -141.839)" stroke-linecap="round" fill-rule="evenodd" font-size="12" stroke="#000" stroke-width=".945" style="fill:#000;stroke:#000;stroke-width:.25mm"/>
</svg>
