<svg xmlns="http://www.w3.org/2000/svg" width="74.415" height="83.268" viewBox="0 0 19.689 22.031">
    <path d="m110.958 69.818.206-.207q.111-.089.203-.158a6.848 6.848 0 0 1 .03-.023 3.926 3.926 0 0 1 .149-.157q.16-.161.393-.368a14.549 14.549 0 0 1 .078-.069q.413-.362.775-.672.698-.723 1.37-1.472a38.016 38.016 0 0 0 1.265-1.55 1.927 1.927 0 0 0 .098-.175q.044-.09.071-.174a1.092 1.092 0 0 0 .012-.04.945.945 0 0 0 .066-.242 1.234 1.234 0 0 0 .012-.17 1.19 1.19 0 0 0-.02-.22.921.921 0 0 0-.058-.194q-.046-.163-.155-.347a2.197 2.197 0 0 0-.026-.04 38.016 38.016 0 0 0-1.266-1.551q-.671-.75-1.37-1.473a90.615 90.615 0 0 1-.374-.323 112.155 112.155 0 0 1-.4-.348 13.098 13.098 0 0 1-.194-.173q-.271-.247-.426-.422a2.629 2.629 0 0 0-.14-.13 3.166 3.166 0 0 0-.093-.077 2.08 2.08 0 0 0-.129-.119 1.729 1.729 0 0 0-.077-.061h.025q-.02 0-.024-.017a.038.038 0 0 1-.001-.01l-.026-.025a18.9 18.9 0 0 1 .412.155 16.669 16.669 0 0 1 .13.052q.284.077.569.18a.249.249 0 0 0 .058.021.211.211 0 0 0 .045.005.081.081 0 0 0 .032.02q.013.004.029.005a.182.182 0 0 0 .017.001 2.287 2.287 0 0 0 .108.04l.094.03a1.284 1.284 0 0 0 .03.008 2.287 2.287 0 0 0 .108.04q.05.017.095.03a1.284 1.284 0 0 0 .03.007.249.249 0 0 0 .058.021.211.211 0 0 0 .045.005.718.718 0 0 0 .042.02l.052.02a1.468 1.468 0 0 0 .035.012 31.273 31.273 0 0 0 2.274.542 25.547 25.547 0 0 0 2.3.362 1.084 1.084 0 0 0 .568-.155q.284-.155.44-.44.464-1.059.826-2.17.388-1.11.672-2.248a7.884 7.884 0 0 0 .026-.135 10.269 10.269 0 0 0 .026-.149 2.04 2.04 0 0 0 .077-.31.488.488 0 0 0 .026-.153.47.47 0 0 0 0-.002.718.718 0 0 0 .02-.042l.02-.052a1.468 1.468 0 0 0 .012-.035l.103-.569a3.29 3.29 0 0 0 .102-.584 3.608 3.608 0 0 0 0-.01 6.092 6.092 0 0 0 .11.523 5.535 5.535 0 0 0 .02.071l.103.569a1.373 1.373 0 0 0 .02.054l.02.05a.663.663 0 0 0 .012.025.488.488 0 0 0 .025.155l.052.31q.052.13.078.284a20.848 20.848 0 0 0 .646 2.248 29.874 29.874 0 0 0 .852 2.17q.155.285.414.44a1.224 1.224 0 0 0 .594.155q1.163-.13 2.3-.362 1.162-.232 2.273-.542l.104-.052a.22.22 0 0 0 .079-.015.27.27 0 0 0 .024-.01 1.471 1.471 0 0 0 .255-.077 1.6 1.6 0 0 0 .004-.001q.089-.023.196-.064a2.556 2.556 0 0 0 .036-.014q.02 0 .055-.015a.465.465 0 0 0 .023-.01.249.249 0 0 1 .058-.022.211.211 0 0 1 .045-.005 10.666 10.666 0 0 1 .345-.119 8.979 8.979 0 0 1 .198-.061l.568-.207-.026.026-.026.026h.026q-.089.066-.196.152a12.947 12.947 0 0 0-.036.028l-.207.207q-.208.208-.54.52a46.664 46.664 0 0 1-.08.074q-.412.362-.774.672-.724.724-1.37 1.473a21.615 21.615 0 0 0-1.266 1.55 3.388 3.388 0 0 0-.115.197q-.052.099-.091.19-.05.176-.052.4a2.07 2.07 0 0 0 0 .014 1.791 1.791 0 0 0 .011.207q.013.11.04.207a2.45 2.45 0 0 0 .09.187q.052.095.115.197a3.91 3.91 0 0 0 .003.003 21.615 21.615 0 0 0 1.267 1.55q.645.75 1.369 1.473a90.615 90.615 0 0 1 .374.323 112.155 112.155 0 0 1 .401.35 42.838 42.838 0 0 1 .184.172q.225.212.385.37a13.022 13.022 0 0 1 .051.051 2.08 2.08 0 0 0 .13.12 1.729 1.729 0 0 0 .077.061 3.023 3.023 0 0 1 .151.13 2.509 2.509 0 0 1 .081.077m-18.94 0a.038.038 0 0 1 0 .01q-.004.016-.025.016.284-.104.569-.181a4.637 4.637 0 0 1 .032-.013 5.034 5.034 0 0 1 .51-.168.27.27 0 0 1 .024-.01.22.22 0 0 1 .08-.016.472.472 0 0 0 .03-.017q.03-.017.047-.034a5.907 5.907 0 0 0 .123-.026 4.298 4.298 0 0 0 .11-.026 2.556 2.556 0 0 1 .035-.014q.108-.042.197-.064a1.468 1.468 0 0 0 .035-.012l.052-.02a.718.718 0 0 0 .042-.02.211.211 0 0 0 .045-.004.249.249 0 0 0 .059-.021 19.865 19.865 0 0 1 2.273-.543q1.137-.232 2.3-.362a1.084 1.084 0 0 1 .568.155 1.337 1.337 0 0 1 .052.03 1.116 1.116 0 0 1 .388.384 34.016 34.016 0 0 1 .852 2.196 30.142 30.142 0 0 1 .646 2.222l.052.31a3.24 3.24 0 0 1 0 .003q.025.076.044.146a2.03 2.03 0 0 1 .033.136.488.488 0 0 1 .025.155l.052.155.103.568q.078.284.104.569a6.747 6.747 0 0 1 .129-.569l.103-.568.052-.155a.47.47 0 0 1 0-.003.488.488 0 0 1 .026-.152 7.884 7.884 0 0 0 .026-.136 10.269 10.269 0 0 0 .026-.149 2.04 2.04 0 0 0 .077-.31 30.142 30.142 0 0 1 .646-2.222 34.016 34.016 0 0 1 .853-2.196q.155-.258.439-.414a1.084 1.084 0 0 1 .568-.155 25.547 25.547 0 0 1 2.3.362 19.865 19.865 0 0 1 2.274.543.27.27 0 0 0 .024.01.22.22 0 0 0 .08.016.663.663 0 0 0 .025.012l.049.02a1.373 1.373 0 0 0 .054.02 1.284 1.284 0 0 1 .03.007q.045.013.095.03a2.287 2.287 0 0 1 .108.04 4.298 4.298 0 0 0 .11.026 5.907 5.907 0 0 0 .122.026.19.19 0 0 0 .022.018l.026.017a.477.477 0 0 0 .03.016.211.211 0 0 1 .045.005.249.249 0 0 1 .058.021q.285.077.543.18.284.078.568.182a.038.038 0 0 1-.01-.001q-.016-.004-.016-.025h-.026.026m-18.94 0h.027z" vector-effect="non-scaling-stroke" style="fill:#000;stroke:#000;stroke-width:.0661458mm" transform="translate(-110.582 -53.313)"/>
</svg>
