<svg xmlns="http://www.w3.org/2000/svg" width="52.356" height="68.133" viewBox="0 0 13.852 18.027">
    <path d="m111.632 54.893.13.129a3.559 3.559 0 0 1 .068.07q.157.168.567.622a187.797 187.797 0 0 1 .191.212 9.106 9.106 0 0 1-2.61 2.067 6.853 6.853 0 0 1-3.1.75 6.008 6.008 0 0 1-1.51-.185 5.38 5.38 0 0 1-.557-.177q-.982-.336-1.783-.982a6.925 6.925 0 0 1-1.794-2.112 8.848 8.848 0 0 1-.506-1.066 8.794 8.794 0 0 1-.644-3.216 10.039 10.039 0 0 1-.001-.169 9.373 9.373 0 0 1 .051-.982 10.733 10.733 0 0 1 .491-2.48 11.281 11.281 0 0 1 .92-2.006 10.397 10.397 0 0 1 .114-.19 9.372 9.372 0 0 1 2.351-2.636 8.969 8.969 0 0 1 .595-.414q1.808-1.162 3.824-1.162a6.113 6.113 0 0 1 2.326.439 5.85 5.85 0 0 1 .645.31q1.343.75 2.248 2.041l-.13.13q-.132.11-.773.71a189.32 189.32 0 0 0-.234.22 4.761 4.761 0 0 0-.748-.937 4.113 4.113 0 0 0-.57-.459 3.253 3.253 0 0 0-1.731-.49 3.595 3.595 0 0 0-1.845.519 4.798 4.798 0 0 0-.558.385 6.275 6.275 0 0 0-1.247 1.34 8.233 8.233 0 0 0-.613 1.037 8.08 8.08 0 0 0-.533 1.25 9.372 9.372 0 0 0-.139.455 8.963 8.963 0 0 0-.362 1.938q-.258 2.868.956 4.91a5.122 5.122 0 0 0 .772 1.018 3.21 3.21 0 0 0 2.355.997q.956 0 1.808-.491a5.53 5.53 0 0 0 1.263-1.028 6.543 6.543 0 0 0 .313-.367z" vector-effect="non-scaling-stroke" style="fill:#000;stroke:#000;stroke-width:.0661458mm" transform="translate(-99.958 -40.84)"/>
</svg>
