<svg height="77.005" viewBox="0 0 20.404 20.374" width="77.118" xmlns="http://www.w3.org/2000/svg"><path d="m121.347 30.513a10.456 10.456 0 0 0 .257-2.343 11.53 11.53 0 0 0 -.005-.332 10.141 10.141 0 0 0 -.537-3.026 9.726 9.726 0 0 0 -.11-.3 10.346 10.346 0 0 0 -1.518-2.672 11.842 11.842 0 0 0 -.276-.329 10.376 10.376 0 0 0 -2.153-1.893q-1.344-.904-2.946-1.318a4.982 4.982 0 0 1 1.628 1.706q.594 1.059.594 2.325a5.634 5.634 0 0 1 0 .062 4.602 4.602 0 0 1 -1.395 3.323 5.57 5.57 0 0 1 -.044.043 4.573 4.573 0 0 1 -3.315 1.352 5.49 5.49 0 0 1 -.061 0 4.574 4.574 0 0 1 -3.298-1.395 5.498 5.498 0 0 1 -.043-.044 4.604 4.604 0 0 1 -1.352-3.341 4.66 4.66 0 0 1 .62-2.351 4.756 4.756 0 0 1 1.628-1.68 9.79 9.79 0 0 0 -2.972 1.292 10.364 10.364 0 0 0 -.372.263 11.203 11.203 0 0 0 -2.056 1.985q-1.086 1.395-1.628 2.972-.543 1.576-.543 3.358a11.48 11.48 0 0 0 .003.196 10.263 10.263 0 0 0 .334 2.466 8.828 8.828 0 0 0 .982 2.403 11.358 11.358 0 0 0 .165.286 10.118 10.118 0 0 0 1.334 1.78 10.63 10.63 0 0 0 1.938 1.577 11.751 11.751 0 0 0 1.214.646 9.153 9.153 0 0 0 .157.07 10.047 10.047 0 0 0 1.161.42q.646.208 1.344.31.723.104 1.447.104.723 0 1.42-.103.698-.103 1.37-.31a10.527 10.527 0 0 0 1.292-.491 11.751 11.751 0 0 0 1.214-.646 10.63 10.63 0 0 0 1.938-1.576 9.52 9.52 0 0 0 .262-.29 10.414 10.414 0 0 0 1.237-1.777 9.482 9.482 0 0 0 1.008-2.403 9.65 9.65 0 0 0 .078-.319z" stroke="#000" stroke-width=".066146mm" transform="translate(-101.325 -18.18)"/></svg>