<svg xmlns="http://www.w3.org/2000/svg" width="63.887" height="68.23" viewBox="0 0 16.903 18.052">
    <path d="m175.885 79.29-.026.025q-.026.026-.026.052a34.572 34.572 0 0 1-.775.801q-.387.414-.75.827-.025.026-.154 0a9.084 9.084 0 0 0-.054-.009q-.092-.015-.12-.016a.106.106 0 0 0-.007 0h-1.189a7.412 7.412 0 0 1-.45.023 6.47 6.47 0 0 1-.144.002q-.594.026-1.189.103a12.598 12.598 0 0 0-1.162.156q-.44.077-.879.18a3.113 3.113 0 0 0-.709.306 2.884 2.884 0 0 0-.092.056 1.307 1.307 0 0 0-.243.211 1.499 1.499 0 0 0-.04.047q-.102.151-.08.352a.704.704 0 0 0 .002.01 1.064 1.064 0 0 0 .258.543 4.058 4.058 0 0 0 .258.262 3.164 3.164 0 0 0 .207.177 10.094 10.094 0 0 0 .517.388 17.799 17.799 0 0 0 .517.316 19.562 19.562 0 0 0 .077.045 23.383 23.383 0 0 1 1.111.646 5.017 5.017 0 0 1 .95.766 5.57 5.57 0 0 1 .058.061 5.56 5.56 0 0 1 1.37 2.196q.387 1.267.387 2.584 0 1.034-.362 1.99a6.275 6.275 0 0 1-1.008 1.783 7.216 7.216 0 0 1-3.565 2.428q-1.215.388-2.429.388a7.156 7.156 0 0 1-1.752-.224 8.004 8.004 0 0 1-.134-.034 6.793 6.793 0 0 1-2.17-.957 6.326 6.326 0 0 1-1.68-1.705 5.666 5.666 0 0 1-.853-2.144 6.286 6.286 0 0 1-.077-.982 5.627 5.627 0 0 1 .155-1.318q.49-2.093 2.222-3.488 1.731-1.395 3.798-1.68a5.912 5.912 0 0 1-.67-1.026 6.77 6.77 0 0 1-.131-.266 1.754 1.754 0 0 1-.13-.459q-.053-.402.101-.805a2.036 2.036 0 0 1 .08-.183 2.277 2.277 0 0 1 .618-.758 2.642 2.642 0 0 1 .055-.043 8.269 8.269 0 0 1 .713-.452 7.363 7.363 0 0 1 .165-.09q.956-.465 2.015-.672 1.06-.233 2.12-.362 1.24-.129 2.48-.155h.516q1.008 0 1.99.078h.155a.488.488 0 0 1 .154.025zm-9.095 6.537a5.149 5.149 0 0 0-1.344.18q-.672.181-1.292.518a5.42 5.42 0 0 0-1.886 1.705 3.643 3.643 0 0 0-.672 2.144v.259a4.86 4.86 0 0 0 .354 1.625 4.233 4.233 0 0 0 1.119 1.553 4.141 4.141 0 0 0 2.894 1.11q.207 0 .413-.025a5.48 5.48 0 0 0 2.807-.994 6.724 6.724 0 0 0 .268-.195 4.389 4.389 0 0 0 1.731-2.764 5.796 5.796 0 0 0 .05-.613 5.168 5.168 0 0 0 .002-.137 4.035 4.035 0 0 0-.361-1.68 4.558 4.558 0 0 0-1.55-1.86q-.543-.387-1.19-.594-.645-.232-1.343-.232z" vector-effect="non-scaling-stroke" style="fill:#000;stroke:#000;stroke-width:.0661458mm" transform="translate(-159.353 -79.061)"/>
</svg>
