<svg xmlns="http://www.w3.org/2000/svg" width="148.142" height="78.289" viewBox="0 0 39.196 20.714">
    <path d="m136.8 27.84.826 1.447q.733 1.221 1.618 2.767a231.506 231.506 0 0 1 .294.515q.724 1.214 1.447 2.454l1.266 2.17h-7.08l-.49-.826a69.574 69.574 0 0 0-.375-.657q-.333-.577-.736-1.255-.414-.698-.827-1.421l-.724-1.266-1.395 1.137a1754.584 1754.584 0 0 1-1.393 1.134l-1.785 1.45a294.506 294.506 0 0 1-2.403 1.963 2335.47 2335.47 0 0 0-.986.815l-.847.701a1294.808 1294.808 0 0 0-.26.215h-7.804l.905-.749a138.073 138.073 0 0 1 .434-.358q.616-.506 1.076-.87a48.78 48.78 0 0 1 .014-.012h-8.319v-.026a.165.165 0 0 1 .003-.03q.006-.03.023-.047l.052-.362a49.516 49.516 0 0 1 .029-.2l.08-.536a198.83 198.83 0 0 1 .046-.298 241.981 241.981 0 0 0 .097-.657q.133-.912.309-2.156a817.373 817.373 0 0 0 .059-.417 664.11 664.11 0 0 0 .316-2.08 794.679 794.679 0 0 0 .33-2.209 514.143 514.143 0 0 0 .698-4.677q.31-2.02.545-3.621a334.316 334.316 0 0 0 .075-.513h19.947l.361.646a100.853 100.853 0 0 1 .407.685 137.407 137.407 0 0 1 .446.762 88.418 88.418 0 0 1 .636 1.094 84.085 84.085 0 0 1 .01.017q.31.543.543.956l.904-.723a580.14 580.14 0 0 1 .841-.695q.573-.473 1.227-1.01a100.097 100.097 0 0 0 1.55-1.267 75.98 75.98 0 0 1 .556-.459q.22-.18.424-.343a42.87 42.87 0 0 1 .39-.309h7.802l-.232.181a10.571 10.571 0 0 1-.128.112q-.143.123-.334.28a35.401 35.401 0 0 1-.184.15 153.942 153.942 0 0 0-.418.337q-.579.466-1.362 1.104a511.632 511.632 0 0 0-.261.213 162.303 162.303 0 0 1-1.312 1.086 193.496 193.496 0 0 1-1.401 1.137q-1.473 1.214-2.946 2.403a693.723 693.723 0 0 1-1.054.867l-.8.656a394.069 394.069 0 0 1-.73.595zm-11.654-7.829-.103.646q-.053.444-.131.986a65.678 65.678 0 0 1-.076.513q-.103.543-.18 1.111-.068.489-.134.882a18.809 18.809 0 0 1-.022.126h-6.925l-.103.671q-.103.672-.155 1.111h5.607l-.103.647q-.054.443-.131.985a65.678 65.678 0 0 1-.076.513q-.103.543-.18 1.111a120.65 120.65 0 0 0-.055.405l-.04.303a64.255 64.255 0 0 0-.035.274h-5.634l-.103.75q-.104.749-.181 1.265h7.157l.904-.749a150.306 150.306 0 0 1 .846-.695q.579-.473 1.247-1.01a126.78 126.78 0 0 1 1.576-1.292q.667-.533 1.2-.97a80.956 80.956 0 0 0 .17-.141l-.672-1.137a174.036 174.036 0 0 0-.517-.904l-.481-.83a303.187 303.187 0 0 0-.526-.902l-1.137-1.963a125.883 125.883 0 0 0-.408-.7q-.325-.553-.6-1.006z" vector-effect="non-scaling-stroke" style="fill:#000;stroke:#000;stroke-width:.0661458mm" transform="translate(-109.13 -18.594)"/>
</svg>
