<svg height="45.672" viewBox="0 0 25.469 12.084" width="96.26" xmlns="http://www.w3.org/2000/svg"><path d="m124.168 26.433.232.775q.217.748.525 1.676a67.547 67.547 0 0 0 .044.133q.206.671.413 1.37a222.219 222.219 0 0 1 .171.557l.146.482a125.272 125.272 0 0 1 .045.149h-5.348l-.052-.155a1.423 1.423 0 0 0 -.018-.074q-.057-.215-.267-.908a10.383 10.383 0 0 1 -.1-.297q-.087-.268-.184-.607a14.315 14.315 0 0 1 -.139-.42q-.06-.19-.122-.4a28.355 28.355 0 0 1 -.126-.447q-.75.569-1.189 1.447a3.822 3.822 0 0 0 -.465 1.86h-3.488q0-2.17 1.137-3.978a7.494 7.494 0 0 1 2.92-2.765l-.31-.982q-.196-.657-.355-1.18a125.69 125.69 0 0 0 -.137-.448h-1.653l.103-.904a181.789 181.789 0 0 0 .062-.446q.084-.619.141-1.074a62.213 62.213 0 0 0 .004-.03h5.943l.026.129q.051.129.31.956a78.898 78.898 0 0 1 .055.18l.203.673a48.855 48.855 0 0 0 .128.416l.122.392a95.272 95.272 0 0 0 .138.432 4.353 4.353 0 0 0 1.085-1.395q.413-.853.413-1.81h3.489a7.41 7.41 0 0 1 -1.086 3.928 8.011 8.011 0 0 1 -2.816 2.765zm-9.767-3.566-.13 1.06a142.018 142.018 0 0 0 -.089.731l-.064.543a70.102 70.102 0 0 0 -.053.483l-.052.31a23.964 23.964 0 0 1 -.019.237l-.016.176a11.695 11.695 0 0 1 -.016.155h-6.408l-.026.078q0 .066-.038.396a35.823 35.823 0 0 1 -.014.12 1.547 1.547 0 0 0 -.012.192 1.307 1.307 0 0 0 .348.894 1.256 1.256 0 0 0 .915.46 1.699 1.699 0 0 0 .119.005h1.473a3.306 3.306 0 0 0 1.214-.233 4.073 4.073 0 0 0 1.111-.594l-.052.362q-.022.309-.232 1.918a353.635 353.635 0 0 1 -.078.588 4.697 4.697 0 0 1 -1.11.62q-.595.207-1.19.207h-2.971a4.46 4.46 0 0 1 -1.557-.262 3.935 3.935 0 0 1 -1.595-1.108q-1.008-1.137-1.008-2.687 0-.31.026-.62l.078-.465a31.154 31.154 0 0 0 .035-.311l.023-.232a15.589 15.589 0 0 0 .02-.206v-.026a6.848 6.848 0 0 1 .413-1.628q.336-.775.8-1.473.88-1.24 2.223-2.015a5.463 5.463 0 0 1 2.816-.776h2.351a3.114 3.114 0 0 1 .986.15 2.577 2.577 0 0 1 1.133.755 2.643 2.643 0 0 1 .672 1.783q0 .206-.026.413zm-4.6-.646h-.774a.615.615 0 0 0 -.386.137.845.845 0 0 0 -.08.07.772.772 0 0 0 -.258.44v.103a1.55 1.55 0 0 0 -.012.068q-.028.192-.091.758v.078a.548.548 0 0 0 .129.362.508.508 0 0 0 .37.18.702.702 0 0 0 .043 0h.776q.284 0 .49-.18a.702.702 0 0 0 .164-.204.643.643 0 0 0 .069-.236l.026-.361a19.608 19.608 0 0 0 .035-.238l.023-.175a9.406 9.406 0 0 0 .02-.156v-.103a.539.539 0 0 0 -.022-.155.424.424 0 0 0 -.108-.181q-.15-.2-.396-.206a.633.633 0 0 0 -.017 0z" stroke="#000" stroke-width=".066146mm" transform="translate(-102.726 -19.616)"/></svg>