<svg xmlns="http://www.w3.org/2000/svg" width="73.31" height="73.308" viewBox="0 0 19.397 19.396">
    <path d="M159.428 25.248a21.586 21.586 0 0 0 .16.144q.184.163.442.388a96.605 96.605 0 0 0 .251.217v5.762l-.852.775h-3.333l-.853.775v.698l-.853.775h-6.744v-1.395h.776q.258-.259.775-.75v-1.162l.852-.775h1.318a21.586 21.586 0 0 1 .16-.144q.183-.163.442-.388a96.605 96.605 0 0 1 .25-.217v-3.954q.28-.228.833-.73a60.15 60.15 0 0 0 .02-.02h6.357zm-11.394 3.643-.853.775v2.093l-.852.775h-4.341l-.853-.775v-5.762q.28-.228.832-.73a60.15 60.15 0 0 0 .02-.02h7.365a21.586 21.586 0 0 0 .16.145q.183.163.441.388a96.605 96.605 0 0 0 .251.217v2.119l-.852.775zm-1.783-5.865v-6.331a1.02 1.02 0 0 1 .3-.74 1.23 1.23 0 0 1 .01-.009 1.02 1.02 0 0 1 .736-.31 1.236 1.236 0 0 1 .014 0h1.756a1.02 1.02 0 0 1 .74.3 1.23 1.23 0 0 1 .01.01 1.02 1.02 0 0 1 .31.736 1.236 1.236 0 0 1 0 .013v6.331a1.02 1.02 0 0 1-.3.74 1.23 1.23 0 0 1-.01.01 1.02 1.02 0 0 1-.735.309 1.236 1.236 0 0 1-.014 0h-1.758a1.02 1.02 0 0 1-.74-.3 1.23 1.23 0 0 1-.01-.01 1.02 1.02 0 0 1-.31-.735 1.236 1.236 0 0 1 0-.014zm5.039 0v-6.331a1.02 1.02 0 0 1 .3-.74 1.23 1.23 0 0 1 .01-.009 1.02 1.02 0 0 1 .735-.31 1.236 1.236 0 0 1 .014 0h1.731a1.02 1.02 0 0 1 .74.3 1.23 1.23 0 0 1 .01.01 1.02 1.02 0 0 1 .31.736 1.236 1.236 0 0 1 0 .013v6.331a1.02 1.02 0 0 1-.3.74 1.23 1.23 0 0 1-.01.01 1.02 1.02 0 0 1-.736.309 1.236 1.236 0 0 1-.014 0h-1.731a1.02 1.02 0 0 1-.74-.3 1.23 1.23 0 0 1-.01-.01 1.02 1.02 0 0 1-.31-.735 1.236 1.236 0 0 1 0-.014zm8.991-5.271v5.271a1.02 1.02 0 0 1-.3.74 1.23 1.23 0 0 1-.01.01q-.336.31-.775.31h-1.835a1.02 1.02 0 0 1-.74-.301 1.23 1.23 0 0 1-.01-.01 1.02 1.02 0 0 1-.31-.735 1.236 1.236 0 0 1 0-.014v-5.271a1.02 1.02 0 0 1 .301-.74 1.23 1.23 0 0 1 .01-.01 1.057 1.057 0 0 1 .328-.245.98.98 0 0 1 .422-.09h1.834a1.05 1.05 0 0 1 .722.285 1.396 1.396 0 0 1 .053.05 1.02 1.02 0 0 1 .31.736 1.236 1.236 0 0 1 0 .014zm-19.146 5.27v-5.27a1.02 1.02 0 0 1 .3-.74 1.23 1.23 0 0 1 .01-.01 1.057 1.057 0 0 1 .328-.245.98.98 0 0 1 .422-.09h1.834q.44 0 .75.336a1.02 1.02 0 0 1 .31.735 1.236 1.236 0 0 1 0 .014v5.271a1.02 1.02 0 0 1-.3.74 1.23 1.23 0 0 1-.01.01 1.02 1.02 0 0 1-.736.309 1.236 1.236 0 0 1-.014 0h-1.834a1.02 1.02 0 0 1-.74-.3 1.23 1.23 0 0 1-.01-.01 1.02 1.02 0 0 1-.31-.735 1.236 1.236 0 0 1 0-.014z" vector-effect="non-scaling-stroke" style="fill:#000;stroke:#000;stroke-width:.0661458mm" transform="translate(-141.01 -15.51)"/>
</svg>
