<svg xmlns="http://www.w3.org/2000/svg" width="80.295" height="68.33">
    <path d="M572.024 115.196h21.192q-.293 2.54-.78 7.714h-21.29q-.524 5.234-1.505 14.532a7355.423 7355.423 0 0 1-.644 6.074h17.481q-.293 2.54-.782 7.617h-17.48q-.823 8-2.332 22.183a17125.739 17125.739 0 0 1-.988 9.262h-12.11q1.074-10.547 3.32-31.445.293-2.539.782-7.617.523-5.309 1.504-14.567a5359.257 5359.257 0 0 1 .644-6.039q.293-2.636.781-7.714zm52.567 60.58a18.844 18.844 0 0 0 6.027-12.045 18.558 18.558 0 0 0 .102-1.924 15.901 15.901 0 0 0-1.469-6.768 16.176 16.176 0 0 0-5.469-6.543q3.321-2.636 5.567-6.347 2.148-3.71 2.636-8.106.098-1.074.098-2.148a16.128 16.128 0 0 0-4.199-11.133 16.248 16.248 0 0 0-6.193-4.384 17.844 17.844 0 0 0-6.6-1.183l-5.078.001h-12.891a971.429 971.429 0 0 1-.132 1.306l-.15 1.478a2019.66 2019.66 0 0 1-.206 2.001l-.293 2.93a26.708 26.708 0 0 1-.01.137q-.076.981-.247 2.298a77.907 77.907 0 0 1-.134.982l-.195 2.051a387.21 387.21 0 0 1-.03.286q-.287 2.76-.75 6.843l-.392 4.297a39.705 39.705 0 0 1-.07.648q-.04.344-.09.725a77.796 77.796 0 0 1-.133.971l-.098 1.367q-.146 1.391-.347 3.387a1549.449 1549.449 0 0 0-.14 1.398l-.294 2.832a37.614 37.614 0 0 1-.022.17q-.069.537-.179 1.277a127.563 127.563 0 0 1-.092.604l-.097 1.27a98.637 98.637 0 0 0-.123 1.165q-.134 1.355-.268 3.034a1101.907 1101.907 0 0 1-.586 4.98q-.39 3.613-.684 6.543l-.293 2.832a5.604 5.604 0 0 1-.005.24q-.009.208-.033.447a11.607 11.607 0 0 1-.059.485l-.098.683a971.429 971.429 0 0 1-.132 1.307q-.155 1.532-.356 3.48l-.293 2.928h17.969a22.908 22.908 0 0 0 15.136-5.566 25.271 25.271 0 0 0 1.395-1.236zm-6.57-12.729q.097-.976.097-1.953 0-1.66-.39-3.223a16.22 16.22 0 0 0-.607-1.986q-.39-1.029-.9-1.87a9.579 9.579 0 0 0-.154-.245l-.488-.489a3.486 3.486 0 0 0-.25-.329 4.457 4.457 0 0 0-.238-.256 8.272 8.272 0 0 0-1.758-1.172 4.404 4.404 0 0 0-1.08-.316 5.999 5.999 0 0 0-.97-.075h-7.813l-.489 4.492q-.488 4.492-.78 7.422l-.489 4.492q-.488 4.492-.78 7.52h7.909q2.814 0 5.256-2.68a14.036 14.036 0 0 0 .701-.836 16.247 16.247 0 0 0 2.731-5.81 20.674 20.674 0 0 0 .492-2.686zm-13.086-19.53h7.226a4.181 4.181 0 0 0 1.428-.259 4.957 4.957 0 0 0 .33-.133 5.276 5.276 0 0 0 .99-.453 7.004 7.004 0 0 0 .768-.523 9.976 9.976 0 0 0 1.635-1.63q.646-.802 1.226-1.804a17.731 17.731 0 0 0 .264-.473 15.493 15.493 0 0 0 1.641-5.567 17.572 17.572 0 0 0 .02-.194 19.673 19.673 0 0 0 .087-1.297 16.666 16.666 0 0 0 .01-.559 14.289 14.289 0 0 0-.262-2.804 10.372 10.372 0 0 0-1.106-3.055 7.876 7.876 0 0 0-1.122-1.594 4.812 4.812 0 0 0-3.663-1.629h-7.129l-.488 4.102q-.38 4.002-.669 6.703a319.25 319.25 0 0 1-.015.133v.293a.941.941 0 0 0-.078.22.798.798 0 0 0-.019.17l-.39 3.907a1093.608 1093.608 0 0 1-.28 2.691q-.22 2.106-.404 3.754z" vector-effect="non-scaling-stroke" transform="translate(-552.263 -114.722)" stroke-linecap="round" fill-rule="evenodd" font-size="12" stroke="#000" stroke-width=".945" style="fill:#000;stroke:#000;stroke-width:.25mm"/>
</svg>
