<svg xmlns="http://www.w3.org/2000/svg" width="77.019" height="77.124">
    <path d="m1419.077 139.737-.098-.098q-.097-.098-.195-.098-.073 0-.2-.055a1.728 1.728 0 0 1-.093-.042q.098.097.195.097h.098q.098 0 .195.098l.098.098q.098 0 .195.097a1.843 1.843 0 0 0-.584-.097h-2.636q-2.149 0-4.2.39-2.148.39-4.1 1.075a24.646 24.646 0 0 0-5.275 2.539 20.439 20.439 0 0 0-4.296 3.613 6.05 6.05 0 0 0-.01.015 5.56 5.56 0 0 0-.286.96q-.098.587-.293 1.076-.098.586-.293 1.074a38.811 38.811 0 0 1-.098.56 29.799 29.799 0 0 1-.098.514q.068-.068.183-.088a.623.623 0 0 1 .11-.01 1.783 1.783 0 0 0 .118-.064q.11-.065.175-.131a20.77 20.77 0 0 1 .598-.37 18.115 18.115 0 0 1 2.137-1.095q1.367-.683 2.832-.976a336.404 336.404 0 0 1 .104-.02 365.297 365.297 0 0 1 3.314-.566 62.447 62.447 0 0 1 3.613-.293q.488-.05.952-.05a8.177 8.177 0 0 1 .903.05 9.499 9.499 0 0 1 .363.007 8.337 8.337 0 0 1 1.493.188l1.758.39 1.757.39q.88.197 1.758.49a17.003 17.003 0 0 1 .122.037 15.517 15.517 0 0 1 1.734.646 16.219 16.219 0 0 1 1.855.879 8.656 8.656 0 0 1 .424.283 7.336 7.336 0 0 1 .943.79h-.195l.098.099a4.631 4.631 0 0 0-.38-.133 5.552 5.552 0 0 0-.694-.16l-.977-.195q-1.563-.293-3.125-.49-1.465-.194-2.93-.291a26.288 26.288 0 0 0-1.313-.033 28.375 28.375 0 0 0-2.69.13 30.404 30.404 0 0 0-.515.054 33.537 33.537 0 0 0-3.685.63 31.984 31.984 0 0 0-3.32.976 28.142 28.142 0 0 0-3.223 1.367 21.627 21.627 0 0 0-.712.352 18.861 18.861 0 0 0-2.315 1.406 14.576 14.576 0 0 0-2.637 2.246 14.354 14.354 0 0 0-.09.446 16.323 16.323 0 0 0-.203 1.41q-.195.976-.293 1.953-.195.977-.293 1.953a157.271 157.271 0 0 0-.097.903 183.862 183.862 0 0 0-.098.953.717.717 0 0 1 .08-.07q.045-.032.1-.065a1.801 1.801 0 0 1 .113-.061q.098 0 .195-.097a15.728 15.728 0 0 1 2.344-1.758 18.041 18.041 0 0 1 .367-.178 19.902 19.902 0 0 1 2.563-.994q1.757-.488 3.418-.781 1.757-.391 3.515-.49 1.953-.096 4.004-.096a43.237 43.237 0 0 1 4.102.195q2.05.195 4.101.78 2.051.49 4.004 1.369h-.488q.098.097.195.097.098 0 .196.098a7.117 7.117 0 0 0-1.172-.098 7.615 7.615 0 0 0-.562-.073 5.671 5.671 0 0 0-.513-.024q-1.562 0-3.125-.098h-3.613q-2.05 0-4.004.293a18.746 18.746 0 0 0-.243.026 16.972 16.972 0 0 0-3.468.755 33.996 33.996 0 0 0-.243.074 31.034 31.034 0 0 0-3.468 1.293 24.099 24.099 0 0 0-.755.35 21.015 21.015 0 0 0-2.467 1.408 22.519 22.519 0 0 0-3.028 2.05 20.865 20.865 0 0 0-2.734 2.638v2.343a16.547 16.547 0 0 0-.049 1.27 16.547 16.547 0 0 0 .05 1.269v2.539q0 1.27.097 2.54v.097h-.098a.144.144 0 0 1 0 .036q-.016.062-.094.062v-.098h-.097a7.612 7.612 0 0 1-.702-.548 6.102 6.102 0 0 1-1.25-1.503 7.811 7.811 0 0 1-.256-.445 8.384 8.384 0 0 1-.82-2.387 128.065 128.065 0 0 0-.293-1.513 105.651 105.651 0 0 0-.293-1.416 55.302 55.302 0 0 1-.17-1.416 44.235 44.235 0 0 1-.123-1.32q-.085-.94-.096-1.131a.809.809 0 0 1 0-.04v-.195q-.88-.781-1.66-1.66a38.056 38.056 0 0 1-.056-.05 41.279 41.279 0 0 1-1.703-1.61l-1.953-1.367a26.176 26.176 0 0 0-.922-.561 20.793 20.793 0 0 0-1.129-.611 19.524 19.524 0 0 0-.147-.073 17.797 17.797 0 0 0-2.197-.904q-1.269-.488-2.44-.683-1.075-.196-2.345-.293a26.995 26.995 0 0 0-1.063-.067 33.862 33.862 0 0 0-1.476-.031h-.488.097l.098-.098h-.195a1.783 1.783 0 0 0 .117-.064q.11-.065.176-.131a.687.687 0 0 0 .064-.003q.058-.005.106-.021a.306.306 0 0 0 .123-.074 4.394 4.394 0 0 1 .462-.353 4.761 4.761 0 0 1 1.393-.623 9.7 9.7 0 0 1 .122-.036 10.447 10.447 0 0 1 1.93-.355 20.705 20.705 0 0 1 1.158-.133 16.181 16.181 0 0 1 1.38-.062 14.233 14.233 0 0 1 2.344.195 24.807 24.807 0 0 1 .291.05 22.471 22.471 0 0 1 1.955.438q1.074.293 2.148.782l1.953.976 1.953.977q0-.098.098-.196v-.195a6.293 6.293 0 0 1-.049-.781 6.293 6.293 0 0 1 .05-.781 15.018 15.018 0 0 1 .01-.54 12.725 12.725 0 0 1 .087-1.12 96.273 96.273 0 0 1 .195-.953 82.76 82.76 0 0 1 .195-.903q.196-.977.49-1.953-1.466-1.953-3.224-3.32-1.66-1.27-3.613-1.954a26.277 26.277 0 0 0-1.31-.337 30.589 30.589 0 0 0-3.085-.541 35.732 35.732 0 0 0-.59-.045q-1.29-.086-2.665-.086a46.623 46.623 0 0 0-1.725.033q.097 0 .195-.098h.098-.293l.39-.195a.687.687 0 0 0 .065-.003q.058-.005.106-.021a.306.306 0 0 0 .122-.074l1.367-.683q.428-.122.78-.206a10.845 10.845 0 0 1 .392-.087 59.729 59.729 0 0 1 .806-.196 70.603 70.603 0 0 1 .855-.195 51.459 51.459 0 0 1 .024-.003q.386-.048.82-.096a85.276 85.276 0 0 1 .913-.096h1.465q.88 0 1.758.097a7.652 7.652 0 0 1 .353.008 6.641 6.641 0 0 1 1.307.188 5.994 5.994 0 0 1 .05.006 5.383 5.383 0 0 1 1.415.384 11.469 11.469 0 0 1 1.367.489 8.271 8.271 0 0 1 .073.024 8.998 8.998 0 0 1 1.1.464 18.189 18.189 0 0 1 .433.224 14.755 14.755 0 0 1 .64.362l1.172.78a.144.144 0 0 1 0-.035q.016-.062.094-.062v-.097q0-.488.195-1.074a6.765 6.765 0 0 1 0-.008q.05-.245.122-.513a10.623 10.623 0 0 1 .17-.554q.683-1.757.78-2.05l.098-.293a5.562 5.562 0 0 0-.326-.708 7.05 7.05 0 0 0-.553-.855 8.656 8.656 0 0 0-.282-.424 7.336 7.336 0 0 0-.792-.943 20.518 20.518 0 0 0-.299-.293 23.244 23.244 0 0 0-.97-.88l-1.368-.975a24.269 24.269 0 0 0-.098-.073 22.222 22.222 0 0 0-1.464-1.002q-.782-.39-1.66-.586a12.04 12.04 0 0 0-.72-.192 9.708 9.708 0 0 0-1.136-.198 82.76 82.76 0 0 0-.903-.196 96.273 96.273 0 0 0-.952-.195h.097m55.078 20.8v1.27a20.859 20.859 0 0 1-.152 2.572 17.314 17.314 0 0 1-.238 1.432 16.414 16.414 0 0 1-1.368 3.516 14.449 14.449 0 0 1-2.035 2.895 16.202 16.202 0 0 1-.21.23 16.64 16.64 0 0 1-2.545 2.346 18.974 18.974 0 0 1-.678.486 26.118 26.118 0 0 1-3.13 2.175 28.867 28.867 0 0 1-.288.169 36.999 36.999 0 0 1-3.613 1.758q-1.954.878-3.907 1.562t-3.906 1.172a55.96 55.96 0 0 1-3.685.876 50.81 50.81 0 0 1-.514.1l-4.102.977-4.1.78q-2.15.294-4.298.392a53.175 53.175 0 0 0 .331 2.566 45.637 45.637 0 0 0 .157.95 47.33 47.33 0 0 0 .315 2.324 40.305 40.305 0 0 0 .173.996h-12.011a21.924 21.924 0 0 1-.657-2.068 26.58 26.58 0 0 1-.32-1.35 23.103 23.103 0 0 1-.532-2.682 27.604 27.604 0 0 1-.152-1.322q-2.539-.488-5.078-1.172a58.137 58.137 0 0 1-5.078-1.758q-2.539-.976-4.687-2.343a21.865 21.865 0 0 1-3.907-2.93q-2.343-2.051-3.71-4.395a14.754 14.754 0 0 1-1.758-5.078 93.172 93.172 0 0 0-.098-.757 76.542 76.542 0 0 0-.098-.708q-.097-.683-.097-1.367-.098-1.074-.098-2.148a19.617 19.617 0 0 1 .098-1.953q.097-2.051.488-4.102.684-3.81 2.54-7.227a28.217 28.217 0 0 1 3.7-5.355 32.783 32.783 0 0 1 1.182-1.285 71.573 71.573 0 0 1 6.055-5.762 83.611 83.611 0 0 1 5.438-4.102 75.074 75.074 0 0 1 1.007-.683 157.283 157.283 0 0 1 6.934-4.492 203.258 203.258 0 0 1 7.226-4.102 134.287 134.287 0 0 1 7.617-3.613 161.817 161.817 0 0 1 7.715-3.32q2.734 3.906 5.762 7.714 3.027 3.809 6.25 7.422a57.12 57.12 0 0 1 5.664 7.715q2.54 4.102 4.394 8.496a80.466 80.466 0 0 1 1.465 3.516q.684 1.855 1.27 3.613a16.743 16.743 0 0 1 .86 2.838 15.57 15.57 0 0 1 .02.092q.292 1.562.39 3.125zm-18.75-20.214h.294a8.998 8.998 0 0 0-1.098-.463 8.271 8.271 0 0 0-.074-.025 8.998 8.998 0 0 0-1.098-.464 8.271 8.271 0 0 0-.073-.025 27.588 27.588 0 0 0-.61-.195 34.066 34.066 0 0 0-.66-.195 49.508 49.508 0 0 0-.61-.098 62.036 62.036 0 0 0-.66-.097 19.312 19.312 0 0 0-2.734-.196 41.482 41.482 0 0 0-2.106.055 46.154 46.154 0 0 0-.726.043 28.213 28.213 0 0 0-2.142.245 25.444 25.444 0 0 0-.299.048 21.61 21.61 0 0 0-1.51.404 17.749 17.749 0 0 0-.834.279 7.738 7.738 0 0 0-1.66.782q-.879.39-1.563.976l-.39.196a1.33 1.33 0 0 0-.299.14 1.128 1.128 0 0 0-.19.153 3.052 3.052 0 0 1 .001-.05q0-.36.097-.634.195-.391.293-.781-.195.39-.293.78-.195.392-.293.782h.098a.144.144 0 0 1 0-.036q.016-.061.093-.061.586-1.856 1.27-3.614.586-1.855 1.27-3.613l.976-2.54a115.11 115.11 0 0 0 .854-2.296 126.807 126.807 0 0 0 .123-.34 12.091 12.091 0 0 1 .215-.504q.116-.255.254-.533a19.461 19.461 0 0 1 .02-.037 22.027 22.027 0 0 1 .194-.562 17.31 17.31 0 0 1 .195-.512q-.097.097-.097.195l-.196.195a.306.306 0 0 0 .074-.122q.016-.048.021-.106a.687.687 0 0 0 0-.065q0-.097.098-.195a31.573 31.573 0 0 0-.366.562 22.971 22.971 0 0 0-.318.512 22.971 22.971 0 0 1-.317.513 31.573 31.573 0 0 1-.366.562l.586-.782a4.869 4.869 0 0 1 .314-.537 5.773 5.773 0 0 1 .174-.244.306.306 0 0 0 .073-.122q.016-.048.022-.107a.687.687 0 0 0 0-.064q.066-.066.132-.175a1.783 1.783 0 0 0 .064-.118 73.333 73.333 0 0 0-2.637 3.613 89.767 89.767 0 0 0-1.758 2.747 100.441 100.441 0 0 0-.586.964q-.976 1.66-1.855 3.418-.879 1.66-1.563 3.418l-.195.39-.195.392a9.299 9.299 0 0 0-.47-.33 11.706 11.706 0 0 0-.409-.256 14.755 14.755 0 0 0-.64-.362 18.189 18.189 0 0 0-.434-.224 41.201 41.201 0 0 1-.318-.183q-.417-.244-.637-.388a4.887 4.887 0 0 1-.022-.015 6.903 6.903 0 0 0-.136-.067q-.268-.126-.349-.13a10.943 10.943 0 0 0-2.442-.878q-1.269-.39-2.636-.488a14.402 14.402 0 0 0-1.197-.05 16.234 16.234 0 0 0-1.245.05 6.742 6.742 0 0 0-2.246.586.941.941 0 0 1-.22.079.798.798 0 0 1-.17.019q-.075 0-.208.057a1.757 1.757 0 0 0-.085.04h.195q0 .078-.062.094a.144.144 0 0 1-.036.004m40.82 24.316a10.623 10.623 0 0 0-.553-.168q-.268-.074-.513-.123a6.765 6.765 0 0 0-.01-.001 7.712 7.712 0 0 0-1.172-.293q.336.083.744.24a9.659 9.659 0 0 1 .135.053q.391.097.782.293h.586zm.782-11.425h-.294q-.066-.066-.176-.132a1.783 1.783 0 0 0-.117-.064l-.195-.195.39.195zm-29.688 13.379a1.021 1.021 0 0 0-.04.09.831.831 0 0 0-.057.3h.097v-.781zm-11.62-26.27h.487-.78.097zm6.554 24.716a.623.623 0 0 0-.11-.01.687.687 0 0 1 .065.004q.058.006.106.022a.306.306 0 0 1 .122.073 1.783 1.783 0 0 1 .118.064q.11.065.175.13v-.097q-.073 0-.2-.054a1.728 1.728 0 0 1-.093-.043q-.067-.068-.183-.09zm7.41-12.118v-.196q.098-.097.098-.195v.391zm-4.59-.391q.098 0 .195.098h.098v.097q-.098-.097-.195-.097 0-.078-.062-.094a.144.144 0 0 0-.036-.004zm3.906-9.668h.098v.098-.098zm27.93 10.449q-.077 0-.093-.061a.144.144 0 0 1-.01-.036q.078 0 .094.06a.144.144 0 0 1 0 .037zm-5.176-12.402h-.097q-.078 0-.094-.061a.144.144 0 0 1 0-.037" vector-effect="non-scaling-stroke" transform="translate(-1361.18 -114.745)" stroke-linecap="round" fill-rule="evenodd" font-size="12" stroke="#000" stroke-width=".945" style="fill:#000;stroke:#000;stroke-width:.25mm"/>
</svg>
