<svg xmlns="http://www.w3.org/2000/svg" width="43.524" height="68.331" viewBox="0 0 11.516 18.079">
    <path d="M113.938 63.151a2.444 2.444 0 0 0 .708.1h6.278q-.102-.16-.228-.345a18.601 18.601 0 0 0-.211-.301l-.517-.724q-.203-.305-.382-.57a65.32 65.32 0 0 0-.264-.386l-.31-.413a14.02 14.02 0 0 0 .695-.9 16.793 16.793 0 0 0 1.062-1.71 17.257 17.257 0 0 0 1.37-3.152h-5.452a21.031 21.031 0 0 0 .192.292q.229.34.531.767l.44.62a19.293 19.293 0 0 1-.28.674q-.434.994-.883 1.678a6.711 6.711 0 0 1-.133.195q-.35.493-.611.643a.43.43 0 0 1-.212.066q-.414 0-.414-1.034a7.679 7.679 0 0 1 .043-.774q.043-.42.128-.903a18.856 18.856 0 0 1 .191-.932q-.414-.595-.698-1.034a17.297 17.297 0 0 1-.19-.257q-.18-.25-.3-.44-.379-.546-.5-.717a3.526 3.526 0 0 0-.043-.059l-.078-.103h2.558a28.11 28.11 0 0 1 .198-.558q.275-.752.564-1.4a15.038 15.038 0 0 1 .608-1.22 9.587 9.587 0 0 1 .197-.32q.43-.664.744-.862a.472.472 0 0 1 .247-.084q.442 0 .418 1.143a6.397 6.397 0 0 1-.004.123 9.897 9.897 0 0 1-.07.82q-.065.528-.187 1.131a22.883 22.883 0 0 1-.286 1.227h3.694a20.644 20.644 0 0 0 .028-.116q.2-.867.302-1.66a12.518 12.518 0 0 0 .11-1.609 9.265 9.265 0 0 0-.051-.99 7.245 7.245 0 0 0-.259-1.31 5.922 5.922 0 0 0-.106-.322q-.202-.554-.484-.955a2.338 2.338 0 0 0-2.02-1.048h-6.278q.101.16.228.344a18.601 18.601 0 0 0 .211.302l.517.723q.203.306.382.57a65.32 65.32 0 0 0 .264.387l.31.413a15.188 15.188 0 0 0-.734.962 18.364 18.364 0 0 0-1.127 1.829 16.905 16.905 0 0 0-1.42 3.384q-.698 2.3-.698 4.238v.155q.015 1.196.267 2.093a4.436 4.436 0 0 0 .456 1.085 3.067 3.067 0 0 0 .175.277 2.455 2.455 0 0 0 .755.705 2.084 2.084 0 0 0 .559.262z" vector-effect="non-scaling-stroke" style="fill:#000;stroke:#000;stroke-width:.0661458mm" transform="translate(-111.6 -45.296)"/>
</svg>
