<svg xmlns="http://www.w3.org/2000/svg" width="63.824" height="77.035" viewBox="0 0 16.887 20.382">
    <path d="M344.631 101.713a116.13 116.13 0 0 0 .263-.7 3253.687 3253.687 0 0 1-2.11 2.543q-1.012 1.218-1.939 2.33a1837.405 1837.405 0 0 1-2.1 2.517l-4.393 5.297q2.003-.549 3.682-1.007a1932.046 1932.046 0 0 1 1.9-.517 431.938 431.938 0 0 0 .027-.008q1.766-.48 3.102-.86a155.929 155.929 0 0 0 .85-.243q-.679 2.131-1.256 3.92a631.692 631.692 0 0 1-.656 2.022 1034.447 1034.447 0 0 0-.04.122q-.595 1.824-1.041 3.211a379.489 379.489 0 0 0-.289.905q3.333-4.806 5.814-8.398 1.88-2.693 3.28-4.719a713.221 713.221 0 0 0 .88-1.275q-1.825.42-3.368.78a822.357 822.357 0 0 0-1.748.408 264.227 264.227 0 0 0-.217.049q-1.512.34-2.656.615a94.816 94.816 0 0 0-.77.189q1.007-2.635 1.782-4.6a323.855 323.855 0 0 0 .038-.094q.557-1.414.965-2.487z" vector-effect="non-scaling-stroke" style="fill:#000;stroke:#000;stroke-width:.0661458mm" transform="translate(-334.003 -100.934)"/>
</svg>
