<svg height="68.327" viewBox="0 0 14.135 18.078" width="53.424" xmlns="http://www.w3.org/2000/svg"><path d="m121.794 44.45a195.908 195.908 0 0 0 -.42-.508h8.113a1013.209 1013.209 0 0 0 -.238 1.311q-.246 1.355-.416 2.317a218.92 218.92 0 0 0 -.147.842h-4.444a4019.865 4019.865 0 0 0 -.467 2.611q-.713 4.002-1.109 6.277h3.514l.388-2.222h-1.757a6837.435 6837.435 0 0 1 .228-1.31l.547-3.135h2.713q-.517 2.972-.775 4.445-.601 3.352-.97 5.44a690.306 690.306 0 0 0 -.219 1.252h-5.4a13720.831 13720.831 0 0 0 .786-4.447q.81-4.587 1.38-7.834a2918.082 2918.082 0 0 0 .495-2.835q-1.104-1.356-1.802-2.204zm9.76 12.85h-1.756a1045.445 1045.445 0 0 0 .447-2.502q.51-2.867 1.218-6.924a4930.43 4930.43 0 0 0 .686-3.932h-.93a4065.553 4065.553 0 0 0 -.595 3.342q-.988 5.572-2.558 14.486h5.4a218.92 218.92 0 0 1 .147-.842q.17-.962.416-2.316a1013.209 1013.209 0 0 1 .238-1.312q.154-.87.46-2.655a1702.47 1702.47 0 0 0 .006-.032q-.811.692-2.243 1.9a1294.579 1294.579 0 0 1 -.935.787z" stroke="#000" stroke-width=".066146mm" transform="translate(-120.786 -43.817)"/></svg>