<svg xmlns="http://www.w3.org/2000/svg" width="77.079" height="73.327" viewBox="0 0 20.394 19.401">
    <path d="M144.467 23.523a139.094 139.094 0 0 0-.366.774q-.286.612-.512 1.112-.369.761-.597 1.289a17.76 17.76 0 0 0-.024.055q-.852.026-1.498.026h-1.06a130.176 130.176 0 0 0 .468-.923q.211-.421.395-.796a71.654 71.654 0 0 0 .12-.245q.417-.81.694-1.364a72.548 72.548 0 0 0 .029-.057 20.943 20.943 0 0 1-.199-.37q-.096-.183-.176-.346a10.667 10.667 0 0 1-.09-.188l-.336-.672-.052-.052q-.026-.026-.026-.052a33.18 33.18 0 0 1-.234-.432q-.105-.199-.197-.38a19.58 19.58 0 0 1-.06-.118 44.511 44.511 0 0 1-.098-.185q-.131-.25-.225-.435a15.002 15.002 0 0 1-.013-.026 120.313 120.313 0 0 0-.832-.015l-.632-.008a69.225 69.225 0 0 0-.577-.003q-.809-.023-1.349-.025a27.415 27.415 0 0 0-.123 0 42.35 42.35 0 0 1 .299-.588q.15-.289.288-.542a22.41 22.41 0 0 1 .162-.291 24.24 24.24 0 0 1 .15-.296q.204-.393.369-.673a7.988 7.988 0 0 1 .023-.04q.933.067 1.675.115a151.501 151.501 0 0 0 .237.015 33.685 33.685 0 0 1 .584.023q.456.022.812.054a120.924 120.924 0 0 1 .405.752q.183.343.343.65a67.414 67.414 0 0 1 .104.2 71.335 71.335 0 0 0 .175.335q.248.472.44.817a25.137 25.137 0 0 0 .005.011q0 .026.026.052 0 .026.026.051.491.93.853 1.628a141.819 141.819 0 0 1 .172.335q.231.447.398.781a48.573 48.573 0 0 1 .024.047zm-5.349-.672h-9.585l4.806 8.76q1.602-2.92 4.78-8.76zm-11.6-1.033a33.18 33.18 0 0 0-.235.432q-.105.2-.197.38a19.58 19.58 0 0 0-.06.118 44.511 44.511 0 0 0-.098.186q-.131.248-.225.434a15.002 15.002 0 0 0-.013.026q.391.781.709 1.429a135.32 135.32 0 0 1 .273.56q.437.822.72 1.389a35.158 35.158 0 0 1 .003.007 48.045 48.045 0 0 1-.606-.004q-.48-.006-.866-.022h-1.06q-.355-.746-.65-1.358a247.538 247.538 0 0 0-.254-.528 47.912 47.912 0 0 0-.175-.394q-.216-.483-.39-.838a15.759 15.759 0 0 0-.055-.112q.49-.93.852-1.628a71.335 71.335 0 0 1 .175-.334q.248-.472.44-.817a25.137 25.137 0 0 1 .005-.012q.026-.025.026-.051l.026-.052q.49-.93.853-1.628a252.395 252.395 0 0 1 .172-.332q.247-.475.422-.805a356.83 356.83 0 0 1 .793-.054l.6-.04a199.193 199.193 0 0 1 .545-.035 149.183 149.183 0 0 1 .395-.024q.53-.032.92-.05a49.858 49.858 0 0 1 .054-.003 391.501 391.501 0 0 1 .365.666l.314.577a223.504 223.504 0 0 1 .096.178 94.114 94.114 0 0 1 .218.42q.17.33.3.588a88.673 88.673 0 0 0-.964.004q-.438.005-.826.015a48.332 48.332 0 0 0-.252.006 52.148 52.148 0 0 0-.42.002q-.6.005-1.027.024a106.026 106.026 0 0 0-.202.37l-.152.28a59.34 59.34 0 0 0-.137.255q-.196.393-.346.645a5.328 5.328 0 0 1-.016.026l-.026.052q-.025.026-.025.052zm10.386 9.534q.44.775.75 1.395a94.114 94.114 0 0 1 .217.42q.17.33.3.588a151.155 151.155 0 0 0-.491.837q-.222.382-.417.723a83.753 83.753 0 0 0-.126.223q-.44.749-.75 1.266h-5.968a151.155 151.155 0 0 1-.49-.837q-.223-.382-.417-.723a83.753 83.753 0 0 1-.127-.223q-.454-.731-.735-1.24a15.289 15.289 0 0 1-.014-.026q.284-.568.52-1.027a66.96 66.96 0 0 1 .203-.394q.31-.594.543-.982a90.92 90.92 0 0 0 .478.9q.294.547.556 1.012a80.124 80.124 0 0 0 .211.396q.296.548.523.947a27.629 27.629 0 0 0 .015.026h3.436a242.267 242.267 0 0 1 .496-.9q.302-.546.564-1.011a430.442 430.442 0 0 0 .21-.396q.28-.53.484-.92a143.005 143.005 0 0 0 .03-.054z" vector-effect="non-scaling-stroke" style="fill:#000;stroke:#000;stroke-width:.0661458mm" transform="translate(-124.198 -17.528)"/>
</svg>
