<svg xmlns="http://www.w3.org/2000/svg" width="62.857" height="68.327" viewBox="0 0 16.631 18.078">
    <path d="M145.26 4.87a859.787 859.787 0 0 0 .969-.947q1.482-1.452 2.313-2.282h4.625v17.828h-4.625V11.2a580.262 580.262 0 0 1-.56.547q-.577.565-.99.964a126.342 126.342 0 0 1-.362.35 292.512 292.512 0 0 1-.56.557q-.858.853-1.352 1.328a1007.602 1007.602 0 0 0-.503-1.141q-.52-1.18-.897-2.022a225.837 225.837 0 0 0-.331-.738 23155.432 23155.432 0 0 0-.456 2.474l-.804 4.366a4976.424 4976.424 0 0 0-.29 1.583h-4.626q1.299-7.035 2.103-11.438a2155.924 2155.924 0 0 0 .481-2.644h-1.292a50.855 50.855 0 0 1 0-.003l.567-3.044a955.518 955.518 0 0 1 .131-.7h5.917a3678.72 3678.72 0 0 1 .16.948l.28 1.674a803.008 803.008 0 0 1 .103.608z" vector-effect="non-scaling-stroke" style="fill:#000;stroke:#000;stroke-width:.0661458mm" transform="translate(-136.661 -1.516)"/>
</svg>
