<svg xmlns="http://www.w3.org/2000/svg" width="74.963" height="80.144" viewBox="0 0 19.834 21.205">
    <path d="m134.533 53.594-.207.465-.258.413a9.988 9.988 0 0 1-.233.334 8.874 8.874 0 0 1-.077.105 9.988 9.988 0 0 1-.233.335 8.874 8.874 0 0 1-.077.105 7.063 7.063 0 0 1-.905.852 6.065 6.065 0 0 1-.858.556 6.846 6.846 0 0 1-.175.09 6.9 6.9 0 0 1-1.111.465q-.595.181-1.215.285a76.921 76.921 0 0 1-.44.038 87.46 87.46 0 0 1-.154.013 7.617 7.617 0 0 1-.521.025 8.547 8.547 0 0 1-.125.001 9.075 9.075 0 0 1-1.783-.18q-.93-.182-1.912-.517a12.542 12.542 0 0 1-2.532-1.292 16.474 16.474 0 0 1-1.922-1.49 18.6 18.6 0 0 1-.43-.397q-.594-.594-1.11-1.214-.517-.646-.982-1.292a23.876 23.876 0 0 1-.663-1.116 21.253 21.253 0 0 1-.138-.253q-.362-.698-.646-1.396a14.515 14.515 0 0 1-.646-2.196 11.442 11.442 0 0 1-.207-2.144v-.414a3.416 3.416 0 0 0 .022-.236 2.762 2.762 0 0 0 .004-.151 8.444 8.444 0 0 1 .28-1.607 7.294 7.294 0 0 1 .262-.77q.414-1.06 1.189-1.964a8.191 8.191 0 0 1 .878-.853 6.702 6.702 0 0 1 1.008-.646 6.562 6.562 0 0 1 1.137-.465q.568-.18 1.189-.284.31-.052.62-.078h.62a10.538 10.538 0 0 1 1.783.155 12.616 12.616 0 0 1 1.602.436 14.069 14.069 0 0 1 .232.081 12.465 12.465 0 0 1 2.507 1.215 16.098 16.098 0 0 1 1.994 1.51 18.144 18.144 0 0 1 .357.324 10.616 10.616 0 0 0-1.255-.814 9.358 9.358 0 0 0-.425-.22 7.972 7.972 0 0 0-1.67-.619 7.425 7.425 0 0 0-.112-.026 8.321 8.321 0 0 0-1.3-.23 7.304 7.304 0 0 0-.458-.029 7.546 7.546 0 0 0-.235-.004 7.31 7.31 0 0 0-1.392.134 10.866 10.866 0 0 0-.801.232 3.904 3.904 0 0 0-.775.336 4.291 4.291 0 0 0-.698.439q-.31.233-.568.543a4.544 4.544 0 0 0-.905 1.447 4.96 4.96 0 0 0-.336 1.386 5.86 5.86 0 0 0-.026.422 6.77 6.77 0 0 0-.003.178 6.448 6.448 0 0 0 .235 1.734 6.671 6.671 0 0 0 .562 1.381 7.866 7.866 0 0 0 .265.454 7.247 7.247 0 0 0 .622.84 8.082 8.082 0 0 0 .102.116 8.005 8.005 0 0 0 .64.644 9.203 9.203 0 0 0 .238.209 6.877 6.877 0 0 0 1.034.8 8.217 8.217 0 0 0 .991.537 9.297 9.297 0 0 0 .249.11q-.207-.875-.25-1.114a1.401 1.401 0 0 1-.008-.05l-.052-.154a549.803 549.803 0 0 0-.162-.698 681.865 681.865 0 0 0-.174-.75q-.207-.749-.413-1.601l-.207-.93a13.86 13.86 0 0 1-.232-.905 63.554 63.554 0 0 0-.194-.8 58.255 58.255 0 0 0-.013-.052 9.043 9.043 0 0 0-.084-.42 7.005 7.005 0 0 0-.097-.381q-.017-.05-.023-.09a.268.268 0 0 1-.003-.04.457.457 0 0 1-.011-.024q-.015-.034-.015-.053-.017-.05-.022-.09a.268.268 0 0 1-.003-.04.477.477 0 0 0-.017-.029l-.017-.026a.19.19 0 0 0-.018-.022q.228.152.257.205a.053.053 0 0 1 0 .002l.026.026.31.31a8.375 8.375 0 0 0 .194.187 11.23 11.23 0 0 0 .22.2 159.24 159.24 0 0 1 .408.387q.21.198.442.42a276.718 276.718 0 0 1 .157.15 41.728 41.728 0 0 0 .607.594 56.757 56.757 0 0 0 .685.646 1479.254 1479.254 0 0 1 1.075 1.036 1646.861 1646.861 0 0 1 .372.359 3565.671 3565.671 0 0 1 1.524 1.473 2284.705 2284.705 0 0 0 1.318 1.266 45.708 45.708 0 0 0 1.318 1.266 979.443 979.443 0 0 0 .94.901 861.743 861.743 0 0 0 .3.287 752.257 752.257 0 0 0 .863.824 653.46 653.46 0 0 0 .274.262.897.897 0 0 1 .07.058q.033.03.058.06a.45.45 0 0 1 .027.037 1.879 1.879 0 0 0 .087.108 1.467 1.467 0 0 0 .068.072.922.922 0 0 1 .087.067 1.18 1.18 0 0 1 .068.063zm-4.587-1.617a13.552 13.552 0 0 0 .117.118l-1.085-.362q-.543-.18-1.086-.335l-.129-.026a.966.966 0 0 0-.036-.014q-.143-.05-.617-.19a79.953 79.953 0 0 0-.277-.08l-.207-.93a25.603 25.603 0 0 1-.031-.117 23.153 23.153 0 0 1-.201-.788l-.026-.13a4.855 4.855 0 0 1-.01-.041l-.17-.734.05.052a.03.03 0 0 1 .018.006q.017.011.035.046l.051.052q.026 0 .052.026l.362.361.413.414a7.85 7.85 0 0 1 .052.045 8.618 8.618 0 0 1 .362.342 11.147 11.147 0 0 1 .057.052 10.154 10.154 0 0 1 .382.362 31.367 31.367 0 0 0 .24.237 26.842 26.842 0 0 0 .51.486 160.874 160.874 0 0 0 .348.323 126.56 126.56 0 0 0 .323.297 85.8 85.8 0 0 0 .007.008q.305.324.496.52z" vector-effect="non-scaling-stroke" style="fill:#000;stroke:#000;stroke-width:.0661458mm" transform="translate(-114.848 -36.596)"/>
</svg>
