<svg height="67.644" width="77.085" xmlns="http://www.w3.org/2000/svg"><path d="m1702.34 145.005a60.896 60.896 0 0 0 -3.114-6.867 51.13 51.13 0 0 0 -2.16-3.68 45.438 45.438 0 0 0 -5.595-7.002 41.241 41.241 0 0 0 -1.437-1.397l-1.172-.976a20.748 20.748 0 0 0 -.924-.725 23.97 23.97 0 0 0 -.346-.252q-.195-.097-.292-.293l-.39-.195a11.379 11.379 0 0 1 -.52-.33 9.03 9.03 0 0 1 -.36-.256 11.379 11.379 0 0 1 -.518-.33 9.03 9.03 0 0 1 -.36-.256l-.392-.195a1.176 1.176 0 0 0 -.356-.242 1.444 1.444 0 0 0 -.132-.051 10.567 10.567 0 0 1 -.36-.19q-.183-.1-.383-.218a18.415 18.415 0 0 1 -.136-.08l-.976-.391a1.801 1.801 0 0 1 -.113-.061q-.056-.033-.1-.066a.717.717 0 0 1 -.08-.068 1.728 1.728 0 0 0 -.092-.043q-.128-.055-.2-.055-.099-.098-.197-.098-.097-.097-.195-.097 1.953.879 3.711 2.05a24.682 24.682 0 0 1 3.516 2.93q3.32 3.32 4.98 7.324a22.082 22.082 0 0 1 1.631 7.459 25.734 25.734 0 0 1 .03 1.233 24.045 24.045 0 0 1 -.682 5.81 20.928 20.928 0 0 1 -.979 2.979 22.131 22.131 0 0 1 -4.673 7.109 25.311 25.311 0 0 1 -.307.313 24.867 24.867 0 0 1 -4.739 3.643 21.797 21.797 0 0 1 -2.683 1.337q-4.004 1.66-8.789 1.66a23.24 23.24 0 0 1 -6.385-.857 21.044 21.044 0 0 1 -2.307-.803 22.917 22.917 0 0 1 -6.009-3.7 27.139 27.139 0 0 1 -1.412-1.28q-3.32-3.321-4.98-7.422-1.66-4.004-1.66-8.79a23.24 23.24 0 0 1 .857-6.384 21.044 21.044 0 0 1 .802-2.307 22.117 22.117 0 0 1 4.08-6.376 25.82 25.82 0 0 1 .9-.948 23.667 23.667 0 0 1 2.33-2.052 20.252 20.252 0 0 1 1.088-.78q1.856-1.27 3.711-2.051h-.097q-.098 0-.196.098-.074 0-.207.058a1.757 1.757 0 0 0 -.086.04q-.065.065-.175.13a1.783 1.783 0 0 1 -.118.065l-.976.39q-.488.294-.879.489a1.33 1.33 0 0 0 -.299.14 1.128 1.128 0 0 0 -.189.153l-.39.195a9.299 9.299 0 0 1 -.47.33 11.706 11.706 0 0 1 -.41.256 9.299 9.299 0 0 1 -.47.33 11.706 11.706 0 0 1 -.409.256 1.801 1.801 0 0 0 -.112.06q-.056.034-.1.067a.717.717 0 0 0 -.08.068 1.876 1.876 0 0 1 -.172.153q-.109.085-.219.14l-1.172.977a10.769 10.769 0 0 0 -.635.488 8.02 8.02 0 0 0 -.537.488q-4.004 3.614-7.129 8.399-3.027 4.687-5.273 10.547a56.019 56.019 0 0 0 4.165 7.989 50.649 50.649 0 0 0 1.108 1.679 41.737 41.737 0 0 0 7.13 7.617 29.316 29.316 0 0 0 5.734 3.848 26.027 26.027 0 0 0 2.566 1.132 24.979 24.979 0 0 0 9.082 1.66 25.501 25.501 0 0 0 8.096-1.27 24.089 24.089 0 0 0 1.083-.39 28.409 28.409 0 0 0 6.501-3.515 33.714 33.714 0 0 0 1.898-1.465 43.606 43.606 0 0 0 7.031-7.617 54.16 54.16 0 0 0 4.7-8.364 60.807 60.807 0 0 0 .574-1.304zm3.8 9.449a70.033 70.033 0 0 0 4.402-9.156 84.144 84.144 0 0 0 -1.9-4.788 69.975 69.975 0 0 0 -4.839-9.275 70.059 70.059 0 0 0 -.536-.824 62.995 62.995 0 0 0 -8.448-10.31 41.921 41.921 0 0 0 -3.59-3.031 33.294 33.294 0 0 0 -7.054-4.096 28.631 28.631 0 0 0 -11.622-2.442h-.097a28.631 28.631 0 0 0 -11.62 2.442 32.05 32.05 0 0 0 -4.946 2.625 39.835 39.835 0 0 0 -5.7 4.503 59.047 59.047 0 0 0 -1.23 1.243 64.132 64.132 0 0 0 -7.754 9.89 66.355 66.355 0 0 0 -2.779 4.907 79.338 79.338 0 0 0 -3.96 9.156 75.074 75.074 0 0 0 1.484 3.479 64.467 64.467 0 0 0 5.255 9.41 62.133 62.133 0 0 0 .125.18 56.265 56.265 0 0 0 8.86 9.978 43.568 43.568 0 0 0 2.894 2.302 36.252 36.252 0 0 0 7.75 4.338q5.566 2.246 11.621 2.246h.097q6.055 0 11.622-2.246 5.566-2.246 10.644-6.64a52.86 52.86 0 0 0 .31-.276 56.479 56.479 0 0 0 8.674-9.881 60.758 60.758 0 0 0 2.337-3.734zm-42.864-9.938a1.577 1.577 0 0 0 .042.014q.28.084.642.084a6.575 6.575 0 0 0 .084.028q.264.084.6.167h.683q1.562 0 2.93-.488 1.27-.586 2.343-1.758a8.602 8.602 0 0 0 .676-.69 6.951 6.951 0 0 0 1.082-1.653 8.082 8.082 0 0 0 .196-.63 8.864 8.864 0 0 0 .292-2.3 7.652 7.652 0 0 0 -.01-.353 6.641 6.641 0 0 0 -.187-1.307 3.899 3.899 0 0 0 -.488-1.465q-.195-.391-.39-.732a10.849 10.849 0 0 0 -.39-.635q-.49-.586-1.076-1.074.193-.065.343-.087a1.009 1.009 0 0 1 .146-.011l.586-.195h.488a2.555 2.555 0 0 1 0-.001 1.843 1.843 0 0 1 .584-.097 11.651 11.651 0 0 1 .3.004 10.13 10.13 0 0 1 3.704.777q1.855.78 3.32 2.246a12.011 12.011 0 0 1 .84.996 9.739 9.739 0 0 1 1.308 2.325 9.964 9.964 0 0 1 .782 3.906 11.651 11.651 0 0 1 0 .3 10.13 10.13 0 0 1 -.778 3.704 9.115 9.115 0 0 1 -2.148 3.32q-1.465 1.465-3.32 2.246-1.856.684-4.004.684a12.401 12.401 0 0 1 -.437-.008 10.913 10.913 0 0 1 -2.884-.481q-1.562-.585-2.929-1.66-1.367-1.074-2.246-2.441a12.025 12.025 0 0 1 -1.368-2.93 13.021 13.021 0 0 1 .108.028q.324.084.576.168z" fill-rule="evenodd" stroke="#000" stroke-linecap="round" stroke-width=".25mm" transform="translate(-1633.962 -110.059)"/></svg>