<svg height="90.964" viewBox="0 0 17.267 24.068" width="65.263" xmlns="http://www.w3.org/2000/svg"><path d="m158.471 9.057-.568.8a50.133 50.133 0 0 1 -.307.442q-.494.702-1.192 1.652a135.245 135.245 0 0 1 -.491.704 178.157 178.157 0 0 1 -.542.769 64.509 64.509 0 0 0 -1.137 1.601q-1.111 1.55-2.248 3.101a715.347 715.347 0 0 0 -.794 1.128q-.627.894-1.144 1.637l-.181-.259-.353-.501a400.899 400.899 0 0 0 -.138-.196q-.594-.801-1.55-2.145a14829.195 14829.195 0 0 0 -.988-1.389 17940.046 17940.046 0 0 0 -1.054-1.479 491.429 491.429 0 0 0 -2.221-3.126 8878.185 8878.185 0 0 0 -.923-1.288l-1.041-1.451.18-.259q.181-.232.492-.671a53.2 53.2 0 0 1 .31-.446q.346-.493.802-1.123a166.089 166.089 0 0 1 .438-.602 14829.195 14829.195 0 0 1 .988-1.389 17940.046 17940.046 0 0 1 1.053-1.479l2.222-3.1a237.986 237.986 0 0 1 .797-1.124q.634-.888 1.167-1.615l.18.232a6.008 6.008 0 0 0 .088.14q.145.229.378.558a356.606 356.606 0 0 0 .32.444q.44.612 1.032 1.428a1107.324 1107.324 0 0 0 .198.273 14829.195 14829.195 0 0 0 .988 1.388 17940.046 17940.046 0 0 0 1.053 1.48q1.137 1.576 2.248 3.126a304.407 304.407 0 0 1 .918 1.287q.416.588.782 1.11a167.473 167.473 0 0 1 .238.342zm-6.484 1.146a256.716 256.716 0 0 0 -.26-.448l2.636-.698-2.636-.698a1156.9 1156.9 0 0 1 .4-.696q.413-.72.71-1.232a256.716 256.716 0 0 1 .26-.449 1153.813 1153.813 0 0 1 -.014.008q-1.134.673-1.837 1.087a235.276 235.276 0 0 1 -.423.249q-.517-3.256-.775-4.91a9136.047 9136.047 0 0 1 -.228 1.448l-.547 3.462a325.517 325.517 0 0 1 -.674-.39q-1.033-.598-1.626-.954.698 1.182 1.12 1.928a41.07 41.07 0 0 1 .25.45l-2.636.697 2.635.698a1156.9 1156.9 0 0 1 -.4.696l-.709 1.232a256.716 256.716 0 0 1 -.26.449 296.134 296.134 0 0 1 .674-.399q.695-.41 1.191-.696a63.756 63.756 0 0 1 .435-.249 4485.985 4485.985 0 0 1 .228 1.438q.35 2.205.547 3.471a9136.047 9136.047 0 0 1 .228-1.447l.547-3.462a179.027 179.027 0 0 1 .672.389q.692.403 1.179.696a38.306 38.306 0 0 1 .423.259 1156.9 1156.9 0 0 0 -.4-.697q-.413-.719-.71-1.232zm-1.939 8.466 1.033-1.473q1.06-1.473 2.43-3.36a328.968 328.968 0 0 1 1.808-2.557 342.666 342.666 0 0 1 .752-1.048q.343-.477.65-.9a189.363 189.363 0 0 1 .2-.274l-1.06-1.473q-1.059-1.473-2.403-3.385a233.637 233.637 0 0 1 -1.834-2.532 465.222 465.222 0 0 1 -.645-.906l-.489-.688a264.65 264.65 0 0 1 -.442-.628l-1.06 1.473q-.91 1.266-2.03 2.836a1225.591 1225.591 0 0 0 -.372.523q-.93 1.292-1.835 2.558a465.222 465.222 0 0 0 -.646.906l-.487.688a264.65 264.65 0 0 0 -.443.628l1.033 1.473q.91 1.265 2.05 2.855a2851.936 2851.936 0 0 1 .38.53l1.808 2.532a342.666 342.666 0 0 0 .752 1.048q.343.477.65.899a189.363 189.363 0 0 0 .2.275z" stroke="#000" stroke-width=".066146mm" transform="translate(-141.446 2.959)"/></svg>