<svg height="79.011" width="78.547" xmlns="http://www.w3.org/2000/svg"><path d="m1765.82 180.51a33.237 33.237 0 0 1 -4.883-1.171 44.803 44.803 0 0 1 -4.687-1.66 71.938 71.938 0 0 1 -4.358-1.984 66.272 66.272 0 0 1 -.134-.067 41.902 41.902 0 0 1 -4.102-2.343 40.768 40.768 0 0 1 -4.732-3.604 37.306 37.306 0 0 1 -.444-.4q-2.343-2.15-4.199-4.59-1.855-2.442-3.222-5.274a31.482 31.482 0 0 1 -2.344-5.957 31.249 31.249 0 0 0 2.61 2.484 34.849 34.849 0 0 0 .417.348 71.371 71.371 0 0 0 1.856 1.294 90.821 90.821 0 0 0 2.05 1.343q2.051 1.27 3.711 1.953a10.202 10.202 0 0 0 1.028.389q.528.166 1.002.238a4.671 4.671 0 0 0 .705.057q-1.66-2.15-3.223-4.59a173.188 173.188 0 0 1 -3.027-4.914 188.135 188.135 0 0 1 -.098-.164 20.483 20.483 0 0 1 -1.557-3.375 17.199 17.199 0 0 1 -.591-2.094 15.784 15.784 0 0 1 -.352-3.316 16.45 16.45 0 0 1 .156-2.25q.196-1.367.489-2.54a13.187 13.187 0 0 1 .32-1.51 11.081 11.081 0 0 1 .266-.833q.39-1.172.878-2.246a16.544 16.544 0 0 1 .729-1.204 21.671 21.671 0 0 1 .736-1.042q.782-1.075 1.66-2.15a59.543 59.543 0 0 1 1.954-2.05 27.742 27.742 0 0 1 2.05-1.855q1.075-.88 2.149-1.855a18.649 18.649 0 0 0 -1.19 1.83 15.672 15.672 0 0 0 -.568 1.099q-.781 1.367-1.27 2.832a10.465 10.465 0 0 0 -.55 2.494 11.922 11.922 0 0 0 -.035.436q-.086 1.367.202 2.809a12.559 12.559 0 0 0 .09.414 5.145 5.145 0 0 0 .187.857 6.977 6.977 0 0 0 .302.803 6.884 6.884 0 0 0 .352.779q.197.374.452.768a11.513 11.513 0 0 0 .075.113q.586.976 1.074 1.66a22.383 22.383 0 0 0 .717.95 19.352 19.352 0 0 0 .259.32 8.915 8.915 0 0 0 .612.659 11.442 11.442 0 0 0 .56.512 21.84 21.84 0 0 0 .934.879 24.733 24.733 0 0 0 .336.293q.683.586 1.367 1.075a12.806 12.806 0 0 0 .745.433q.371.198.717.347a5.923 5.923 0 0 0 0 0 11.793 11.793 0 0 1 -.275-.591q-.155-.36-.311-.775a11.469 11.469 0 0 1 -.488-1.368 9.446 9.446 0 0 1 -.412-1.175 10.686 10.686 0 0 1 -.077-.29 11.469 11.469 0 0 1 -.488-1.367 9.113 9.113 0 0 1 -.586-2.636 12.789 12.789 0 0 1 -.032-.912 12.874 12.874 0 0 1 .13-1.823 13.27 13.27 0 0 1 .312-1.665 10.651 10.651 0 0 1 .371-1.167q.489-1.27 1.27-2.343a69.127 69.127 0 0 1 1.953-2.247 30.834 30.834 0 0 1 1.54-1.434 35.787 35.787 0 0 1 .609-.52l2.148-1.952 2.344-1.953a27.036 27.036 0 0 1 .936-.793q.519-.421 1.115-.867a122.368 122.368 0 0 1 1.22-.903 150.282 150.282 0 0 1 1.319-.953 11.739 11.739 0 0 0 1.153-1.028q.58-.595.995-1.218a6.036 6.036 0 0 0 .733-1.253 4.936 4.936 0 0 0 .341-1.188q.189-1.514.012-2.844a9.248 9.248 0 0 0 -.012-.086 7.294 7.294 0 0 0 -1.074-2.54 26.387 26.387 0 0 0 -1.346-2.22 29.295 29.295 0 0 0 -.216-.318q-.782-1.172-1.661-2.344a32.322 32.322 0 0 1 3.556 1.374 26.688 26.688 0 0 1 1.913.97 25.162 25.162 0 0 1 4.272 3.205 23.462 23.462 0 0 1 .123.115q1.855 1.954 3.32 4.297a28.64 28.64 0 0 1 2.403 4.555 31.626 31.626 0 0 1 .136.328 94.297 94.297 0 0 1 1.758 5.664 56.185 56.185 0 0 1 1.074 5.762 28.242 28.242 0 0 1 .26 3.863 31.006 31.006 0 0 1 -.065 1.996 40.089 40.089 0 0 1 -.621 4.793 45.724 45.724 0 0 1 -.258 1.262 51.311 51.311 0 0 0 2.253-.201 56.985 56.985 0 0 0 .775-.092q1.562-.195 3.125-.488a20.754 20.754 0 0 0 2.832-.977 17.955 17.955 0 0 0 2.575-1.27 16.607 16.607 0 0 0 .159-.097 7.668 7.668 0 0 0 .859-.498 6.26 6.26 0 0 0 .508-.381l1.368-.781a15.417 15.417 0 0 1 .769-.717 17.894 17.894 0 0 1 .305-.26 18.109 18.109 0 0 0 .824-.88 15.994 15.994 0 0 0 .25-.292q.488-.586.781-1.171.391-.586.586-1.172a5.522 5.522 0 0 0 .345-1.101 4.997 4.997 0 0 0 .046-.267 6.885 6.885 0 0 0 .222-.851 8.164 8.164 0 0 0 .071-.418q.586 1.074 1.074 2.148a23.133 23.133 0 0 1 .649 1.41 18.838 18.838 0 0 1 .328.836q.488 1.172.683 2.344a14.647 14.647 0 0 1 .192 2.126 16.27 16.27 0 0 1 0 .316 17.758 17.758 0 0 1 -.122 1.025 13.539 13.539 0 0 1 -.171.928 9.196 9.196 0 0 1 -.514 1.593 10.247 10.247 0 0 1 -.071.165 27.225 27.225 0 0 1 -.318.805 33.692 33.692 0 0 1 -.366.855l-.781 1.758q-.977 1.953-2.442 3.515a17.85 17.85 0 0 1 -3.32 2.93 41.015 41.015 0 0 1 -3.131 2.098 36.851 36.851 0 0 1 -.58.343 30.786 30.786 0 0 1 -3.809 2.05q.782.294 1.563.489a8.177 8.177 0 0 0 .903.049q.464 0 .952-.05a8.879 8.879 0 0 0 1.196-.083 10.744 10.744 0 0 0 .66-.111 29.12 29.12 0 0 0 1.389-.315 34.394 34.394 0 0 0 .662-.173 31.753 31.753 0 0 0 3.906-1.465 37.108 37.108 0 0 0 3.418-1.763 40.796 40.796 0 0 0 .488-.288 35.899 35.899 0 0 0 1.831-1.172 26.825 26.825 0 0 0 1.587-1.172q1.465-1.27 2.442-2.54a43.286 43.286 0 0 1 -3.889 10.538 40.018 40.018 0 0 1 -.994 1.768 42.091 42.091 0 0 1 -8.203 10.059 40.65 40.65 0 0 1 -11.036 7.03 44.208 44.208 0 0 1 -11.343 3.024 50.368 50.368 0 0 1 -1.742.199 8.091 8.091 0 0 0 -.691.03 10.353 10.353 0 0 0 -.579.068h-2.441a16.165 16.165 0 0 0 -1.344-.091 18.768 18.768 0 0 0 -.512-.007l-1.758-.195v-.976q-1.66-.196-3.32-.782a38.702 38.702 0 0 1 -.836-.256 44.043 44.043 0 0 1 -2.582-.916 9.812 9.812 0 0 1 -.457-.201 8.401 8.401 0 0 1 -2.375-1.654 7.168 7.168 0 0 1 -.452-.496 7.579 7.579 0 0 1 -1.306-2.336 4.665 4.665 0 0 1 -.18-.621q-.152-.714-.015-1.332a3.111 3.111 0 0 1 .083-.24q.183-.47.528-.914a5.374 5.374 0 0 1 .658-.702q.458-.366.809-.754a4.914 4.914 0 0 0 .656-.906q.586-.88.684-1.855a5.941 5.941 0 0 0 0-.03q.043-.54-.02-1.017a3.6 3.6 0 0 0 -.275-1.004q-.293-.88-1.172-1.367a25.471 25.471 0 0 0 -1.758-1.074 52.97 52.97 0 0 1 -.482-.245 46.846 46.846 0 0 1 -1.373-.732h3.32a13.985 13.985 0 0 1 .433.055 12.132 12.132 0 0 1 1.227.238q.781.195 1.563.488.976.39 1.562.879.684.39.977.879a2.231 2.231 0 0 1 .117.225q.197.432.273 1.045.098.78 0 1.757a20.518 20.518 0 0 0 .293-.3 23.244 23.244 0 0 0 .879-.97 10.272 10.272 0 0 0 .374-.533 12.125 12.125 0 0 0 .7-1.224 3.981 3.981 0 0 0 .113-.18 3.24 3.24 0 0 0 .473-1.675 2.254 2.254 0 0 0 -.247-1.023 3.047 3.047 0 0 0 -.436-.638 12.103 12.103 0 0 0 -1.074-1.464 11.92 11.92 0 0 0 -.509-.556 14.764 14.764 0 0 0 -.859-.812 2.524 2.524 0 0 1 -.575-.708 2.981 2.981 0 0 1 -.304-.854 3.899 3.899 0 0 1 -.035-.181q-.14-.807.036-1.772a5.27 5.27 0 0 1 .683-1.66q.488-.782 1.27-1.368a13.799 13.799 0 0 1 .512-.427 11.517 11.517 0 0 1 1.05-.744 24.269 24.269 0 0 1 .098-.073 22.222 22.222 0 0 1 1.465-1.002q.879-.488 1.757-.88a14.429 14.429 0 0 1 .111-.047 15.688 15.688 0 0 1 1.745-.635 21.402 21.402 0 0 1 1.953-.488q.977-.196 1.953-.293a17.894 17.894 0 0 0 -.304.259 15.417 15.417 0 0 0 -.77.717 13.271 13.271 0 0 0 -.253.26 11.43 11.43 0 0 0 -.626.717 7.026 7.026 0 0 0 -.879 1.074 7.35 7.35 0 0 0 -.024.037 7.893 7.893 0 0 0 -.659 1.232q0 .08-.129.417a11.951 11.951 0 0 1 -.067.169 9.442 9.442 0 0 0 -.02.107q-.063.334-.126.79a29.593 29.593 0 0 0 -.049.373 7.087 7.087 0 0 0 -.064.2q-.183.609-.151.95a.798.798 0 0 0 .02.119q0 .489.39.489a.687.687 0 0 1 .064.003q.059.005.107.02a.306.306 0 0 1 .122.074h.293l.195.196a.798.798 0 0 1 .171.018.941.941 0 0 1 .22.079 10.578 10.578 0 0 1 .897.54 8.403 8.403 0 0 1 1.252 1.023 5.18 5.18 0 0 1 1.269 2.05 17.862 17.862 0 0 1 .586 2.54 11.403 11.403 0 0 1 .13 1.736 12.639 12.639 0 0 1 -.032.9 10.065 10.065 0 0 1 1.074-1.27l1.172-1.171a4.264 4.264 0 0 1 1.172-.977 3.034 3.034 0 0 1 .705-.436 3.94 3.94 0 0 1 .759-.247 11.846 11.846 0 0 1 .764-.31 9.069 9.069 0 0 1 .897-.276 70.603 70.603 0 0 0 .854-.195 59.729 59.729 0 0 0 .806-.196h1.66q.879-.097 1.758-.097a12.387 12.387 0 0 0 -.55.324 14.42 14.42 0 0 0 -1.208.848l-1.758 1.367a6.975 6.975 0 0 0 -.225.235q-.318.349-.543.699a3.65 3.65 0 0 0 -.404.824 5.239 5.239 0 0 0 -.24.768 6.12 6.12 0 0 0 -.15 1.38 3.522 3.522 0 0 0 0 .018 3.69 3.69 0 0 0 .195 1.154q.098.586.293 1.172a22.027 22.027 0 0 0 .195.56 17.31 17.31 0 0 0 .196.514 18.189 18.189 0 0 0 .224.434 14.755 14.755 0 0 0 .361.64q.098.488.391.879a5.546 5.546 0 0 1 .257.275 7.1 7.1 0 0 1 .329.409 5.773 5.773 0 0 1 .174.244 4.869 4.869 0 0 1 .314.537 3.533 3.533 0 0 1 .111.156 3.905 3.905 0 0 1 .378.723 5.612 5.612 0 0 1 .178.583q.185.76.115 1.468a3.867 3.867 0 0 1 -.001.064 3.235 3.235 0 0 1 -.488 1.693 4.267 4.267 0 0 1 -.488.757 5.56 5.56 0 0 1 -.684.708 6.306 6.306 0 0 1 -.796.507 7.999 7.999 0 0 1 -1.059.47 71.962 71.962 0 0 1 -4.004 1.269 42.803 42.803 0 0 1 -3.906.977q-1.953.293-4.004.293a29.359 29.359 0 0 1 -4.102-.488m0 0v.976" fill-rule="evenodd" stroke="#000" stroke-linecap="round" stroke-width=".25mm" transform="translate(-1732.26 -102.266)"/></svg>