<svg height="68.518" viewBox="0 0 27.674 18.129" width="104.595" xmlns="http://www.w3.org/2000/svg"><path d="m127.341 53.635 9.224-17.596q1.215 2.971 3.67 8.863a2653.204 2653.204 0 0 0 1.394-1.703q2.326-2.839 6.047-7.393a1102.569 1102.569 0 0 1 1.334 1.832q1.525 2.098 3.669 5.062a5137.82 5137.82 0 0 1 2.076 2.873 473.51 473.51 0 0 1 -.815 1.378q-.936 1.575-2.263 3.79a2198.159 2198.159 0 0 1 -1.288 2.144 1008.31 1008.31 0 0 1 -.77-1.456q-1.284-2.432-3.338-6.347l-6.047 7.132a745.075 745.075 0 0 0 -.684-1.178q-1.144-1.962-2.985-5.101-2.354 1.978-6.51 5.44a5374.844 5374.844 0 0 1 -2.714 2.26z" stroke="#000" stroke-width=".066146mm" transform="translate(-127.23 -35.602)"/></svg>