<svg xmlns="http://www.w3.org/2000/svg" width="76.775" height="76.726">
    <path d="M1841.74 178.558a49.652 49.652 0 0 0 4.297.78 47.918 47.918 0 0 0 4.394.392 9.24 9.24 0 0 0 .527.059 11.12 11.12 0 0 0 .938.039h4.297a37.208 37.208 0 0 0 .64-.055 42.046 42.046 0 0 0 1.997-.238 404.673 404.673 0 0 0 .389-.05 368.29 368.29 0 0 0 2.638-.341 235.896 235.896 0 0 1 .368-.073 259.143 259.143 0 0 1 2.659-.513 35.985 35.985 0 0 0 2.832-.88q1.465-.585 2.832-1.268a13.113 13.113 0 0 0 2.539-1.661q1.27-.878 2.344-2.05a13.934 13.934 0 0 0 2.05-2.344q.88-1.27 1.563-2.637.684-1.465 1.172-2.93a17.911 17.911 0 0 0 .684-3.125 18.567 18.567 0 0 0 .13-2.17 16.87 16.87 0 0 0-.032-1.052 26.353 26.353 0 0 0-.586-3.125 14.905 14.905 0 0 0-1.075-2.832 11.28 11.28 0 0 0-.233-.51 12.471 12.471 0 0 0-1.33-2.127 34.375 34.375 0 0 0-1.855-2.441 22.916 22.916 0 0 0-1.953-2.442l-2.148-2.343a39.896 39.896 0 0 1-2.246-2.442q-1.074-1.27-2.051-2.54-.88-1.366-1.66-2.831-.684-1.465-1.27-2.93a18.132 18.132 0 0 1-.88-3.222 14.453 14.453 0 0 1-.39-3.321q0-1.66.294-3.222a17.749 17.749 0 0 1 .319-1.413 14.669 14.669 0 0 1 2.415-5.033q2.05-2.734 5.469-4.59 3.32-1.757 6.64-3.124 3.32-1.368 6.64-2.344l1.368-.391a41.533 41.533 0 0 1 .708-.195 50.063 50.063 0 0 1 .757-.195l1.367-.391a50.063 50.063 0 0 0 .757-.195 41.533 41.533 0 0 0 .708-.196q-7.226.39-14.355 1.172a278.295 278.295 0 0 0-14.356 1.758q-7.226 1.074-13.867 3.516a65.822 65.822 0 0 0-12.891 6.347 42.408 42.408 0 0 0-2.832 1.856 74.773 74.773 0 0 0-2.734 2.05 39.896 39.896 0 0 0-2.441 2.247 27.487 27.487 0 0 0-2.442 2.343 40.728 40.728 0 0 0-2.051 2.637q-1.074 1.27-1.953 2.734a25.574 25.574 0 0 0-1.757 2.832l-1.368 2.93a36.344 36.344 0 0 0-2.148 6.153 32.624 32.624 0 0 0-.12.49 35.452 35.452 0 0 0-.857 6.052v1.562a24.064 24.064 0 0 0 .684 5.665 24.621 24.621 0 0 0 2.05 5.37q1.856 3.419 4.395 6.153 2.539 2.735 5.86 4.786 3.222 2.05 6.836 3.515 3.515 1.465 7.324 2.344v-3.516 3.515q-3.81-.878-7.324-2.343m7.324-1.172a30.183 30.183 0 0 0 2.714.988 24.392 24.392 0 0 0 1.778.477 20.49 20.49 0 0 0 2.2.38 15.816 15.816 0 0 0 1.804.108 14.015 14.015 0 0 0 1.196-.047q1.18-.102 1.973-.42a4.156 4.156 0 0 0 .054-.021 3.467 3.467 0 0 0 .74-.414 2.411 2.411 0 0 0 .822-1.051 2.043 2.043 0 0 0 .174-.84q0-.52-.235-1.12a4.486 4.486 0 0 0-.037-.09q-.39-1.172-1.757-2.54a19.718 19.718 0 0 0-1.693-1.397 25.186 25.186 0 0 0-1.53-1.044 25.78 25.78 0 0 0-2.443-1.356 32.121 32.121 0 0 0-1.756-.792 31.881 31.881 0 0 0-3.315-1.1 27.887 27.887 0 0 0-1.08-.267 19.833 19.833 0 0 0-2.61-.42 16.58 16.58 0 0 0-1.491-.07q-1.318 0-2.28.223a5.299 5.299 0 0 0-.845.266 4.216 4.216 0 0 0-.781.42q-.484.335-.778.779a2.571 2.571 0 0 0-.102.169 2.419 2.419 0 0 0-.173.906q0 .59.27 1.242a4.66 4.66 0 0 0 .505.893q.292.413.698.837a11.11 11.11 0 0 0 .75.712 14.126 14.126 0 0 0 1.715 1.554 18.102 18.102 0 0 0 1.41.985 17.973 17.973 0 0 0 2.164 1.225 23.24 23.24 0 0 0 1.939.825z" vector-effect="non-scaling-stroke" transform="translate(-1814.118 -103.574)" stroke-linecap="round" fill-rule="evenodd" font-size="12" stroke="#000" stroke-width=".945" style="fill:#000;stroke:#000;stroke-width:.25mm"/>
</svg>
