<svg xmlns="http://www.w3.org/2000/svg" width="196.822" height="68.329" viewBox="0 0 52.076 18.079">
    <path d="M117.746 40.87a5.598 5.598 0 0 0 1.55-2.716q.335-1.421.567-2.455a317.211 317.211 0 0 0 .138-.6l.123-.538a154.444 154.444 0 0 0 .127-.567q.362-1.628.44-1.886l.051-.284h-12.066a10.315 10.315 0 0 0-.03.111q-.088.349-.177.793a30.008 30.008 0 0 0-.016.064 27.454 27.454 0 0 0-.217.944l-.187.815a74.452 74.452 0 0 0-.123.554l-.155.594h5.969a50.266 50.266 0 0 0-.023.096q-.07.3-.161.709a158.078 158.078 0 0 0-.074.332l-.156.698a1.574 1.574 0 0 1-.232.512 1.945 1.945 0 0 1-.362.392 2.073 2.073 0 0 1-.252.172 1.549 1.549 0 0 1-.781.216h-8.734q-.542 0-.852-.388a.955.955 0 0 1-.22-.611q0-.053.006-.108a1.283 1.283 0 0 1 .033-.185 384.92 384.92 0 0 1 .232-1.015q.11-.483.212-.915a191.478 191.478 0 0 1 .227-.964q.162-.759.303-1.377a54.99 54.99 0 0 1 .163-.69 924.622 924.622 0 0 1 .12-.53q.258-1.134.354-1.545a14.96 14.96 0 0 1 .042-.173l.052-.336a1.506 1.506 0 0 1 .27-.554 1.988 1.988 0 0 1 .35-.35 1.995 1.995 0 0 1 .103-.075 1.58 1.58 0 0 1 .905-.287h16.2a14.436 14.436 0 0 1 .054-.255l.063-.28a25.986 25.986 0 0 1 .09-.37q.103-.516.207-1.007l.187-.815a74.452 74.452 0 0 0 .123-.554l.155-.595h-19.017q-1.912 0-3.566 1.344a7.093 7.093 0 0 0-.487.425 5.511 5.511 0 0 0-1.606 2.753 403.6 403.6 0 0 1-.264 1.174q-.127.561-.244 1.069a215.895 215.895 0 0 1-.267 1.142 180.508 180.508 0 0 1-.007.034q-.228 1.044-.414 1.836a66.533 66.533 0 0 1-.121.507q-.155.697-.259 1.189-.088.337-.14.589a5.547 5.547 0 0 0-.04.211q-.148.63-.192.834a4.262 4.262 0 0 0-.015.07l-.052.13a6.262 6.262 0 0 0-.054.335 5.23 5.23 0 0 0-.05.699q0 1.214.75 2.17a3.364 3.364 0 0 0 1.682 1.14 4.436 4.436 0 0 0 1.29.178h14.364a5.289 5.289 0 0 0 1.904-.35 6.247 6.247 0 0 0 1.662-.968 7.232 7.232 0 0 0 .544-.488zm29.403-16.023h-7.158q-1.622 1.326-4.501 3.65a2751.21 2751.21 0 0 1-1.88 1.518 854.128 854.128 0 0 0-.655-.972q-.749-1.113-1.808-2.678a3967.958 3967.958 0 0 0-1.026-1.518h-7.234a5336.645 5336.645 0 0 0 1.135 1.673q1.302 1.919 3.147 4.634a25334.222 25334.222 0 0 0 1.79 2.633 1563.084 1563.084 0 0 0-2.064 1.66q-3.44 2.772-8.943 7.229h7.157q2.144-1.732 6.382-5.168a343.929 343.929 0 0 0 .655.972q.753 1.113 1.822 2.679a1610.005 1610.005 0 0 0 1.037 1.517h7.234q-2.04-2.972-6.072-8.94 3.67-2.946 10.982-8.889z" vector-effect="non-scaling-stroke" style="fill:#000;stroke:#000;stroke-width:.0661458mm" transform="translate(-95.425 -24.722)"/>
</svg>
