<svg xmlns="http://www.w3.org/2000/svg" width="79.851" height="77.295" viewBox="0 0 21.127 20.451">
    <path d="M114.947 70.116a14.032 14.032 0 0 0-.62-1.112 6.172 6.172 0 0 0-.387-.542 10.094 10.094 0 0 0-.388-.517 4.142 4.142 0 0 0-.465-.49 4.106 4.106 0 0 0-.543-.414 16.34 16.34 0 0 0-.035-.026 17.855 17.855 0 0 0-.559-.388 16.561 16.561 0 0 0-.071-.045 18.227 18.227 0 0 0-.523-.316q-.31-.181-.594-.388a7.56 7.56 0 0 1-.595-.44 7.399 7.399 0 0 1-.09-.073 6.657 6.657 0 0 1-.788-.753 6.896 6.896 0 0 1-.646-.93 7.522 7.522 0 0 1-.44-1.085 5.489 5.489 0 0 1-.083-.277 6.243 6.243 0 0 1-.175-.886 8.18 8.18 0 0 1-.039-.788 7.404 7.404 0 0 1 .04-.762 6.412 6.412 0 0 1 .387-1.473 35.096 35.096 0 0 1 .594-1.421 111.871 111.871 0 0 1 .672-1.422q-.853.57-1.499 1.318-.646.724-1.11 1.628a11.799 11.799 0 0 0-.178.349 10.428 10.428 0 0 0-.598 1.511 10.727 10.727 0 0 0-.387 1.938 5.19 5.19 0 0 0-.026.517 5.19 5.19 0 0 0-.026.517q0 .284.026.568a5.985 5.985 0 0 0 .007.272 7.906 7.906 0 0 0 .019.297q.077.517.18 1.033.13.517.31 1.008.517 1.498 1.448 2.687a8.552 8.552 0 0 0 .058.074 8.956 8.956 0 0 0 2.216 1.967 21.115 21.115 0 0 0 2.738 1.473q1.421.62 2.92 1.008a.465.465 0 0 0 .01-.023q.016-.035.016-.055v-.077a6.925 6.925 0 0 0-.103-1.189q-.078-.568-.259-1.137-.155-.594-.413-1.136zm11.162-3.592q-.516 1.498-1.447 2.687a8.93 8.93 0 0 1-2.252 2.028 10.013 10.013 0 0 1-.021.013 21.115 21.115 0 0 1-2.74 1.473q-1.42.62-2.919 1.008a.457.457 0 0 1-.011-.024q-.015-.034-.015-.054v-.077q0-.595.104-1.189a8.875 8.875 0 0 1 .232-1.137 8.179 8.179 0 0 1 .44-1.136q.284-.57.62-1.112a6.172 6.172 0 0 1 .387-.542 5.23 5.23 0 0 1 .299-.386 6.058 6.058 0 0 1 .115-.13 5.952 5.952 0 0 1 .439-.492 5.656 5.656 0 0 1 .371-.307 4.891 4.891 0 0 1 .146-.106 17.855 17.855 0 0 0 .558-.388 16.34 16.34 0 0 0 .036-.026l.62-.361q.31-.181.594-.388a7.56 7.56 0 0 0 .595-.44 6.803 6.803 0 0 0 .78-.717 6.205 6.205 0 0 0 .098-.11 6.198 6.198 0 0 0 .646-.955 6.407 6.407 0 0 0 .39-.91 7.188 7.188 0 0 0 .05-.15 5.863 5.863 0 0 0 .219-.895 6.736 6.736 0 0 0 .039-.267 7.027 7.027 0 0 0 .033-.677 6.384 6.384 0 0 0-.06-.873q-.077-.75-.36-1.473-.285-.724-.621-1.421a35.615 35.615 0 0 0-.646-1.422 7.345 7.345 0 0 1 1.499 1.318q.646.724 1.11 1.628a14.284 14.284 0 0 1 .737 1.744 13.135 13.135 0 0 1 .039.116q.284.957.387 1.938.026.259.026.517.026.258.026.517 0 .284-.026.568a5.985 5.985 0 0 1-.006.272 7.906 7.906 0 0 1-.02.297 21.63 21.63 0 0 1-.18 1.033q-.13.517-.31 1.008zm-8.242-5.245a5.23 5.23 0 0 0-.44.878 5.51 5.51 0 0 0-.223.725 6.442 6.442 0 0 0-.06.283l-.259 1.033q-.103.543-.207 1.112-.051.18-.077.361a24.652 24.652 0 0 1-.026.2 20.252 20.252 0 0 1-.026.188q-.025.18-.077.362a3.48 3.48 0 0 1-.038.211 4.38 4.38 0 0 1-.04.176v.052q-.017.034-.034.046a.03.03 0 0 1-.017.005q0 .021-.017.025a.038.038 0 0 1-.01.001h-.129q-.026 0-.051-.025a.031.031 0 0 1-.018-.007q-.012-.007-.023-.026a.222.222 0 0 1-.011-.02v-.05a4.258 4.258 0 0 1-.05-.225 3.379 3.379 0 0 1-.028-.163q-.051-.181-.077-.362a20.252 20.252 0 0 1-.026-.187 24.652 24.652 0 0 1-.026-.2l-.103-.362q-.078-.569-.181-1.112a11.325 11.325 0 0 0-.258-1.033q-.104-.517-.285-1.008a5.23 5.23 0 0 0-.439-.878 6.905 6.905 0 0 0-.623-.777 7.549 7.549 0 0 0-.023-.024 6.46 6.46 0 0 0-.8-.724 21.176 21.176 0 0 0-.689-.465 23.754 23.754 0 0 0-.242-.155 130.806 130.806 0 0 0-.765-.48 150.498 150.498 0 0 0-.269-.166 2.796 2.796 0 0 1-.095-.05q-.048-.026-.101-.058a4.872 4.872 0 0 1-.036-.02q-.103-.104-.233-.182a.996.996 0 0 0-.198-.115 1.13 1.13 0 0 0-.034-.014 3.01 3.01 0 0 1-.137-.087 2.39 2.39 0 0 1-.096-.068q-.026 0-.052-.026l-.051-.052v-.129l.051-.051q.026-.026.052-.026.026-.026.052-.026t.051.026a.985.985 0 0 1 .103.005q.053.006.112.017a1.67 1.67 0 0 1 .018.004q.103.025.207.025.129.026.258.026a.839.839 0 0 0 .117.02 1.123 1.123 0 0 0 .116.006 2.462 2.462 0 0 0 .273.061 2.876 2.876 0 0 0 .114.017 2.462 2.462 0 0 0 .274.06 2.876 2.876 0 0 0 .114.017 24.652 24.652 0 0 1 .2.026 20.252 20.252 0 0 1 .187.026h.388q.248.022.456.006a1.993 1.993 0 0 0 .06-.006 3.448 3.448 0 0 0 .332-.053 3 3 0 0 0 .108-.025 1.26 1.26 0 0 0 .216-.074 1.03 1.03 0 0 0 .146-.08q.18-.078.31-.182a2.14 2.14 0 0 0 .337-.341 2.59 2.59 0 0 0 .128-.175 2.252 2.252 0 0 0 .228-.396 2.847 2.847 0 0 0 .108-.276q.155-.413.284-.801l.258-.827.052-.258.052-.259a1.477 1.477 0 0 0 .076-.25 1.375 1.375 0 0 0 .003-.008 2.287 2.287 0 0 0 .04-.108q.017-.05.03-.095a1.284 1.284 0 0 0 .007-.03q0-.025.026-.051.026-.026.026-.052.026 0 .052-.026h.103q.026.026.052.026.026.026.026.052.025.026.025.051.023.09.064.197a2.556 2.556 0 0 0 .014.036 1.471 1.471 0 0 0 .076.254 1.6 1.6 0 0 0 .003.004l.052.259a1.471 1.471 0 0 0 .075.254 1.6 1.6 0 0 0 .003.004q.104.413.233.827a22.324 22.324 0 0 0 .209.596 25.066 25.066 0 0 0 .075.205 4.798 4.798 0 0 0 .157.351q.086.174.18.32a2.424 2.424 0 0 0 .274.344 2.035 2.035 0 0 0 .19.173 1.192 1.192 0 0 0 .162.109 1.553 1.553 0 0 0 .148.072q.155.104.362.155a3.21 3.21 0 0 0 .325.063 3.7 3.7 0 0 0 .114.015 2.143 2.143 0 0 0 .182.012q.122.003.256-.006a3.34 3.34 0 0 0 .079-.006h.388a20.252 20.252 0 0 1 .187-.026 24.652 24.652 0 0 1 .2-.026 3.48 3.48 0 0 0 .212-.037 4.38 4.38 0 0 0 .176-.04q.206-.026.413-.078a.985.985 0 0 0 .103-.006q.053-.005.112-.016a1.67 1.67 0 0 0 .018-.004.985.985 0 0 0 .102-.005q.054-.006.112-.017a1.67 1.67 0 0 0 .018-.004q.104 0 .207-.025a.839.839 0 0 1 .117-.02 1.123 1.123 0 0 1 .115-.006q.026-.026.052-.026t.052.026.052.026l.051.051v.129l-.051.052q-.026.026-.052.026a2.46 2.46 0 0 1-.124.087 3.097 3.097 0 0 1-.109.068 2.796 2.796 0 0 0-.095.05l-.102.058a4.872 4.872 0 0 0-.035.021 2.438 2.438 0 0 1-.192.14 2.12 2.12 0 0 1-.066.041q-.13.078-.233.13a92.236 92.236 0 0 1-.946.606 84.32 84.32 0 0 1-.062.04 22.433 22.433 0 0 0-.707.464 19.978 19.978 0 0 0-.223.155q-.465.336-.827.724-.362.387-.62.8z" vector-effect="non-scaling-stroke" style="fill:#000;stroke:#000;stroke-width:.0661458mm" transform="translate(-105.65 -53.428)"/>
</svg>
